<?xml version="1.0" encoding="utf-8"?>
<!-- Generator: Adobe Illustrator 23.0.1, SVG Export Plug-In . SVG Version: 6.00 Build 0)  -->
<svg version="1.1" id="レイヤー_1" xmlns="http://www.w3.org/2000/svg" xmlns:xlink="http://www.w3.org/1999/xlink" x="0px"
	 y="0px" viewBox="0 0 300 50" style="enable-background:new 0 0 300 50;" xml:space="preserve">
<g>
	<g>
		<path d="M4,13h7.1c0.9,0,1.8,0.1,2.7,0.3s1.7,0.5,2.5,1c0.7,0.5,1.3,1.1,1.8,1.9c0.5,0.8,0.7,1.8,0.7,3c0,1.2-0.4,2.4-1.1,3.3
			s-1.8,1.5-3.1,1.8v0.1c1.5,0.2,2.8,0.8,3.8,1.8c1,1,1.5,2.4,1.5,4.2c0,1-0.2,1.9-0.6,2.7c-0.4,0.8-1,1.5-1.8,2.1s-1.7,1-2.8,1.3
			c-1.1,0.3-2.3,0.5-3.7,0.5H4V13z M6.4,23.4h4.9c0.6,0,1.2-0.1,1.8-0.2c0.6-0.1,1.1-0.4,1.6-0.7c0.5-0.3,0.9-0.8,1.2-1.3
			c0.3-0.5,0.5-1.2,0.5-2c0-0.8-0.1-1.4-0.4-1.9c-0.3-0.5-0.7-1-1.2-1.3c-0.5-0.3-1.1-0.6-1.8-0.7s-1.4-0.2-2.2-0.2H6.4L6.4,23.4
			L6.4,23.4z M6.4,34.7h4.5c0.9,0,1.7-0.1,2.5-0.2s1.5-0.4,2.1-0.8c0.6-0.4,1.1-0.8,1.4-1.4s0.5-1.3,0.5-2.1c0-1.6-0.5-2.7-1.6-3.5
			c-1.1-0.8-2.6-1.2-4.5-1.2H6.4V34.7z"/>
		<path d="M48.9,24.9c0,1.8-0.3,3.5-0.9,5c-0.6,1.5-1.5,2.8-2.6,4c-1.1,1.1-2.4,2-3.9,2.6c-1.5,0.6-3.2,0.9-4.9,0.9
			s-3.4-0.3-4.9-0.9c-1.5-0.6-2.8-1.5-3.9-2.6c-1.1-1.1-2-2.4-2.6-4c-0.6-1.5-0.9-3.2-0.9-5c0-1.8,0.3-3.5,0.9-5
			c0.6-1.5,1.5-2.8,2.6-4s2.4-2,3.9-2.6c1.5-0.6,3.1-0.9,4.9-0.9s3.4,0.3,4.9,0.9s2.8,1.5,3.9,2.6c1.1,1.1,2,2.4,2.6,4
			C48.6,21.4,48.9,23.1,48.9,24.9z M46.3,24.9c0-1.4-0.2-2.7-0.7-4s-1.1-2.4-2-3.3c-0.8-1-1.9-1.7-3.1-2.3s-2.6-0.8-4.1-0.8
			c-1.5,0-2.9,0.3-4.1,0.8c-1.2,0.6-2.3,1.3-3.1,2.3s-1.5,2-2,3.3s-0.7,2.6-0.7,4s0.2,2.7,0.7,4s1.1,2.3,2,3.3
			c0.9,0.9,1.9,1.7,3.1,2.2s2.6,0.8,4.1,0.8c1.5,0,2.9-0.3,4.1-0.8c1.2-0.6,2.3-1.3,3.1-2.2c0.8-0.9,1.5-2,2-3.3
			C46.1,27.6,46.3,26.3,46.3,24.9z"/>
		<path d="M70.8,33.3L70.8,33.3L70.9,13h2.4v23.8h-3L56.4,16.3h-0.1v20.5h-2.4V13h3L70.8,33.3z"/>
	</g>
	<g>
		<path d="M80,38.9v-0.7h8.7v0.7H80z"/>
		<path d="M92.2,33.8l-1.9,0.1c-0.1,0-0.2,0-0.3,0c-0.1,0-0.3,0-0.4,0c-0.1,0-0.2,0-0.4,0c-0.1,0-0.2,0-0.3-0.1
			c-0.1,0-0.1-0.1-0.2-0.2s0-0.2,0-0.3l0.1-0.6c0.2,0.1,0.5,0.1,0.8,0.1c0.3,0,0.7,0,1,0.1c0.3,0,0.6,0,0.9,0s0.5,0,0.6,0
			c0.7,0,1.3,0,1.9,0c0.6,0,1.2,0,1.7,0v-0.5c0-0.2,0-0.4-0.1-0.5c0-0.1-0.1-0.2-0.3-0.2c-0.1,0-0.2-0.1-0.2-0.1
			c-0.1-0.1-0.1-0.2-0.1-0.3l0-0.3l1.1,0.1c0.3,0,0.4,0.1,0.5,0.3c0.1,0.2,0.1,0.3,0.1,0.4v1.2l2.2-0.1c0.2,0,0.4,0,0.6,0
			s0.5,0,0.8,0c0.2,0,0.5,0,0.7,0s0.3,0,0.4,0c0.3,0,0.6,0,0.8-0.1s0.4,0,0.5,0.1l0.6,0.5c0.1,0.1,0.1,0.2,0.1,0.2
			c0,0.1,0,0.1,0,0.2c0,0.1-0.1,0.1-0.1,0.2c-0.1,0.1-0.1,0.1-0.2,0.1l-1.1-0.2c-0.2,0-0.5,0-0.8,0c-0.3,0-0.6,0-0.9,0
			c-0.3,0-0.6,0-0.9,0s-0.6,0-0.8,0L92.2,33.8z M93.4,39.5c-0.1,0-0.3,0-0.4,0c-0.2,0-0.3,0-0.4-0.1s-0.2-0.2-0.3-0.3
			c-0.1-0.1-0.1-0.3-0.1-0.5V37c0-0.2,0-0.4-0.1-0.5s-0.1-0.2-0.3-0.3c-0.1,0-0.2-0.1-0.3-0.1c-0.1-0.1-0.1-0.2-0.1-0.3v-0.5l1,0.2
			c0.2,0,0.3,0.1,0.4,0.2s0.2,0.2,0.2,0.2c0,0.1,0.1,0.2,0.1,0.3s0,0.3,0,0.4v1.5c0,0.2,0,0.3,0.1,0.4s0.2,0.1,0.3,0.1h3
			c0.7,0,1.3,0,1.7-0.1c0.4,0,0.8-0.1,1-0.2c0.1,0,0.2,0,0.3-0.1c0.1,0,0.2,0,0.3,0.1l0.7,0.3c0.2,0.1,0.3,0.1,0.3,0.2
			c0.1,0.1,0.1,0.2,0,0.3c0,0.2-0.1,0.3-0.2,0.3c-0.1,0-0.2,0-0.3,0C100.4,39.5,93.4,39.5,93.4,39.5z M92.4,26.5
			c0-0.3,0-0.5-0.1-0.6c-0.1-0.1-0.2-0.2-0.3-0.3c-0.1,0-0.2-0.1-0.2-0.1c0,0,0-0.1,0-0.3V25l0.9,0.1c0.4,0,0.6,0.2,0.7,0.4
			c0.1,0.2,0.1,0.5,0.1,0.8v3.5l5.1-0.1c0.1,0,0.2,0,0.3-0.1c0.1-0.1,0.1-0.2,0.1-0.3v-1.3l-4.1,0c-0.1,0-0.2,0-0.3,0
			s-0.1-0.1-0.2-0.2l-0.3-0.5c-0.1-0.1-0.1-0.1,0-0.2s0.2-0.1,0.3-0.1l0.4,0.1c0.1,0,0.2,0,0.3,0s0.2,0,0.3,0l3.7,0v-1.2
			c0-0.3,0-0.5-0.1-0.6s-0.2-0.2-0.3-0.3c-0.1,0-0.2-0.1-0.2-0.1s0-0.2,0-0.3v-0.2l0.9,0.1c0.4,0,0.6,0.2,0.6,0.4
			c0.1,0.2,0.1,0.5,0.1,0.8v4.3c0,0.2-0.1,0.3-0.2,0.5c-0.1,0.1-0.3,0.2-0.6,0.2l-5.7,0v0.1c0,0.1,0,0.2-0.1,0.3
			c-0.1,0.1-0.1,0.2-0.1,0.2c-0.1,0.1-0.2,0.1-0.3,0.1c-0.1,0-0.2,0-0.2,0c0,0-0.1,0-0.1-0.1s-0.1-0.1-0.1-0.2
			c0-0.1-0.1-0.2-0.1-0.3s0-0.2,0-0.3L92.4,26.5L92.4,26.5z"/>
		<path d="M105.2,28.5c0.7-0.7,1.5-1,2.6-1c0.5,0,1,0.1,1.5,0.3s0.8,0.4,1.1,0.7c0.3,0.3,0.6,0.7,0.7,1.1c0.2,0.4,0.3,0.9,0.3,1.4
			s-0.1,1-0.3,1.4c-0.2,0.4-0.4,0.8-0.7,1.1c-0.3,0.3-0.7,0.5-1.1,0.7c-0.4,0.2-0.9,0.2-1.4,0.2s-1-0.1-1.4-0.2
			c-0.4-0.2-0.8-0.4-1.2-0.7c-0.3-0.3-0.6-0.7-0.7-1.1c-0.2-0.4-0.3-0.9-0.3-1.4C104.2,30,104.5,29.2,105.2,28.5z M105.9,29.2
			c-0.4,0.5-0.7,1.1-0.7,1.8c0,0.7,0.2,1.3,0.7,1.8s1.1,0.7,1.9,0.7c0.8,0,1.4-0.2,1.8-0.7c0.4-0.5,0.7-1.1,0.7-1.9
			c0-0.7-0.2-1.3-0.6-1.8s-1.1-0.8-1.9-0.8C107,28.4,106.4,28.7,105.9,29.2z M115.2,31.4l0.8,0c0.2,0,0.3,0,0.4,0
			c0.1,0,0.3-0.1,0.6-0.2c0.1,0,0.2-0.1,0.3-0.1c0.1,0,0.2,0,0.2,0s0.1,0,0.2,0s0.1,0,0.2,0.1l0.6,0.3c0.1,0.1,0.1,0.1,0.1,0.2
			c0,0.1,0,0.2-0.1,0.2l-0.1,0.1c-0.1,0.1-0.2,0.2-0.2,0.2c-0.1,0-0.2,0-0.3,0c-0.1,0-0.2,0-0.3,0s-0.2,0-0.2,0h-2.2v5.6
			c0,0.2,0,0.3-0.1,0.5s-0.1,0.3-0.2,0.5c-0.1,0.2-0.2,0.3-0.2,0.4c-0.1,0.1-0.1,0.2-0.2,0.2c-0.1,0.1-0.1,0.1-0.2,0.1
			c-0.1,0-0.1-0.1-0.1-0.1V25.2c0-0.2-0.1-0.4-0.2-0.5c-0.1-0.1-0.2-0.3-0.4-0.4c-0.1-0.1-0.1-0.2,0-0.4c0.1-0.2,0.2-0.2,0.3-0.1
			l0.7,0.3c0.2,0.1,0.4,0.2,0.4,0.3c0.1,0.1,0.1,0.2,0.1,0.5L115.2,31.4L115.2,31.4z"/>
		<path d="M120.6,28.5c0.7-0.7,1.5-1,2.6-1c0.5,0,1,0.1,1.5,0.3s0.8,0.4,1.1,0.7c0.3,0.3,0.6,0.7,0.7,1.1c0.2,0.4,0.3,0.9,0.3,1.4
			s-0.1,1-0.3,1.4c-0.2,0.4-0.4,0.8-0.7,1.1c-0.3,0.3-0.7,0.5-1.1,0.7c-0.4,0.2-0.9,0.2-1.4,0.2s-1-0.1-1.4-0.2
			c-0.4-0.2-0.8-0.4-1.2-0.7c-0.3-0.3-0.6-0.7-0.7-1.1c-0.2-0.4-0.3-0.9-0.3-1.4C119.7,30,120,29.2,120.6,28.5z M121.4,29.2
			c-0.4,0.5-0.7,1.1-0.7,1.8c0,0.7,0.2,1.3,0.7,1.8s1.1,0.7,1.9,0.7c0.8,0,1.4-0.2,1.8-0.7c0.4-0.5,0.7-1.1,0.7-1.9
			c0-0.7-0.2-1.3-0.6-1.8s-1.1-0.8-1.9-0.8C122.5,28.4,121.8,28.7,121.4,29.2z M131.3,37.8c0,0.2,0,0.3-0.1,0.5s-0.1,0.3-0.2,0.5
			c-0.1,0.2-0.1,0.3-0.2,0.4c-0.1,0.1-0.1,0.2-0.2,0.2c-0.1,0.1-0.1,0.1-0.2,0.1c-0.1,0-0.1-0.1-0.1-0.1V25.2c0-0.2-0.1-0.4-0.2-0.5
			c-0.1-0.1-0.2-0.3-0.4-0.4c-0.1-0.1-0.1-0.2,0-0.4s0.2-0.2,0.4-0.1l0.7,0.3c0.2,0.1,0.4,0.2,0.4,0.3s0.1,0.2,0.1,0.5L131.3,37.8
			L131.3,37.8z"/>
		<path d="M135,28.8c0.6-0.6,1.4-0.9,2.4-0.9c1,0,1.8,0.3,2.4,0.9s0.9,1.4,0.9,2.3c0,1-0.3,1.8-0.9,2.4s-1.4,0.9-2.4,0.9
			c-1,0-1.8-0.3-2.4-0.9s-0.9-1.4-0.9-2.3C134.1,30.2,134.4,29.4,135,28.8z M135.7,29.4c-0.4,0.4-0.6,1-0.6,1.7s0.2,1.3,0.6,1.7
			c0.4,0.4,0.9,0.6,1.6,0.6c0.7,0,1.2-0.2,1.6-0.6s0.6-1,0.6-1.7s-0.2-1.3-0.6-1.7s-0.9-0.6-1.6-0.6C136.6,28.8,136.1,29,135.7,29.4
			z M143.9,37.2c0,0.2,0,0.3-0.1,0.5s-0.1,0.3-0.2,0.5c-0.1,0.2-0.1,0.3-0.2,0.4c-0.1,0.1-0.1,0.2-0.2,0.2c-0.1,0.1-0.1,0.1-0.2,0.1
			c-0.1,0-0.1-0.1-0.1-0.1v-7.2l-1.1,0.1c-0.1,0-0.2,0-0.3,0s-0.1-0.1-0.2-0.2l-0.4-0.6c-0.1-0.1,0-0.1,0-0.2s0.1-0.1,0.3-0.1
			l0.4,0.1c0.1,0,0.2,0,0.3,0s0.2,0,0.3,0h0.6v-4.4c0-0.1,0-0.2-0.1-0.3s-0.1-0.2-0.1-0.2c-0.1-0.1-0.1-0.1-0.2-0.2
			c-0.1-0.1-0.1-0.1-0.2-0.2c-0.1-0.1-0.1-0.2,0-0.4s0.2-0.2,0.4-0.1l0.7,0.3c0.2,0.1,0.4,0.2,0.4,0.3s0.1,0.2,0.1,0.5L143.9,37.2
			L143.9,37.2z M146.8,37.8c0,0.2,0,0.3-0.1,0.5s-0.1,0.3-0.2,0.5s-0.1,0.3-0.2,0.4c-0.1,0.1-0.1,0.2-0.2,0.2
			c-0.1,0.1-0.1,0.1-0.2,0.1c-0.1,0-0.1-0.1-0.1-0.1V25.2c0-0.2-0.1-0.4-0.1-0.5c-0.1-0.1-0.2-0.3-0.4-0.4c-0.1-0.1-0.1-0.2,0-0.4
			c0.1-0.2,0.2-0.2,0.4-0.1l0.7,0.3c0.3,0.1,0.4,0.2,0.5,0.3s0.1,0.2,0.1,0.5L146.8,37.8L146.8,37.8z"/>
		<path d="M152.6,37.2l-1.9,0c-0.1,0-0.2,0-0.3,0c-0.1,0-0.3,0-0.4,0c-0.1,0-0.2,0-0.4,0c-0.1,0-0.2,0-0.3-0.1
			c-0.1,0-0.1-0.1-0.2-0.2c0-0.1,0-0.2,0-0.3l0.1-0.6c0.2,0.1,0.5,0.1,0.8,0.1c0.3,0,0.7,0,1,0.1c0.3,0,0.6,0,0.9,0
			c0.3,0,0.5,0,0.6,0c0.7,0,1.4,0,2,0c0.6,0,1.2,0,1.8,0c0.6,0,1.1,0,1.6,0s1,0,1.4,0c0.2,0,0.4,0,0.6,0s0.5,0,0.8,0
			c0.2,0,0.5,0,0.7,0s0.3,0,0.4,0c0.4,0,0.6,0,0.9,0s0.4,0,0.5,0.1l0.6,0.5c0.1,0.1,0.1,0.2,0.1,0.2c0,0.1,0,0.1,0,0.2
			c0,0.1-0.1,0.1-0.1,0.2c-0.1,0.1-0.1,0.1-0.2,0.1l-1.1-0.2c-0.2,0-0.5,0-0.8,0c-0.3,0-0.6,0-0.9,0c-0.3,0-0.6,0-0.9,0
			s-0.6,0-0.8,0L152.6,37.2z M157.9,28.6c-0.1-0.1-0.1-0.2-0.1-0.3l0-0.3l1.1,0.1c0.3,0,0.4,0.1,0.5,0.3c0.1,0.1,0.1,0.3,0.1,0.4
			v3.8c0.1,0,0.1,0,0.2,0s0.1,0,0.2,0c0.1,0,0.1,0,0.1,0s0.1,0,0.1,0c0.4-0.1,0.6-0.1,0.7-0.1s0.2,0.1,0.4,0.1l0.4,0.2
			c0.2,0.1,0.2,0.2,0.2,0.2c0,0.1,0,0.2-0.1,0.3c-0.1,0.1-0.1,0.2-0.2,0.2c-0.1,0-0.1,0-0.2,0c-0.1,0-0.2,0-0.4-0.1
			c-0.2,0-0.3-0.1-0.5-0.1c-0.2,0-0.5,0-0.9,0s-0.7,0-1,0c-0.4,0-0.7,0-1.1,0c-0.4,0-0.6,0-0.9,0c-0.3,0-0.6,0-0.9,0
			c-0.4,0-0.7,0-1.1,0s-0.7,0-1.1,0c-0.4,0-0.7,0-0.9,0c-0.3,0-0.5,0-0.7,0s-0.3-0.1-0.4-0.1c-0.1,0-0.1-0.1-0.1-0.1s0-0.1,0-0.2
			l0.1-0.6c0.4,0.1,0.8,0.1,1.2,0.1c0.4,0,0.8,0,1.2,0v-2.9c0-0.2,0-0.4-0.1-0.5c0-0.1-0.1-0.2-0.3-0.2c-0.1,0-0.2-0.1-0.2-0.1
			c-0.1-0.1-0.1-0.2-0.1-0.3l0-0.3l1.1,0.1c0.3,0,0.4,0.1,0.5,0.3c0.1,0.1,0.1,0.3,0.1,0.4v3.6c0.3,0,0.6,0,0.8,0s0.6,0,0.9,0
			l1.8-0.1v-3.1c0-0.2,0-0.4-0.1-0.5c0-0.1-0.1-0.2-0.3-0.2C158,28.7,157.9,28.7,157.9,28.6z M155.5,27.5c-0.3,0-0.6,0-0.8,0
			c-0.3,0-0.6,0-0.9,0s-0.6,0-0.8,0c-0.3,0-0.5,0-0.7,0s-0.3-0.1-0.4-0.1c-0.1,0-0.1-0.1-0.1-0.1s0-0.1,0-0.2l0.1-0.6
			c0.4,0.1,0.8,0.1,1.1,0.1c0.4,0,0.8,0,1.1,0c0.3,0,0.7,0,1.2,0c0.5,0,1,0,1.4-0.1c0.2,0,0.5,0,0.8,0c0.3,0,0.6,0,0.9,0
			c0.3,0,0.5,0,0.7,0c0.2,0,0.3,0,0.4,0c0.3,0,0.6,0,0.7,0c0.1,0,0.3,0,0.4,0.1l0.4,0.2c0.2,0.1,0.2,0.2,0.2,0.2
			c0,0.1,0,0.2-0.1,0.3c-0.1,0.1-0.1,0.2-0.2,0.2c-0.1,0-0.1,0-0.2,0c-0.1,0-0.2,0-0.4-0.1c-0.2,0-0.3,0-0.5-0.1c-0.2,0-0.5,0-0.8,0
			s-0.6,0-0.9,0s-0.6,0-1,0s-0.6,0-0.9,0C156,27.5,155.8,27.5,155.5,27.5z"/>
	</g>
</g>
</svg>
