<?xml version="1.0" encoding="utf-8"?>
<!-- Generator: Adobe Illustrator 23.0.1, SVG Export Plug-In . SVG Version: 6.00 Build 0)  -->
<svg version="1.1" id="レイヤー_1" xmlns="http://www.w3.org/2000/svg" xmlns:xlink="http://www.w3.org/1999/xlink" x="0px"
	 y="0px" viewBox="0 0 300 50" style="enable-background:new 0 0 300 50;" xml:space="preserve">
<g>
	<g>
		<path d="M5.9,34.2H17v2.2H3.5V12.5h2.4C5.9,12.5,5.9,34.2,5.9,34.2z"/>
		<path d="M29.4,36.9c-1.8,0-3.3-0.3-4.4-0.9c-1.1-0.6-2-1.4-2.7-2.3c-0.7-0.9-1.1-2-1.4-3.1c-0.3-1.1-0.4-2.2-0.4-3.1V12.5h2.4
			v14.6c0,1,0.1,1.9,0.3,2.8c0.2,0.9,0.6,1.7,1.1,2.4c0.5,0.7,1.2,1.3,2,1.7c0.8,0.4,1.9,0.7,3.1,0.7s2.2-0.2,3.1-0.7
			c0.8-0.4,1.5-1,2-1.7c0.5-0.7,0.9-1.5,1.1-2.4s0.3-1.8,0.3-2.8V12.5h2.4v14.9c0,1-0.1,2-0.4,3.1s-0.7,2.1-1.4,3.1
			s-1.6,1.7-2.7,2.3C32.6,36.6,31.2,36.9,29.4,36.9z"/>
		<path d="M56,16.3c-0.5-0.7-1.2-1.3-2-1.7c-0.8-0.4-1.8-0.6-2.9-0.6c-0.6,0-1.2,0.1-1.8,0.3s-1.2,0.5-1.7,0.8
			c-0.5,0.4-0.9,0.8-1.2,1.4s-0.5,1.2-0.5,2s0.1,1.4,0.4,1.9c0.3,0.5,0.7,0.9,1.2,1.3s1,0.6,1.6,0.9c0.6,0.2,1.3,0.5,1.9,0.7
			c0.8,0.3,1.7,0.6,2.5,0.9c0.8,0.3,1.6,0.7,2.3,1.2c0.7,0.5,1.2,1.1,1.6,1.9c0.4,0.8,0.6,1.8,0.6,2.9s-0.2,2.2-0.7,3.1
			s-1,1.6-1.8,2.1c-0.7,0.6-1.5,1-2.5,1.2s-1.9,0.4-2.8,0.4c-0.7,0-1.4-0.1-2.2-0.2s-1.4-0.4-2-0.7c-0.7-0.3-1.2-0.7-1.8-1.1
			s-1-1-1.5-1.5l2.1-1.6c0.5,0.9,1.2,1.6,2.2,2.1c0.9,0.6,2,0.9,3.3,0.9c0.6,0,1.2-0.1,1.8-0.3c0.6-0.2,1.2-0.5,1.7-0.9
			c0.5-0.4,0.9-0.9,1.2-1.5c0.3-0.6,0.5-1.2,0.5-2c0-0.8-0.2-1.5-0.5-2.1s-0.8-1-1.3-1.4c-0.5-0.4-1.2-0.7-1.8-0.9
			c-0.7-0.2-1.4-0.5-2.2-0.7c-0.8-0.2-1.6-0.5-2.3-0.8s-1.4-0.7-2-1.2c-0.6-0.5-1.1-1.1-1.5-1.9c-0.4-0.7-0.5-1.6-0.5-2.7
			c0-1.1,0.2-2.1,0.7-3c0.5-0.8,1.1-1.5,1.8-2c0.7-0.5,1.6-0.9,2.5-1.2c0.9-0.2,1.8-0.4,2.7-0.4c1.6,0,3,0.3,4.1,0.9s2,1.2,2.6,2
			L56,16.3z"/>
		<path d="M63.4,12.5h2.4v10.3h13V12.5h2.4v23.8h-2.4V25.1h-13v11.3h-2.4V12.5z"/>
	</g>
	<g>
		<path d="M85.4,38.4v-0.7H94v0.7H85.4z"/>
		<path d="M96.5,34.4c0,0.1,0,0.1,0.1,0.1c0,0,0.1,0,0.1,0c0.6,0,1.2-0.1,1.8-0.1c0.6-0.1,1.2-0.2,1.8-0.3c0.6-0.1,1.1-0.3,1.6-0.4
			c0.5-0.2,0.9-0.3,1.2-0.5c0,0,0.1,0,0.2,0c0.1,0,0.2,0,0.3,0.1c0.2,0.1,0.2,0.2,0.2,0.3s-0.1,0.2-0.3,0.3c-1,0.6-2.1,1-3.2,1.2
			c-1.1,0.2-2.2,0.4-3.3,0.5c-0.1,0-0.2,0-0.3,0s-0.2,0-0.3,0c-0.2,0-0.3-0.1-0.5-0.3c-0.2-0.2-0.3-0.3-0.3-0.5v-3.1
			c0-0.1,0-0.2,0-0.3s0-0.2,0-0.2s-0.1-0.1-0.1-0.2c0-0.1-0.1-0.1-0.2-0.2c-0.1,0-0.2-0.1-0.3-0.2s-0.1-0.2-0.1-0.3V30l0.9,0.1
			l4.1-0.1c0.1,0,0.2,0,0.3-0.1s0.1-0.2,0.1-0.3l0-2.3c0-0.1,0-0.2-0.1-0.3c0,0-0.1,0-0.3,0L96.9,27c-0.1,0-0.3,0-0.4,0
			c-0.1,0-0.3,0-0.4,0c-0.1,0-0.3,0-0.5,0s-0.4,0-0.5-0.1c-0.1,0-0.1-0.1-0.1-0.1s0-0.1,0-0.2l0.1-0.7c0.4,0.1,1,0.1,1.7,0.2
			s1.4,0,2,0l2.1-0.1c0.1,0,0.2,0,0.3,0s0.2,0,0.2,0.1c0.1,0.1,0.1,0.1,0.1,0.2c0,0.1,0,0.1,0,0.3l-0.2,3.8c0,0.2-0.1,0.3-0.2,0.5
			s-0.3,0.1-0.6,0.1l-3.9,0c0,0.1,0,0.2,0,0.3c0,0.1,0,0.2,0,0.3L96.5,34.4L96.5,34.4z M106.5,37.4c0,0.2,0,0.3-0.1,0.5
			s-0.1,0.3-0.2,0.5c-0.1,0.2-0.1,0.3-0.2,0.4s-0.1,0.2-0.2,0.2c-0.1,0.1-0.1,0.1-0.2,0.1c-0.1,0-0.1-0.1-0.1-0.1v-8.5l-2.6,0.1
			c-0.1,0-0.2,0-0.3,0s-0.1-0.1-0.2-0.2l-0.3-0.5c-0.1-0.1,0-0.1,0-0.2s0.2-0.1,0.3-0.1l0.4,0.1c0.1,0,0.2,0,0.3,0s0.2,0,0.3,0
			l2.1-0.1v-4.9c0-0.2-0.1-0.4-0.2-0.5c-0.1-0.1-0.2-0.3-0.4-0.4c-0.1-0.1-0.1-0.2,0-0.4c0.1-0.2,0.2-0.2,0.3-0.1l0.7,0.3
			c0.2,0.1,0.4,0.2,0.4,0.3c0.1,0.1,0.1,0.2,0.1,0.5L106.5,37.4L106.5,37.4z"/>
		<path d="M117.9,32.7c-0.4,0.1-0.8,0.2-1.2,0.2c-0.4,0.1-0.8,0.2-1.2,0.2c-0.4,0.1-0.8,0.1-1.2,0.2c0.1,0.1,0.2,0.2,0.2,0.4
			s0,0.3,0,0.4v3.2c0,0.1,0,0.2-0.1,0.4c-0.1,0.2-0.1,0.3-0.2,0.4c-0.1,0.2-0.1,0.3-0.2,0.4c-0.1,0.1-0.1,0.2-0.2,0.2
			c-0.1,0.1-0.1,0.1-0.2,0.1s-0.2-0.1-0.2-0.1v-4.4c0-0.2,0-0.4-0.1-0.5c-0.1-0.1-0.1-0.2-0.2-0.3l-0.7,0.1c-0.2,0-0.4,0-0.7,0.1
			c-0.3,0-0.6,0-0.8,0.1c-0.3,0-0.6,0-0.9,0s-0.5,0-0.7,0c-0.1,0-0.2,0-0.4,0c-0.2,0-0.3,0-0.4-0.1c-0.1,0-0.1-0.1-0.1-0.1
			s0-0.2,0-0.3l0.1-0.4c0.4,0.1,1,0.1,1.8,0.1c0.7,0,1.4,0,2.1-0.1c0.4,0,0.9-0.1,1.4-0.1c0.5-0.1,1.1-0.1,1.6-0.2
			c0.5-0.1,1.1-0.2,1.6-0.3c0.5-0.1,1-0.2,1.4-0.3c0,0,0.1,0,0.2,0c0.1,0,0.2,0.1,0.2,0.1c0.1,0.1,0.2,0.2,0.2,0.3
			c0,0.1,0,0.2-0.1,0.2C118.7,32.5,118.3,32.6,117.9,32.7z M114.4,26.7c-0.1,0.3-0.2,0.5-0.4,0.8l1.6,1.1c0.2,0.1,0.3,0.2,0.5,0.3
			s0.3,0.2,0.5,0.3c0.2,0.1,0.3,0.2,0.4,0.2c0.1,0.1,0.2,0.2,0.3,0.4l0.2,0.5c0.1,0.1,0.1,0.2,0.1,0.3s-0.1,0.1-0.2,0.2
			c-0.1,0.1-0.2,0.1-0.2,0.1c-0.1,0-0.2,0-0.3-0.1l-3.2-2.7c-0.5,0.7-1,1.4-1.6,1.9c-0.6,0.5-1,0.9-1.4,1.1c-0.1,0-0.1,0.1-0.2,0.1
			s-0.1,0-0.2,0c-0.1,0-0.2,0-0.2,0s-0.1-0.1-0.2-0.2c0-0.1,0-0.1,0-0.2c0-0.1,0.1-0.1,0.1-0.1c0.3-0.2,0.7-0.5,1-0.8
			c0.4-0.3,0.7-0.7,1.1-1.2c0.3-0.4,0.7-0.9,0.9-1.4c0.3-0.5,0.5-1,0.6-1.5c0-0.1,0-0.1,0-0.2c0-0.1-0.1-0.1-0.2-0.2l-0.3-0.2
			c-0.1-0.1-0.1-0.2-0.1-0.4s0.2-0.2,0.3-0.2c0.2,0.1,0.4,0.1,0.7,0.2c0.2,0.1,0.4,0.2,0.6,0.2c0.1,0.1,0.2,0.2,0.2,0.3s0,0.3,0,0.6
			C114.6,26.2,114.5,26.5,114.4,26.7z M121.1,37.4c0,0.2,0,0.3-0.1,0.5s-0.1,0.3-0.2,0.5s-0.2,0.3-0.2,0.4c-0.1,0.1-0.1,0.2-0.2,0.2
			c-0.1,0.1-0.1,0.1-0.2,0.1c-0.1,0-0.1-0.1-0.1-0.1V24.7c0-0.2-0.1-0.4-0.2-0.5c-0.1-0.1-0.2-0.3-0.4-0.4c-0.1-0.1-0.1-0.2-0.1-0.4
			s0.2-0.2,0.4-0.1l0.7,0.3c0.3,0.1,0.4,0.2,0.5,0.3c0.1,0.1,0.1,0.2,0.1,0.5V37.4z"/>
	</g>
</g>
</svg>
