<?xml version="1.0" encoding="utf-8"?>
<!-- Generator: Adobe Illustrator 23.0.1, SVG Export Plug-In . SVG Version: 6.00 Build 0)  -->
<svg version="1.1" id="レイヤー_1" xmlns="http://www.w3.org/2000/svg" xmlns:xlink="http://www.w3.org/1999/xlink" x="0px"
	 y="0px" viewBox="0 0 300 50" style="enable-background:new 0 0 300 50;" xml:space="preserve">
<g>
	<g>
		<path d="M26.9,25.2c0,1.8-0.3,3.5-0.9,5s-1.5,2.8-2.6,3.9c-1.1,1.1-2.4,2-3.9,2.6s-3.2,0.9-4.9,0.9c-1.8,0-3.4-0.3-4.9-0.9
			c-1.6-0.5-2.9-1.4-4-2.5s-2-2.4-2.6-3.9s-0.9-3.2-0.9-5s0.3-3.5,0.9-5s1.5-2.8,2.6-3.9s2.4-2,3.9-2.6s3.2-0.9,4.9-0.9
			c1.8,0,3.4,0.3,4.9,0.9c1.5,0.6,2.8,1.5,3.9,2.6s2,2.4,2.6,3.9C26.6,21.8,26.9,23.5,26.9,25.2z M24.4,25.2c0-1.4-0.2-2.7-0.7-4
			c-0.4-1.3-1.1-2.4-1.9-3.3c-0.9-1-1.9-1.7-3.1-2.3c-1.2-0.6-2.6-0.8-4.1-0.8s-2.9,0.3-4.1,0.8C9.3,16.3,8.2,17,7.4,18
			c-0.9,1-1.5,2.1-1.9,3.3c-0.4,1.3-0.7,2.6-0.7,4s0.2,2.7,0.7,4c0.4,1.3,1.1,2.3,1.9,3.3c0.9,0.9,1.9,1.7,3.1,2.2
			c1.2,0.6,2.6,0.8,4.1,0.8s2.9-0.3,4.1-0.8c1.2-0.6,2.3-1.3,3.1-2.2c0.9-0.9,1.5-2,1.9-3.3C24.2,28,24.4,26.6,24.4,25.2z"/>
		<path d="M43.3,37.2c0-0.4-0.1-0.9-0.1-1.4s0-0.9,0-1.3h-0.1c-0.4,0.9-1.2,1.7-2.2,2.2c-1,0.6-2.1,0.9-3.2,0.9
			c-2,0-3.5-0.6-4.5-1.8s-1.5-2.8-1.5-4.7v-9.6H34v8.7c0,0.8,0.1,1.6,0.2,2.3c0.1,0.7,0.4,1.2,0.7,1.7s0.8,0.9,1.3,1.1
			c0.5,0.3,1.2,0.4,2.1,0.4c0.6,0,1.2-0.1,1.8-0.4c0.6-0.2,1.1-0.6,1.5-1.1s0.8-1.1,1.1-1.9c0.3-0.8,0.4-1.7,0.4-2.7v-8.1h2.3v12.3
			c0,0.4,0,1,0,1.6c0,0.7,0.1,1.3,0.1,1.8C45.5,37.1,43.3,37.1,43.3,37.2z"/>
		<path d="M58.4,23.4H54v9.2c0,0.6,0.1,1.1,0.2,1.4s0.3,0.7,0.5,0.9s0.5,0.4,0.8,0.4c0.3,0.1,0.6,0.1,0.9,0.1c0.3,0,0.6,0,1-0.1
			c0.3-0.1,0.7-0.2,1-0.4l0.1,2c-0.4,0.2-0.8,0.3-1.3,0.4c-0.4,0.1-0.9,0.1-1.4,0.1c-0.4,0-0.9-0.1-1.3-0.2
			c-0.5-0.1-0.9-0.3-1.3-0.6c-0.4-0.3-0.7-0.7-1-1.3c-0.3-0.5-0.4-1.2-0.4-2.1v-9.8h-3.3v-1.9h3.3v-4.4H54v4.4h4.4V23.4z"/>
		<path d="M64.4,34.5v2.7h-2.3V11.8h2.3v12.4h0.1c0.7-1,1.5-1.8,2.6-2.3s2.2-0.8,3.3-0.8c1.2,0,2.3,0.2,3.3,0.6s1.8,1,2.6,1.7
			c0.7,0.7,1.3,1.6,1.6,2.6c0.4,1,0.6,2.1,0.6,3.3s-0.2,2.3-0.6,3.3s-0.9,1.9-1.6,2.6s-1.6,1.3-2.6,1.7s-2.1,0.6-3.3,0.6
			c-1.1,0-2.3-0.3-3.3-0.8C66,36.2,65.1,35.5,64.4,34.5L64.4,34.5z M76.1,29.4c0-0.9-0.1-1.7-0.4-2.5s-0.7-1.4-1.2-2s-1.1-1-1.9-1.4
			C71.9,23.2,71,23,70.1,23s-1.7,0.2-2.4,0.5c-0.7,0.3-1.4,0.8-1.9,1.3c-0.5,0.6-1,1.2-1.3,2S64,28.4,64,29.2s0.2,1.7,0.5,2.5
			s0.7,1.4,1.3,2c0.5,0.6,1.2,1,1.9,1.3c0.7,0.3,1.5,0.5,2.4,0.5s1.8-0.2,2.5-0.5s1.4-0.8,1.9-1.3c0.5-0.6,0.9-1.2,1.2-2
			C76,31,76.1,30.1,76.1,29.4z"/>
		<path d="M93.3,27c0-1.4-0.4-2.4-1.1-3c-0.7-0.7-1.8-1-3.1-1c-0.9,0-1.8,0.2-2.6,0.5c-0.8,0.3-1.5,0.8-2.1,1.3l-1.2-1.5
			c0.6-0.6,1.5-1.2,2.6-1.6s2.3-0.6,3.6-0.6c0.9,0,1.6,0.1,2.4,0.4c0.7,0.2,1.4,0.6,1.9,1.1c0.6,0.5,1,1.1,1.3,1.8
			c0.3,0.7,0.5,1.6,0.5,2.5v6.9c0,0.6,0,1.2,0.1,1.9c0,0.6,0.1,1.2,0.2,1.6h-2c-0.1-0.4-0.1-0.8-0.2-1.2c0-0.4-0.1-0.9-0.1-1.3h-0.1
			c-0.7,1.1-1.5,1.8-2.4,2.3s-2,0.7-3.3,0.7c-0.6,0-1.2-0.1-1.9-0.3c-0.6-0.2-1.2-0.4-1.7-0.8s-1-0.9-1.3-1.5s-0.5-1.3-0.5-2.2
			c0-1.2,0.3-2.2,0.9-2.9c0.6-0.7,1.4-1.2,2.5-1.6c1-0.3,2.2-0.6,3.5-0.7s2.7-0.2,4.2-0.2L93.3,27L93.3,27z M92.6,29.4
			c-0.9,0-1.9,0-2.8,0.1c-1,0.1-1.8,0.2-2.6,0.5c-0.8,0.2-1.4,0.6-1.9,1s-0.7,1-0.7,1.8c0,0.6,0.1,1,0.3,1.4
			c0.2,0.4,0.5,0.7,0.9,0.9s0.8,0.4,1.2,0.5c0.4,0.1,0.9,0.2,1.3,0.2c0.8,0,1.5-0.1,2.1-0.4c0.6-0.3,1.2-0.7,1.6-1.1
			c0.4-0.5,0.7-1,1-1.7c0.2-0.6,0.3-1.3,0.3-2v-1.2C93.3,29.4,92.6,29.4,92.6,29.4z"/>
		<path d="M112.7,25c-0.4-0.6-0.9-1.1-1.7-1.5c-0.7-0.4-1.5-0.6-2.4-0.6s-1.7,0.2-2.5,0.5c-0.7,0.3-1.4,0.8-1.9,1.3
			c-0.5,0.6-0.9,1.2-1.2,2c-0.3,0.8-0.4,1.6-0.4,2.5s0.1,1.7,0.4,2.5c0.3,0.8,0.7,1.4,1.2,2s1.1,1,1.9,1.3c0.7,0.3,1.6,0.5,2.5,0.5
			c1,0,1.9-0.2,2.6-0.6c0.7-0.4,1.3-0.9,1.7-1.5l1.7,1.3c-0.7,0.8-1.5,1.5-2.5,2s-2.1,0.7-3.5,0.7c-1.3,0-2.4-0.2-3.5-0.6
			c-1-0.4-1.9-1-2.6-1.7s-1.3-1.6-1.7-2.6c-0.4-1-0.6-2.1-0.6-3.3s0.2-2.3,0.6-3.3s1-1.9,1.7-2.6s1.6-1.3,2.6-1.7
			c1-0.4,2.2-0.6,3.5-0.6c1.1,0,2.1,0.2,3.2,0.7s2,1.1,2.6,2L112.7,25z"/>
		<path d="M120.5,28.5L120.5,28.5l7.4-7.1h3.3l-7.9,7.2l8.7,8.5h-3.4l-8-8.3h-0.1v8.3h-2.3V11.8h2.3
			C120.5,11.8,120.5,28.5,120.5,28.5z"/>
	</g>
</g>
<g>
	<path d="M137.7,39.2v-0.7h8.7v0.7H137.7z"/>
	<path d="M147.6,28.9c0.6-0.7,1.5-1,2.6-1c0.5,0,1,0.1,1.5,0.3c0.4,0.2,0.8,0.4,1.1,0.7c0.3,0.3,0.6,0.7,0.7,1.1
		c0.2,0.4,0.3,0.9,0.3,1.4s-0.1,1-0.3,1.4s-0.4,0.8-0.7,1.1s-0.7,0.6-1.1,0.7c-0.4,0.2-0.9,0.3-1.4,0.3s-1-0.1-1.5-0.2
		c-0.4-0.2-0.8-0.4-1.2-0.7c-0.3-0.3-0.6-0.7-0.7-1.1c-0.2-0.4-0.3-0.9-0.3-1.4C146.6,30.3,147,29.5,147.6,28.9z M148.4,29.5
		c-0.4,0.5-0.7,1.1-0.7,1.8s0.2,1.4,0.7,1.8c0.4,0.5,1.1,0.7,1.9,0.7c0.8,0,1.4-0.2,1.8-0.7c0.4-0.5,0.7-1.1,0.7-1.9
		c0-0.7-0.2-1.3-0.6-1.8c-0.4-0.5-1.1-0.7-1.9-0.7C149.5,28.8,148.8,29,148.4,29.5z M157.7,31.8h0.8c0.2,0,0.3,0,0.4,0
		c0.1,0,0.3-0.1,0.6-0.2c0.1,0,0.2-0.1,0.3-0.1s0.2,0,0.2,0c0.1,0,0.1,0,0.2,0c0.1,0,0.1,0,0.2,0.1L161,32c0.1,0.1,0.1,0.1,0.1,0.2
		c0,0.1,0,0.2-0.1,0.2l-0.1,0.1c-0.1,0.1-0.1,0.1-0.2,0.2c-0.1,0-0.2,0-0.3,0s-0.2,0-0.3,0s-0.2,0-0.3,0h-2.2v5.5
		c0,0.2,0,0.3-0.1,0.5s-0.1,0.3-0.2,0.5c-0.1,0.2-0.2,0.3-0.2,0.4c-0.1,0.1-0.1,0.2-0.2,0.2c-0.1,0.1-0.1,0.1-0.2,0.1
		c-0.1,0-0.1-0.1-0.1-0.1V25.5c0-0.2-0.1-0.4-0.2-0.5c-0.1-0.1-0.2-0.3-0.4-0.4c-0.1-0.1-0.1-0.2,0-0.4c0.1-0.2,0.2-0.2,0.4-0.2
		l0.7,0.3c0.2,0.1,0.4,0.2,0.4,0.3c0.1,0.1,0.1,0.2,0.1,0.4v6.8H157.7z"/>
	<path d="M169.4,32.5c0.2,0.1,0.3,0.3,0.4,0.4c0,0.2,0.1,0.3,0.1,0.5v0.4c0,0.1,0,0.3-0.1,0.5s-0.2,0.3-0.2,0.5L170,35
		c0.2,0.1,0.3,0.2,0.3,0.4s0,0.4-0.2,0.7c-0.1,0.2-0.2,0.3-0.2,0.4c-0.1,0.1-0.2,0.3-0.3,0.4l2.5,1.3c0.1,0.1,0.2,0.1,0.3,0.1
		s0.2,0.1,0.3,0.1s0.2,0.1,0.3,0.1s0.2,0.1,0.3,0.1s0.2,0.1,0.2,0.1c0.1,0,0.1,0.1,0.2,0.1c0.1,0,0.1,0.1,0.2,0.2
		c0.1,0.1,0.1,0.1,0.2,0.2l0.3,0.4c0.1,0.1,0.1,0.2,0.1,0.3s-0.1,0.1-0.1,0.2c-0.1,0.1-0.2,0.1-0.3,0.1s-0.2,0-0.3-0.1l-4.5-2.7
		c-0.4,0.4-0.8,0.8-1.2,1.1s-0.8,0.6-1.2,0.8s-0.8,0.4-1.1,0.5s-0.6,0.2-0.8,0.3h-0.1h-0.1h-0.1h-0.1c-0.1,0-0.1-0.1-0.2-0.1
		c-0.1,0-0.1-0.1-0.1-0.3c0-0.1,0-0.1,0.1-0.2c0-0.1,0.1-0.1,0.1-0.1c0.3-0.1,0.8-0.2,1.2-0.5c0.5-0.2,0.9-0.5,1.4-0.8
		s0.9-0.7,1.3-1.1c0.4-0.4,0.7-0.9,0.9-1.3c0-0.1,0-0.1,0-0.2c0-0.1-0.1-0.2-0.2-0.3l-0.3-0.3c-0.1-0.1-0.1-0.2,0-0.3
		s0.2-0.2,0.3-0.2h0.1v-0.9c0-0.3,0-0.5-0.1-0.7c-0.1-0.1-0.2-0.3-0.4-0.4l-3.1,0.1l-1.9,0.1c-0.1,0-0.2,0-0.3,0s-0.3,0-0.4,0
		c-0.1,0-0.2,0-0.4,0c-0.1,0-0.2,0-0.3-0.1c-0.1,0-0.1-0.1-0.2-0.2c0-0.1,0-0.2,0-0.3l0.1-0.6c0.2,0.1,0.5,0.1,0.8,0.1
		s0.7,0.1,1,0.1s0.6,0,0.9,0c0.3,0,0.5,0,0.6,0c0.7,0,1.4,0,2,0s1.2,0,1.8,0s1.1,0,1.6,0s1,0,1.4-0.1c0.2,0,0.4,0,0.6,0
		c0.3,0,0.5,0,0.8,0c0.2,0,0.5,0,0.7,0s0.3,0,0.4,0c0.3,0,0.6-0.1,0.8-0.1s0.4,0,0.5,0.1l0.6,0.5c0.1,0.1,0.1,0.1,0.1,0.2
		c0,0.1,0,0.1,0,0.2c0,0.1-0.1,0.1-0.1,0.2c-0.1,0.1-0.1,0.1-0.2,0.1l-1.1-0.2c-0.2,0-0.5,0-0.8-0.1c-0.3,0-0.6,0-0.9,0
		c-0.3,0-0.6,0-0.9,0c-0.3,0-0.6,0-0.8,0L169.4,32.5z M166.7,25.5c0.6-0.6,1.4-0.8,2.5-0.8s1.9,0.3,2.5,0.8c0.6,0.6,0.9,1.2,0.9,2
		s-0.3,1.5-0.9,2.1c-0.6,0.5-1.4,0.8-2.5,0.8s-1.9-0.3-2.5-0.8s-0.9-1.2-0.9-2.1C165.8,26.8,166.1,26,166.7,25.5z M167.4,26.1
		c-0.4,0.4-0.6,0.9-0.6,1.4c0,0.6,0.2,1,0.6,1.4c0.4,0.4,1,0.6,1.8,0.6s1.4-0.2,1.7-0.6c0.4-0.4,0.6-0.9,0.6-1.4s-0.2-1-0.5-1.4
		c-0.4-0.4-0.9-0.6-1.8-0.6C168.4,25.5,167.8,25.8,167.4,26.1z"/>
	<path d="M178.1,28.2c0-0.3,0-0.5-0.1-0.6s-0.2-0.2-0.3-0.3c-0.1,0-0.2-0.1-0.2-0.1s0-0.1,0-0.3v-0.3l0.9,0.1c0.4,0,0.6,0.2,0.6,0.4
		c0.1,0.2,0.1,0.5,0.1,0.8v3.8l3-0.1c0.1,0,0.2,0,0.3-0.1s0.1-0.2,0.1-0.3v-1.6l-2,0.1c-0.1,0-0.2,0-0.3,0s-0.1-0.1-0.2-0.2
		l-0.4-0.5c-0.1-0.1-0.1-0.1,0-0.2s0.2-0.1,0.3-0.1l0.4,0.1c0.1,0,0.2,0,0.3,0s0.2,0,0.3,0h1.6v-1.2c0-0.3,0-0.5-0.1-0.6
		c0-0.1-0.2-0.2-0.3-0.3c-0.1,0-0.2-0.1-0.2-0.1c0-0.1,0-0.2,0-0.3v-0.2l0.9,0.1c0.4,0,0.6,0.2,0.6,0.4c0.1,0.2,0.1,0.5,0.1,0.8V32
		c0,0.2-0.1,0.4-0.2,0.5c-0.1,0.1-0.3,0.2-0.6,0.2H179v0.1c0,0.1,0,0.2-0.1,0.3s-0.1,0.2-0.1,0.2c-0.1,0.1-0.2,0.1-0.3,0.1
		s-0.2,0-0.2,0s-0.1,0-0.1-0.1c0,0-0.1-0.1-0.1-0.2c0-0.1-0.1-0.2-0.1-0.3s0-0.2,0-0.3v-4.3H178.1z M189.5,38.5
		c0,0.2-0.1,0.4-0.2,0.7c-0.1,0.2-0.2,0.4-0.3,0.5l-0.2,0.4c0,0.1-0.1,0.1-0.2,0.1c-0.1,0-0.1-0.1-0.1-0.1V36l-2.1,0.1
		c0,0-0.2,0-0.3,0c-0.2,0-0.4,0-0.6,0c-0.2,0-0.4,0-0.6,0c-0.2,0-0.3,0-0.4,0l-1.8,0.1c-0.1,0-0.3,0-0.4,0s-0.3,0-0.4,0
		c-0.1,0-0.1,0-0.2,0c-0.1,0-0.1,0-0.2,0c-0.1,0-0.1,0-0.2,0c-0.1,0-0.2,0-0.2-0.1c-0.1,0-0.1-0.1-0.1-0.2c0-0.1,0-0.2,0-0.3
		l0.1-0.6c0.2,0,0.4,0.1,0.7,0.1s0.5,0,0.8,0.1c0.3,0,0.6,0,0.9,0c0.3,0,0.6,0,1,0c0.5,0,1,0,1.3,0c0.4,0,0.6,0,0.7,0l2.8-0.1
		c0.1,0,0.1,0,0.2,0c0,0,0.1,0,0.1,0.1l0.1,0.1v0.1v3.2L189.5,38.5L189.5,38.5z M186.6,29h2v-3.4c0-0.2-0.1-0.4-0.2-0.5
		c-0.1-0.1-0.2-0.3-0.4-0.4c-0.1-0.1-0.1-0.2,0-0.4c0.1-0.2,0.2-0.2,0.4-0.2l0.7,0.3c0.3,0.1,0.4,0.2,0.5,0.3
		c0.1,0.1,0.1,0.2,0.1,0.4v7.2c0,0.2,0,0.3-0.1,0.5s-0.1,0.3-0.2,0.5c-0.1,0.2-0.2,0.3-0.2,0.4c-0.1,0.1-0.1,0.2-0.2,0.2
		c-0.1,0.1-0.1,0.1-0.2,0.1c-0.1,0-0.1-0.1-0.1-0.1v-4.2h-2v2.4c0,0.2,0,0.3-0.1,0.5s-0.1,0.3-0.2,0.5c-0.1,0.2-0.2,0.3-0.2,0.4
		c-0.1,0.1-0.1,0.2-0.2,0.2c-0.1,0.1-0.1,0.1-0.2,0.1c-0.1,0-0.1-0.1-0.1-0.1v-7.2c0-0.1,0-0.2-0.1-0.3c0-0.1-0.1-0.2-0.1-0.2
		c-0.1-0.1-0.1-0.1-0.2-0.2c-0.1-0.1-0.1-0.1-0.2-0.2c-0.1-0.1-0.1-0.2,0-0.4c0.1-0.2,0.2-0.2,0.4-0.2l0.7,0.3
		c0.2,0.1,0.4,0.2,0.4,0.3c0.1,0.1,0.1,0.2,0.1,0.5L186.6,29L186.6,29z"/>
	<path d="M195.7,37.5l-1.9,0.1c-0.1,0-0.2,0-0.3,0s-0.3,0-0.4,0c-0.1,0-0.2,0-0.4,0c-0.1,0-0.2,0-0.3-0.1c-0.1,0-0.1-0.1-0.2-0.2
		c0-0.1,0-0.2,0-0.3l0.1-0.6c0.2,0.1,0.5,0.1,0.8,0.1s0.7,0.1,1,0.1s0.6,0,0.9,0c0.3,0,0.5,0,0.6,0c0.7,0,1.4,0,2,0s1.2,0,1.8,0
		s1.1,0,1.6,0s1,0,1.4,0c0.2,0,0.4,0,0.6,0c0.3,0,0.5,0,0.8-0.1c0.2,0,0.5,0,0.7,0s0.3,0,0.4,0c0.3,0,0.6-0.1,0.8-0.1s0.4,0,0.5,0.1
		l0.6,0.5c0.1,0.1,0.1,0.1,0.1,0.2c0,0.1,0,0.1,0,0.2c0,0.1-0.1,0.1-0.1,0.2s-0.1,0.1-0.2,0.1l-1.1-0.2c-0.2,0-0.5,0-0.8-0.1
		c-0.3,0-0.6,0-0.9,0c-0.3,0-0.6,0-0.9,0c-0.3,0-0.6,0-0.8,0L195.7,37.5z M200.4,28.6c-0.2,0.4-0.3,0.7-0.5,1.1l3.2,2.2
		c0.1,0.1,0.2,0.1,0.2,0.2c0.1,0,0.1,0.1,0.2,0.1s0.2,0.1,0.2,0.1s0.2,0.1,0.3,0.1c0.2,0.1,0.3,0.1,0.4,0.2c0.1,0.1,0.2,0.2,0.3,0.4
		l0.3,0.5c0.1,0.1,0.1,0.2,0.1,0.3S205,33.9,205,34c-0.1,0.1-0.2,0.1-0.3,0.1s-0.2,0-0.3-0.1l-5-3.7c-0.4,0.5-0.8,1-1.2,1.5
		s-0.9,0.8-1.3,1.1c-0.4,0.3-0.8,0.6-1.2,0.8s-0.6,0.4-0.9,0.5c-0.1,0-0.2,0.1-0.2,0.1c-0.1,0-0.1,0-0.2,0c-0.1,0-0.2,0-0.2-0.1
		c-0.1,0-0.1-0.1-0.1-0.3c0-0.1,0-0.1,0.1-0.2c0-0.1,0.1-0.1,0.1-0.1c0.3-0.1,0.7-0.4,1.3-0.8c0.5-0.4,1.1-0.8,1.6-1.4
		c0.5-0.5,1.1-1.2,1.5-1.8c0.5-0.7,0.8-1.4,1-2.2c0-0.1,0-0.1,0-0.2s-0.1-0.1-0.2-0.2l-0.3-0.2c-0.1-0.1-0.1-0.2-0.1-0.4
		c0.1-0.2,0.2-0.3,0.3-0.2c0.2,0.1,0.4,0.1,0.7,0.2c0.2,0.1,0.4,0.2,0.6,0.2c0.1,0.1,0.2,0.2,0.2,0.3c0,0.1,0,0.3,0,0.6
		C200.7,28,200.5,28.4,200.4,28.6z"/>
	<path d="M208.5,29.2c0-0.3,0-0.5-0.1-0.6c0-0.1-0.1-0.2-0.3-0.2c-0.1,0-0.2-0.1-0.2-0.2s0-0.2,0-0.3v-0.3l0.7,0.1h2.4
		c0.2,0,0.5,0,0.9-0.1c0.4,0,0.7-0.1,1-0.2c0.1,0,0.2,0,0.3,0s0.1,0,0.2,0.1l0.3,0.2c0.2,0.1,0.3,0.2,0.3,0.3c0,0.1,0,0.1,0,0.2
		c-0.1,0.2-0.2,0.3-0.3,0.3s-0.2,0-0.3,0h-4.1c0,0.1,0,0.1,0,0.2s0,0.1,0,0.2v2.3c0.6,0,1.1,0,1.5,0c0.5,0,0.8,0,0.9-0.1
		c0.2,0,0.3,0,0.4,0c0.1,0,0.2,0,0.3,0s0.2,0,0.2,0c0.1,0,0.1,0,0.2,0l0.3,0.2c0.2,0.1,0.3,0.2,0.3,0.3s0,0.2,0,0.3
		c-0.1,0.2-0.2,0.2-0.3,0.3c-0.1,0-0.2,0-0.4,0h-3.6V35c0,0.1,0,0.1,0.1,0.2l0.1,0.1c0.4,0,0.8,0,1.2-0.1s0.9-0.1,1.3-0.2
		c0.4-0.1,0.9-0.2,1.3-0.3c0.4-0.1,0.8-0.3,1.1-0.4c0,0,0.1,0,0.2,0c0.1,0,0.2,0,0.3,0.1c0.2,0.1,0.2,0.2,0.2,0.3s-0.1,0.2-0.4,0.3
		c-0.3,0.2-0.7,0.3-1.2,0.5c-0.4,0.2-0.9,0.3-1.3,0.4c-0.4,0.1-0.9,0.2-1.3,0.3c-0.4,0.1-0.8,0.1-1.2,0.2c-0.1,0-0.2,0-0.3,0
		s-0.2,0-0.3,0c-0.2,0-0.3-0.1-0.5-0.3s-0.3-0.3-0.3-0.5v-6.4C208.1,29.2,208.5,29.2,208.5,29.2z M217.4,37.5c0,0.2,0,0.3-0.1,0.5
		s-0.1,0.3-0.2,0.5c-0.1,0.2-0.2,0.3-0.2,0.4c-0.1,0.1-0.1,0.2-0.2,0.2c-0.1,0.1-0.1,0.1-0.2,0.1c-0.1,0-0.1-0.1-0.1-0.1v-7.5
		l-1.5,0.1c-0.1,0-0.2,0-0.3,0s-0.1-0.1-0.2-0.2L214,31c-0.1-0.1-0.1-0.1,0-0.2s0.2-0.1,0.3-0.1l0.4,0.1c0.1,0,0.2,0,0.3,0
		s0.2,0,0.3,0h1.1v-4.1c0-0.1,0-0.2-0.1-0.3s-0.1-0.2-0.1-0.2c-0.1-0.1-0.1-0.1-0.2-0.2c-0.1-0.1-0.1-0.1-0.2-0.2
		c-0.1-0.1-0.1-0.2,0-0.4c0.1-0.2,0.2-0.2,0.4-0.2l0.7,0.3c0.2,0.1,0.4,0.2,0.4,0.3c0,0.1,0.1,0.2,0.1,0.5V37.5z M220.4,38.2
		c0,0.2,0,0.3-0.1,0.5s-0.1,0.3-0.2,0.5c-0.1,0.2-0.2,0.3-0.2,0.4c-0.1,0.1-0.1,0.2-0.2,0.2c-0.1,0.1-0.1,0.1-0.2,0.1
		c-0.1,0-0.1-0.1-0.1-0.1V25.5c0-0.2-0.1-0.4-0.2-0.5c-0.1-0.1-0.2-0.3-0.4-0.4c-0.1-0.1-0.1-0.2,0-0.4c0.1-0.2,0.2-0.2,0.4-0.2
		l0.7,0.3c0.3,0.1,0.4,0.2,0.5,0.3c0.1,0.1,0.1,0.2,0.1,0.4v13.2C220.5,38.2,220.4,38.2,220.4,38.2z"/>
	<path d="M224.2,28.9c0.6-0.7,1.5-1,2.6-1c0.5,0,1,0.1,1.5,0.3c0.4,0.2,0.8,0.4,1.1,0.7c0.3,0.3,0.6,0.7,0.7,1.1
		c0.2,0.4,0.3,0.9,0.3,1.4s-0.1,1-0.3,1.4s-0.4,0.8-0.7,1.1s-0.7,0.6-1.1,0.7c-0.4,0.2-0.9,0.3-1.4,0.3s-1-0.1-1.5-0.2
		c-0.4-0.2-0.8-0.4-1.2-0.7c-0.3-0.3-0.6-0.7-0.7-1.1c-0.2-0.4-0.3-0.9-0.3-1.4C223.2,30.3,223.6,29.5,224.2,28.9z M225,29.5
		c-0.4,0.5-0.7,1.1-0.7,1.8s0.2,1.4,0.7,1.8c0.4,0.5,1.1,0.7,1.9,0.7c0.8,0,1.4-0.2,1.8-0.7c0.4-0.5,0.7-1.1,0.7-1.9
		c0-0.7-0.2-1.3-0.6-1.8c-0.4-0.5-1.1-0.7-1.9-0.7C226.1,28.8,225.4,29,225,29.5z M234.9,38.2c0,0.2,0,0.3-0.1,0.5s-0.1,0.3-0.2,0.5
		c-0.1,0.2-0.2,0.3-0.2,0.4c-0.1,0.1-0.1,0.2-0.2,0.2c-0.1,0.1-0.1,0.1-0.2,0.1c-0.1,0-0.1-0.1-0.1-0.1V25.5c0-0.2-0.1-0.4-0.2-0.5
		c-0.1-0.1-0.2-0.3-0.4-0.4c-0.1-0.1-0.1-0.2,0-0.4c0.1-0.2,0.2-0.2,0.4-0.2l0.7,0.3c0.2,0.1,0.4,0.2,0.4,0.3c0,0.1,0.1,0.2,0.1,0.4
		V38.2z"/>
	<path d="M240.9,37.5l-1.9,0.1c-0.1,0-0.2,0-0.3,0s-0.3,0-0.4,0c-0.1,0-0.2,0-0.4,0c-0.1,0-0.2,0-0.3-0.1c-0.1,0-0.1-0.1-0.2-0.2
		c0-0.1,0-0.2,0-0.3l0.1-0.6c0.2,0.1,0.5,0.1,0.8,0.1s0.7,0.1,1,0.1s0.6,0,0.9,0c0.3,0,0.5,0,0.6,0c0.7,0,1.4,0,2,0s1.2,0,1.8-0.1
		c0.6,0,1.1,0,1.6,0s1,0,1.4-0.1c0.2,0,0.4,0,0.6,0c0.3,0,0.5,0,0.8,0c0.2,0,0.5,0,0.7,0s0.3,0,0.4,0c0.3,0,0.6-0.1,0.8-0.1
		s0.4,0,0.5,0.1L252,37c0.1,0.1,0.1,0.1,0.1,0.2c0,0.1,0,0.1,0,0.2c0,0.1-0.1,0.1-0.1,0.2c-0.1,0.1-0.1,0.1-0.2,0.1c0,0-0.1,0-0.2,0
		s-0.2,0-0.3,0s-0.2,0-0.3-0.1c-0.1,0-0.2,0-0.3,0c-0.2,0-0.5,0-0.8,0s-0.6,0-0.9,0c-0.3,0-0.6,0-0.9,0c-0.3,0-0.6,0-0.8,0
		L240.9,37.5z M249.7,27.5c0,0.4-0.1,0.9-0.2,1.6c-0.1,0.7-0.2,1.3-0.4,2.1c-0.2,0.7-0.3,1.4-0.5,2.1c-0.2,0.7-0.4,1.2-0.6,1.6
		c-0.1,0.1-0.1,0.2-0.2,0.2s-0.2,0-0.3,0s-0.1-0.1-0.2-0.1c-0.1-0.1-0.1-0.2,0-0.3c0.1-0.5,0.3-1,0.4-1.6c0.1-0.6,0.3-1.1,0.4-1.7
		c-0.4,0.1-1,0.1-1.6,0.2s-1.3,0.1-1.9,0.2c-0.7,0.1-1.4,0.1-2,0.1c-0.7,0-1.3,0-1.9,0c-0.3,0-0.5,0-0.6,0s-0.2,0-0.3,0
		s-0.1-0.1-0.2-0.2c0-0.1,0-0.2,0-0.3l0.1-0.5c0.4,0.1,0.7,0.1,1.1,0.1c0.3,0,0.7,0,1.2,0s1.1,0,1.8-0.1c0.6,0,1.2-0.1,1.8-0.1
		c0.6-0.1,1.1-0.1,1.6-0.2s0.9-0.1,1.2-0.2c0.1-0.5,0.2-1.1,0.2-1.6c0.1-0.5,0.1-1,0.2-1.4c-0.5,0-0.9,0-1.4,0s-0.9,0-1.3,0
		c-0.4,0-0.8,0-1.3,0c-0.4,0-0.8,0-1.2,0c-0.2,0-0.4,0-0.6,0c-0.2,0-0.4,0-0.5,0c-0.2,0-0.4,0-0.5,0c-0.2,0-0.4,0-0.6,0
		c-0.1,0-0.2,0-0.4,0s-0.3,0-0.5-0.1c-0.1,0-0.1-0.1-0.1-0.1c0-0.1,0-0.2,0-0.3l0.1-0.6c0.2,0.1,0.4,0.1,0.7,0.2
		c0.3,0,0.5,0.1,0.8,0.1s0.6,0,0.8,0s0.5,0,0.6,0c0.2,0,0.5,0,0.9,0s0.7,0,1.1,0c0.3,0,0.6,0,0.9,0c0.3,0,0.4,0,0.4,0l2.4-0.1
		c0.1,0,0.2,0,0.4,0s0.3,0.1,0.4,0.2c0,0,0,0.1,0.1,0.1V27L249.7,27.5z"/>
	<path d="M253.8,29c-0.3,0-0.5,0-0.7,0s-0.3-0.1-0.4-0.1c-0.1,0-0.1-0.1-0.1-0.2s0-0.1,0-0.2l0.1-0.6c0.4,0.1,0.8,0.1,1.2,0.1
		s0.8,0,1.2,0c0.1,0,0.3,0,0.4,0c0.1,0,0.3,0,0.4,0s0.3,0,0.4,0c0.2,0,0.3,0,0.5,0v-1.4c0-0.2,0-0.4-0.1-0.5s-0.1-0.2-0.3-0.4
		c-0.1,0-0.1-0.1,0-0.3c0.1-0.1,0.1-0.2,0.2-0.2l0.6,0.2c0.3,0.1,0.4,0.2,0.5,0.3c0,0.1,0.1,0.3,0.1,0.5v1.7c0.3,0,0.5,0,0.8,0
		s0.5,0,0.8-0.1c0.2,0,0.5,0,0.6,0c0.2,0,0.3,0,0.3-0.1c0.4,0,0.6-0.1,0.7-0.1s0.2,0.1,0.4,0.1l0.6,0.5c0.1,0.1,0.2,0.2,0.2,0.3
		c0,0.1,0,0.2-0.1,0.3c-0.1,0.1-0.1,0.2-0.2,0.2s-0.1,0-0.2,0s-0.1,0-0.2,0s-0.1,0-0.2-0.1c-0.1,0-0.2,0-0.3,0c-0.1,0-0.2,0-0.3,0
		c-0.3,0-0.5,0-0.8,0s-0.6,0-0.9,0s-0.6,0-0.9,0s-0.6,0-0.8,0L253.8,29z M255,30.8c0.6-0.6,1.5-0.9,2.4-0.9c0.4,0,0.9,0.1,1.3,0.2
		s0.8,0.4,1.1,0.6c0.3,0.3,0.5,0.6,0.7,1c0.2,0.4,0.3,0.8,0.3,1.4c0,0.5-0.1,0.9-0.3,1.3c-0.2,0.4-0.4,0.7-0.7,1
		c-0.3,0.3-0.6,0.5-1.1,0.7c-0.4,0.2-0.9,0.2-1.3,0.2c-0.5,0-0.9-0.1-1.4-0.2c-0.4-0.1-0.8-0.4-1.1-0.6c-0.3-0.3-0.6-0.6-0.7-1
		c-0.2-0.4-0.3-0.8-0.3-1.3C254,32.2,254.3,31.3,255,30.8z M255.7,31.5c-0.4,0.4-0.6,1-0.6,1.7s0.2,1.2,0.7,1.6
		c0.4,0.4,1,0.6,1.7,0.6c0.8,0,1.4-0.2,1.7-0.7c0.4-0.4,0.6-1,0.6-1.6c0-0.7-0.2-1.2-0.6-1.6s-1-0.6-1.7-0.6
		C256.7,30.8,256.1,31,255.7,31.5z M264.3,32.5h0.7c0.2,0,0.3,0,0.4,0s0.3-0.1,0.6-0.2c0.1,0,0.2-0.1,0.3-0.1c0.1,0,0.2,0,0.2-0.1
		c0.1,0,0.1,0,0.2,0s0.1,0,0.2,0.1l0.6,0.4c0.1,0.1,0.1,0.1,0.1,0.2c0,0.1,0,0.2-0.1,0.2l-0.1,0.1c-0.1,0.1-0.1,0.1-0.2,0.2
		s-0.2,0-0.3,0c-0.1,0-0.2,0-0.3,0c-0.1,0-0.2,0-0.3,0h-2.1v5c0,0.2,0,0.3-0.1,0.5s-0.1,0.3-0.2,0.5s-0.1,0.3-0.2,0.4
		c-0.1,0.1-0.1,0.2-0.2,0.2c0,0.1-0.1,0.1-0.2,0.1s-0.1-0.1-0.1-0.1V25.5c0-0.2-0.1-0.4-0.2-0.5s-0.2-0.3-0.4-0.4
		c-0.1-0.1-0.1-0.2,0-0.4c0.1-0.2,0.2-0.2,0.4-0.2l0.7,0.3c0.2,0.1,0.4,0.2,0.4,0.3c0.1,0.1,0.1,0.2,0.1,0.4v7.4h0.1V32.5z"/>
	<path d="M275.8,33.8c0.2,0.1,0.3,0.2,0.4,0.4c0,0.2,0.1,0.3,0.1,0.5v3.9c0,0.1,0,0.2-0.1,0.4c-0.1,0.1-0.1,0.3-0.2,0.4
		c-0.1,0.1-0.1,0.3-0.2,0.4c-0.1,0.1-0.1,0.2-0.2,0.2c0,0.1-0.1,0.1-0.2,0.1s-0.2-0.1-0.2-0.1v-5.1c0-0.3,0-0.5-0.1-0.7
		c-0.1-0.1-0.2-0.3-0.4-0.4l-3.2,0.1l-1.9,0.1c-0.1,0-0.2,0-0.3,0c-0.1,0-0.3,0-0.4,0s-0.2,0-0.4,0c-0.1,0-0.2,0-0.3-0.1
		c-0.1,0-0.1-0.1-0.2-0.2c0-0.1,0-0.2,0-0.3l0.1-0.6c0.2,0.1,0.5,0.1,0.8,0.1s0.7,0.1,1,0.1s0.6,0,0.9,0s0.5,0,0.6,0
		c0.7,0,1.4,0,2,0s1.2,0,1.8-0.1c0.6,0,1.1,0,1.6,0s1,0,1.4-0.1c0.2,0,0.4,0,0.6,0c0.3,0,0.5,0,0.8,0c0.2,0,0.5,0,0.7-0.1
		c0.2,0,0.3,0,0.4,0c0.3,0,0.6-0.1,0.8-0.1c0.2,0,0.4,0,0.5,0.1l0.6,0.5c0.1,0.1,0.1,0.1,0.1,0.2c0,0.1,0,0.1,0,0.2
		c0,0.1-0.1,0.1-0.1,0.2s-0.1,0.1-0.2,0.1l-1.1-0.2c-0.2,0-0.5,0-0.8-0.1c-0.3,0-0.6,0-0.9,0s-0.6,0-0.9,0s-0.6,0-0.8,0L275.8,33.8z
		 M272.9,25.9c0.7-0.6,1.5-0.9,2.6-0.9c0.5,0,1,0.1,1.5,0.2c0.4,0.2,0.8,0.4,1.1,0.7c0.3,0.3,0.6,0.6,0.7,1c0.2,0.4,0.3,0.8,0.3,1.3
		s-0.1,1-0.3,1.4c-0.2,0.4-0.4,0.7-0.8,1c-0.3,0.3-0.7,0.5-1.1,0.6s-0.9,0.2-1.4,0.2c-1.1,0-1.9-0.3-2.6-0.8c-0.7-0.6-1-1.4-1-2.4
		C271.9,27.2,272.2,26.5,272.9,25.9z M273.6,26.5c-0.4,0.4-0.7,1-0.7,1.7s0.2,1.3,0.7,1.7c0.4,0.4,1.1,0.6,1.9,0.6s1.4-0.2,1.8-0.6
		s0.7-1,0.7-1.7s-0.2-1.2-0.6-1.7c-0.4-0.4-1.1-0.7-1.9-0.7C274.7,25.9,274.1,26,273.6,26.5z"/>
	<path d="M286.8,37.5l-1.9,0.1c-0.1,0-0.2,0-0.3,0c-0.1,0-0.3,0-0.4,0s-0.2,0-0.4,0c-0.1,0-0.2,0-0.3-0.1c-0.1,0-0.1-0.1-0.2-0.2
		c0-0.1,0-0.2,0-0.3l0.1-0.6c0.2,0.1,0.5,0.1,0.8,0.1s0.7,0.1,1,0.1s0.6,0,0.9,0s0.5,0,0.6,0c0.7,0,1.4,0,2,0s1.2,0,1.8,0
		c0.6,0,1.1,0,1.6,0s1,0,1.4,0c0.2,0,0.4,0,0.6,0c0.3,0,0.5,0,0.8-0.1c0.2,0,0.5,0,0.7,0s0.3,0,0.4,0c0.3,0,0.6-0.1,0.8-0.1
		c0.2,0,0.4,0,0.5,0.1l0.6,0.5c0.1,0.1,0.1,0.1,0.1,0.2c0,0.1,0,0.1,0,0.2c0,0.1-0.1,0.1-0.1,0.2c-0.1,0.1-0.1,0.1-0.2,0.1l-1.1-0.2
		c-0.2,0-0.5,0-0.8-0.1c-0.3,0-0.6,0-0.9,0s-0.6,0-0.9,0s-0.6,0-0.8,0L286.8,37.5z M291.4,28.6c-0.2,0.4-0.3,0.7-0.5,1.1l3.2,2.2
		c0.1,0.1,0.2,0.1,0.2,0.2c0.1,0,0.1,0.1,0.2,0.1s0.2,0.1,0.2,0.1s0.2,0.1,0.3,0.1c0.2,0.1,0.3,0.1,0.4,0.2c0.1,0.1,0.2,0.2,0.3,0.4
		l0.3,0.5c0.1,0.1,0.1,0.2,0.1,0.3S296,33.9,296,34c-0.1,0.1-0.2,0.1-0.3,0.1c-0.1,0-0.2,0-0.3-0.1l-5-3.7c-0.4,0.5-0.8,1-1.2,1.5
		c-0.4,0.4-0.9,0.8-1.3,1.1s-0.8,0.6-1.2,0.8c-0.4,0.2-0.6,0.4-0.9,0.5c-0.1,0-0.2,0.1-0.2,0.1c-0.1,0-0.1,0-0.2,0s-0.2,0-0.2-0.1
		c-0.1,0-0.1-0.1-0.1-0.3c0-0.1,0-0.1,0.1-0.2c0-0.1,0.1-0.1,0.1-0.1c0.3-0.1,0.7-0.4,1.3-0.8c0.5-0.4,1.1-0.8,1.6-1.4
		c0.5-0.5,1-1.2,1.5-1.8c0.5-0.7,0.8-1.4,1-2.2c0-0.1,0-0.1,0-0.2s-0.1-0.1-0.2-0.2l-0.3-0.2c-0.1-0.1-0.1-0.2-0.1-0.4
		c0.1-0.2,0.2-0.3,0.3-0.2c0.2,0.1,0.4,0.1,0.7,0.2c0.2,0.1,0.4,0.2,0.6,0.2c0.1,0.1,0.2,0.2,0.2,0.3c0,0.1,0,0.3,0,0.6
		C291.7,28,291.6,28.4,291.4,28.6z"/>
</g>
</svg>
