<?xml version="1.0" encoding="utf-8"?>
<!-- Generator: Adobe Illustrator 23.0.1, SVG Export Plug-In . SVG Version: 6.00 Build 0)  -->
<svg version="1.1" id="レイヤー_1" xmlns="http://www.w3.org/2000/svg" xmlns:xlink="http://www.w3.org/1999/xlink" x="0px"
	 y="0px" viewBox="0 0 300 50" style="enable-background:new 0 0 300 50;" xml:space="preserve">
<g>
	<path d="M14.8,25.3c1.3,0.4,2.4,1.1,3.2,2.2c0.9,1.1,1.3,2.5,1.3,4.1c0,1-0.2,2-0.6,2.8c-0.4,0.8-1,1.6-1.7,2.2s-1.5,1-2.4,1.4
		c-0.9,0.3-1.9,0.5-2.9,0.5s-2-0.2-2.9-0.5S7,37.3,6.3,36.7c-0.7-0.6-1.2-1.3-1.7-2.2S4,32.7,4,31.7c0-0.8,0.1-1.5,0.3-2.2
		c0.2-0.7,0.5-1.3,0.9-1.9c0.4-0.5,0.9-1,1.4-1.4c0.6-0.4,1.2-0.7,1.8-0.9v-0.1c-0.5-0.2-1-0.4-1.5-0.8c-0.4-0.4-0.8-0.8-1.1-1.2
		c-0.3-0.5-0.6-1-0.7-1.6s-0.3-1.2-0.3-1.8c0-1,0.2-1.8,0.5-2.6c0.4-0.8,0.8-1.5,1.5-2s1.3-1,2.1-1.3c0.8-0.3,1.7-0.5,2.6-0.5
		c0.9,0,1.8,0.1,2.6,0.5c0.8,0.3,1.5,0.7,2.2,1.3c0.6,0.5,1.1,1.2,1.5,2c0.4,0.8,0.5,1.7,0.5,2.6c0,0.6-0.1,1.2-0.3,1.8
		s-0.4,1.1-0.7,1.6s-0.7,0.9-1.1,1.2C15.8,24.8,15.3,25.1,14.8,25.3L14.8,25.3L14.8,25.3z M6.4,31.4c0,0.7,0.1,1.4,0.4,2
		s0.6,1.2,1.1,1.6s1,0.8,1.6,1.1c0.6,0.3,1.4,0.4,2.1,0.4s1.5-0.1,2.1-0.4c0.6-0.3,1.2-0.6,1.6-1.1s0.8-1,1.1-1.6
		c0.2-0.6,0.4-1.3,0.4-2s-0.1-1.4-0.4-2s-0.6-1.1-1.1-1.6c-0.5-0.5-1-0.8-1.6-1c-0.6-0.2-1.4-0.4-2.1-0.4s-1.5,0.1-2.1,0.4
		c-0.6,0.2-1.2,0.6-1.7,1c-0.5,0.5-0.8,1-1.1,1.6C6.6,30,6.4,30.7,6.4,31.4z M7.3,20c0,0.6,0.1,1.2,0.3,1.7c0.2,0.5,0.5,1,0.9,1.3
		c0.4,0.4,0.9,0.7,1.4,0.9c0.5,0.2,1.1,0.3,1.7,0.3c0.6,0,1.2-0.1,1.7-0.3s1-0.5,1.4-0.9c0.4-0.4,0.7-0.8,0.9-1.3
		c0.2-0.5,0.3-1.1,0.3-1.7c0-0.6-0.1-1.2-0.3-1.8c-0.2-0.5-0.5-1-0.9-1.4s-0.9-0.7-1.4-0.9c-0.5-0.2-1.1-0.3-1.7-0.3
		s-1.2,0.1-1.7,0.3c-0.5,0.2-1,0.5-1.4,0.9c-0.4,0.4-0.7,0.9-0.9,1.4C7.4,18.8,7.3,19.4,7.3,20z"/>
	<path d="M32.2,37.9h-2.4V16.3h-8v-2.2h18.3v2.2h-8V37.9z"/>
	<path d="M43.7,14.1h2.4v10.3h13V14.1h2.4v23.8h-2.4V26.6h-13v11.3h-2.4V14.1z"/>
	<path d="M70.2,35.8H83v2.2H67.8V14.1h14.8v2.1H70.2v8.2h11.5v2.2H70.2V35.8z"/>
	<path d="M103.7,37.9h-2.4V16.3h-8v-2.2h18.3v2.2h-8V37.9z"/>
	<path d="M115.3,14.1h2.4v10.3h13V14.1h2.4v23.8h-2.4V26.6h-13v11.3h-2.4C115.3,37.9,115.3,14.1,115.3,14.1z"/>
	<path d="M139.2,37.9h-2.6l10.3-23.8h2.4l10.2,23.8h-2.7l-2.6-6.2h-12.3L139.2,37.9z M142.7,29.4h10.5l-5.2-12.6L142.7,29.4z"/>
	<path d="M165.3,35.8h11.1v2.2h-13.5V14.1h2.4V35.8z"/>
	<path d="M179.9,37.9h-2.7l10.3-23.8h2.4l10.2,23.8h-2.7l-2.6-6.2h-12.3L179.9,37.9z M183.4,29.4h10.5l-5.2-12.6L183.4,29.4z"/>
	<path d="M215.1,17.9c-0.5-0.7-1.2-1.3-2-1.7c-0.8-0.4-1.8-0.6-2.9-0.6c-0.6,0-1.2,0.1-1.8,0.3c-0.6,0.2-1.1,0.5-1.6,0.8
		c-0.5,0.4-0.9,0.8-1.2,1.4c-0.3,0.6-0.4,1.2-0.4,2c0,0.8,0.1,1.4,0.4,1.9c0.3,0.5,0.7,0.9,1.2,1.3c0.5,0.3,1,0.6,1.6,0.9
		c0.6,0.2,1.3,0.5,1.9,0.7c0.8,0.3,1.7,0.6,2.5,0.9c0.8,0.3,1.6,0.7,2.3,1.2c0.7,0.5,1.2,1.1,1.6,1.9c0.4,0.8,0.6,1.8,0.6,2.9
		s-0.2,2.2-0.7,3.1s-1,1.6-1.8,2.1s-1.6,1-2.5,1.2s-1.9,0.4-2.8,0.4c-0.7,0-1.4-0.1-2.1-0.2s-1.4-0.4-2.1-0.7
		c-0.6-0.3-1.2-0.7-1.8-1.1s-1.1-1-1.5-1.5l2.1-1.5c0.5,0.8,1.2,1.6,2.2,2.1s2,0.9,3.3,0.9c0.6,0,1.2-0.1,1.9-0.3
		c0.6-0.2,1.2-0.5,1.7-0.9c0.5-0.4,0.9-0.9,1.2-1.5c0.3-0.6,0.5-1.2,0.5-2c0-0.8-0.2-1.5-0.5-2.1s-0.8-1-1.3-1.4
		c-0.5-0.4-1.1-0.7-1.9-0.9c-0.7-0.2-1.4-0.5-2.2-0.7c-0.8-0.2-1.6-0.5-2.3-0.8c-0.8-0.3-1.4-0.7-2.1-1.2c-0.6-0.5-1.1-1.1-1.5-1.9
		c-0.4-0.7-0.6-1.7-0.6-2.7c0-1.1,0.2-2.1,0.7-3s1.1-1.5,1.8-2.1c0.7-0.5,1.6-0.9,2.4-1.2c0.9-0.2,1.8-0.4,2.7-0.4
		c1.6,0,3,0.3,4.1,0.9s2,1.2,2.6,2L215.1,17.9z"/>
	<path d="M234,17.9c-0.5-0.7-1.2-1.3-2-1.7c-0.8-0.4-1.8-0.6-2.9-0.6c-0.6,0-1.2,0.1-1.8,0.3c-0.6,0.2-1.1,0.5-1.6,0.8
		c-0.5,0.4-0.9,0.8-1.2,1.4c-0.3,0.6-0.4,1.2-0.4,2c0,0.8,0.1,1.4,0.4,1.9c0.3,0.5,0.7,0.9,1.2,1.3c0.5,0.3,1,0.6,1.6,0.9
		c0.6,0.2,1.3,0.5,1.9,0.7c0.8,0.3,1.7,0.6,2.5,0.9c0.8,0.3,1.6,0.7,2.3,1.2c0.7,0.5,1.2,1.1,1.6,1.9c0.4,0.8,0.6,1.8,0.6,2.9
		s-0.2,2.2-0.7,3.1s-1,1.6-1.8,2.1c-0.7,0.6-1.6,1-2.5,1.2s-1.9,0.4-2.8,0.4c-0.7,0-1.4-0.1-2.1-0.2s-1.4-0.4-2.1-0.7
		c-0.6-0.3-1.3-0.7-1.8-1.1c-0.6-0.5-1.1-1-1.5-1.5l2.1-1.5c0.5,0.8,1.2,1.6,2.2,2.1s2,0.9,3.3,0.9c0.6,0,1.2-0.1,1.9-0.3
		c0.6-0.2,1.2-0.5,1.7-0.9c0.5-0.4,0.9-0.9,1.2-1.5c0.3-0.6,0.5-1.2,0.5-2c0-0.8-0.2-1.5-0.5-2.1s-0.8-1-1.3-1.4
		c-0.5-0.4-1.1-0.7-1.9-0.9c-0.7-0.2-1.4-0.5-2.2-0.7c-0.8-0.2-1.6-0.5-2.3-0.8c-0.8-0.3-1.4-0.7-2.1-1.2c-0.6-0.5-1.1-1.1-1.5-1.9
		c-0.4-0.7-0.6-1.7-0.6-2.7c0-1.1,0.2-2.1,0.7-3s1.1-1.5,1.8-2.1c0.7-0.5,1.6-0.9,2.4-1.2c0.9-0.2,1.8-0.4,2.6-0.4
		c1.6,0,3,0.3,4.1,0.9s2,1.2,2.6,2L234,17.9z"/>
	<path d="M265,26c0,1.8-0.3,3.5-0.9,5c-0.6,1.5-1.5,2.8-2.6,4c-1.1,1.1-2.4,2-3.9,2.6c-1.5,0.6-3.1,0.9-4.9,0.9s-3.4-0.3-4.9-0.9
		c-1.5-0.6-2.8-1.5-3.9-2.6c-1.1-1.1-2-2.4-2.6-4c-0.6-1.5-0.9-3.2-0.9-5c0-1.8,0.3-3.5,0.9-5c0.6-1.5,1.5-2.8,2.6-4
		c1.1-1.1,2.4-2,3.9-2.6c1.5-0.6,3.1-0.9,4.9-0.9s3.4,0.3,4.9,0.9c1.5,0.6,2.8,1.5,3.9,2.6c1.1,1.1,2,2.4,2.6,4
		C264.7,22.5,265,24.2,265,26z M262.4,26c0-1.4-0.2-2.7-0.7-4s-1.1-2.4-2-3.3c-0.9-1-1.9-1.7-3.1-2.3c-1.2-0.6-2.6-0.8-4.1-0.8
		c-1.5,0-2.9,0.3-4.1,0.8c-1.2,0.6-2.3,1.3-3.1,2.3s-1.5,2-1.9,3.3s-0.7,2.6-0.7,4s0.2,2.7,0.7,4s1.1,2.3,1.9,3.3
		c0.9,0.9,1.9,1.7,3.1,2.2s2.6,0.8,4.1,0.8c1.5,0,2.9-0.3,4.1-0.8c1.2-0.6,2.3-1.3,3.1-2.2c0.9-0.9,1.5-2,2-3.3
		C262.2,28.7,262.4,27.4,262.4,26z"/>
</g>
</svg>
