<?xml version="1.0" encoding="utf-8"?>
<!-- Generator: Adobe Illustrator 23.0.1, SVG Export Plug-In . SVG Version: 6.00 Build 0)  -->
<svg version="1.1" id="レイヤー_1" xmlns="http://www.w3.org/2000/svg" xmlns:xlink="http://www.w3.org/1999/xlink" x="0px"
	 y="0px" viewBox="0 0 300 50" style="enable-background:new 0 0 300 50;" xml:space="preserve">
<g>
	<g>
		<path d="M4,12.6h7.1c0.9,0,1.8,0.1,2.7,0.3c0.9,0.2,1.7,0.5,2.5,1c0.7,0.5,1.3,1.1,1.8,1.9s0.7,1.8,0.7,3c0,1.3-0.4,2.3-1.1,3.3
			c-0.8,0.9-1.8,1.5-3.1,1.8V24c1.5,0.2,2.8,0.8,3.8,1.8s1.5,2.4,1.5,4.1c0,1-0.2,1.9-0.6,2.7c-0.4,0.8-1,1.5-1.8,2.1
			s-1.7,1-2.8,1.3c-1.1,0.3-2.3,0.5-3.7,0.5H4V12.6z M6.4,23h4.9c0.6,0,1.2-0.1,1.8-0.2s1.1-0.4,1.6-0.7c0.5-0.3,0.9-0.8,1.2-1.3
			s0.5-1.2,0.5-2s-0.2-1.4-0.5-1.9s-0.7-1-1.2-1.3s-1.1-0.6-1.8-0.7s-1.4-0.2-2.2-0.2H6.4V23z M6.4,34.3h4.5c0.9,0,1.7-0.1,2.5-0.3
			c0.8-0.2,1.5-0.4,2.1-0.8s1.1-0.9,1.4-1.4c0.4-0.6,0.5-1.3,0.5-2.1c0-1.6-0.5-2.7-1.6-3.5s-2.6-1.2-4.5-1.2H6.4V34.3z"/>
		<path d="M42.2,32.8L42.2,32.8l0.1-20.3h2.4v23.8h-3L27.9,15.9h-0.1v20.5h-2.4V12.6h3L42.2,32.8z"/>
		<path d="M58.8,22.2l6.5-9.6h2.9l-7.9,11.3L69,36.4h-3l-7.3-10.7l-7.2,10.7h-3l8.8-12.5l-8-11.3h3L58.8,22.2z"/>
	</g>
	<g>
		<path d="M77.1,38.4v-0.7h8.7v0.7H77.1z"/>
		<path d="M86.9,28.1c0-0.3,0-0.5-0.1-0.6s-0.2-0.2-0.3-0.3c-0.1,0-0.2-0.1-0.2-0.1s0-0.1,0-0.3v-0.3l0.9,0.1c0.4,0,0.6,0.2,0.6,0.4
			c0.1,0.2,0.1,0.5,0.1,0.8v5.7l4.1-0.1c0.1,0,0.2,0,0.3-0.1c0.1-0.1,0.1-0.2,0.1-0.3v-2.7l-3.2,0.1c-0.1,0-0.2,0-0.3,0
			c-0.1,0-0.1-0.1-0.2-0.2l-0.4-0.5c-0.1-0.1-0.1-0.1,0-0.2c0.1-0.1,0.2-0.1,0.3-0.1l0.4,0.1c0.1,0,0.2,0,0.3,0c0.1,0,0.2,0,0.3,0
			l2.7-0.1v-2c0-0.3,0-0.5-0.1-0.6s-0.2-0.2-0.3-0.3c-0.1,0-0.2-0.1-0.2-0.1c0-0.1,0-0.2,0-0.3V26l0.9,0.1c0.4,0,0.6,0.2,0.6,0.4
			c0.1,0.2,0.1,0.5,0.1,0.8v6.6c0,0.2-0.1,0.4-0.2,0.5s-0.3,0.2-0.6,0.2h-4.8v0.1c0,0.1,0,0.2-0.1,0.3s-0.1,0.2-0.1,0.2
			c-0.1,0.1-0.2,0.1-0.3,0.1c-0.1,0-0.2,0-0.2,0s-0.1,0-0.1-0.1c0,0-0.1-0.1-0.1-0.2c0-0.1-0.1-0.2-0.1-0.3s0-0.2,0-0.3v-6.2H86.9z
			 M98,37.4c0,0.2,0,0.3-0.1,0.5c-0.1,0.2-0.1,0.3-0.2,0.5c-0.1,0.2-0.2,0.3-0.2,0.4c-0.1,0.1-0.1,0.2-0.2,0.2
			c-0.1,0.1-0.1,0.1-0.2,0.1S97,39.1,97,39.1V24.8c0-0.2-0.1-0.4-0.2-0.5s-0.2-0.3-0.4-0.4c-0.1-0.1-0.1-0.2,0-0.4
			c0.1-0.2,0.2-0.2,0.4-0.2l0.7,0.3c0.2,0.1,0.4,0.2,0.4,0.3C98,24,98,24.1,98,24.3L98,37.4L98,37.4z"/>
		<path d="M100.8,28c0.1-0.4,0.3-0.7,0.6-1c0.3-0.3,0.6-0.5,1-0.7s0.9-0.3,1.4-0.3s1,0.1,1.4,0.3s0.7,0.4,1,0.7
			c0.3,0.3,0.5,0.6,0.6,1s0.2,0.7,0.2,1.1c0,0.9-0.3,1.6-0.8,2.2s-1.3,0.9-2.3,0.9c-0.5,0-1-0.1-1.4-0.2c-0.4-0.2-0.7-0.4-1-0.7
			s-0.5-0.6-0.6-1s-0.2-0.8-0.2-1.2C100.6,28.8,100.7,28.4,100.8,28z M102.2,27.6c-0.3,0.4-0.5,0.9-0.5,1.6c0,0.6,0.2,1.1,0.5,1.6
			c0.3,0.4,0.9,0.6,1.5,0.6c0.7,0,1.2-0.2,1.6-0.6c0.3-0.4,0.5-0.9,0.5-1.6c0-0.6-0.2-1.2-0.5-1.6s-0.9-0.6-1.5-0.6
			C103.1,27,102.5,27.2,102.2,27.6z M105.9,38.9c-0.1,0-0.3,0-0.4,0s-0.3-0.1-0.4-0.1c-0.1-0.1-0.2-0.2-0.3-0.3
			c-0.1-0.1-0.1-0.3-0.1-0.5V36c0-0.2,0-0.4-0.1-0.5c0-0.1-0.1-0.2-0.3-0.3c-0.1,0-0.2-0.1-0.3-0.1c-0.1-0.1-0.1-0.1-0.1-0.3v-0.4
			l1,0.1c0.2,0,0.3,0.1,0.4,0.2s0.2,0.2,0.2,0.3s0.1,0.2,0.1,0.4c0,0.1,0,0.3,0,0.4v2.1c0,0.2,0,0.3,0.1,0.4c0,0.1,0.2,0.1,0.4,0.1
			h2.7c0.7,0,1.3,0,1.7-0.1c0.5-0.1,0.8-0.1,1-0.2c0.1,0,0.2-0.1,0.3-0.1s0.2,0,0.3,0.1l0.7,0.3c0.2,0.1,0.3,0.1,0.3,0.2
			c0,0.1,0.1,0.2,0,0.3c0,0.2-0.1,0.3-0.2,0.3s-0.2,0.1-0.3,0.1h-6.7V38.9z M110.1,33.2c0,0.2,0,0.3-0.1,0.5
			c-0.1,0.2-0.1,0.3-0.2,0.5c-0.1,0.2-0.2,0.3-0.2,0.4c-0.1,0.1-0.1,0.2-0.2,0.2c-0.1,0.1-0.1,0.1-0.2,0.1s-0.1-0.1-0.1-0.1v-5.1
			H108c-0.1,0-0.2,0-0.3,0c-0.1,0-0.1-0.1-0.2-0.2l-0.3-0.5c-0.1-0.1-0.1-0.1,0-0.2c0.1-0.1,0.2-0.1,0.3-0.1l0.4,0.1
			c0.1,0,0.2,0,0.3,0c0.1,0,0.2,0,0.3,0h0.7v-2.9c0-0.1,0-0.2-0.1-0.3c0-0.1-0.1-0.2-0.1-0.2c-0.1-0.1-0.1-0.1-0.2-0.2
			s-0.1-0.1-0.2-0.2s-0.1-0.2,0-0.4c0.1-0.2,0.2-0.2,0.4-0.2l0.7,0.3c0.2,0.1,0.4,0.2,0.4,0.3c0.1,0.1,0.1,0.2,0.1,0.5v7.7H110.1z
			 M112.7,33.8c0,0.2,0,0.3-0.1,0.5c-0.1,0.2-0.1,0.3-0.2,0.5c-0.1,0.2-0.2,0.3-0.2,0.4c-0.1,0.1-0.1,0.2-0.2,0.2
			c-0.1,0.1-0.1,0.1-0.2,0.1s-0.1-0.1-0.1-0.1V24.8c0-0.2-0.1-0.4-0.2-0.5s-0.2-0.3-0.4-0.4c-0.1-0.1-0.1-0.2,0-0.4
			c0.1-0.2,0.2-0.2,0.4-0.2l0.7,0.3c0.3,0.1,0.4,0.2,0.5,0.3c0.1,0.1,0.1,0.2,0.1,0.4v9.5H112.7z"/>
		<path d="M116,27.7c0.1-0.4,0.3-0.7,0.6-1c0.3-0.3,0.6-0.5,1-0.7s0.8-0.3,1.3-0.3s0.9,0.1,1.3,0.3c0.4,0.2,0.7,0.4,1,0.7
			c0.3,0.3,0.5,0.6,0.6,1s0.2,0.7,0.2,1.1c0,0.9-0.3,1.6-0.8,2.1c-0.6,0.6-1.3,0.8-2.3,0.8c-0.5,0-1-0.1-1.3-0.2
			c-0.4-0.2-0.7-0.4-1-0.6c-0.3-0.3-0.5-0.6-0.6-0.9c-0.1-0.4-0.2-0.7-0.2-1.2C115.8,28.4,115.8,28,116,27.7z M117.4,27.3
			c-0.3,0.4-0.5,0.9-0.5,1.5s0.2,1.1,0.5,1.5s0.9,0.6,1.5,0.6c0.7,0,1.2-0.2,1.6-0.6c0.3-0.4,0.5-0.9,0.5-1.5c0-0.6-0.2-1.1-0.5-1.5
			s-0.9-0.6-1.5-0.6C118.2,26.7,117.7,26.9,117.4,27.3z M127.8,37.8c0,0.2-0.1,0.4-0.2,0.7c-0.1,0.2-0.2,0.4-0.3,0.5l-0.2,0.4
			c0,0.1-0.1,0.1-0.2,0.1s-0.1-0.1-0.1-0.1v-4.2l-2.2,0.1c0,0-0.2,0-0.3,0c-0.2,0-0.4,0-0.6,0s-0.4,0-0.6,0s-0.3,0-0.4,0l-1.8,0.1
			c-0.1,0-0.3,0-0.4,0s-0.3,0-0.4,0s-0.1,0-0.2,0s-0.1,0-0.2,0s-0.1,0-0.2,0s-0.2,0-0.2-0.1c-0.1,0-0.1-0.1-0.1-0.2
			c0-0.1,0-0.2,0-0.3l0.1-0.6c0.2,0,0.4,0.1,0.7,0.1c0.3,0,0.5,0,0.8,0.1c0.3,0,0.6,0,0.9,0s0.6,0,1,0c0.5,0,1,0,1.3,0
			c0.4,0,0.6,0,0.7,0l2.8-0.1c0.1,0,0.1,0,0.2,0s0.1,0,0.1,0.1l0.1,0.1v0.1v3.2H127.8z M125.4,31.5c0,0.2,0,0.3-0.1,0.5
			c-0.1,0.2-0.1,0.3-0.2,0.5c-0.1,0.2-0.2,0.3-0.2,0.4c-0.1,0.1-0.1,0.2-0.2,0.2c-0.1,0.1-0.1,0.1-0.2,0.1s-0.1-0.1-0.1-0.1v-3.9
			h-1.1c-0.1,0-0.2,0-0.3,0c-0.1,0-0.1-0.1-0.2-0.2l-0.3-0.5c-0.1-0.1-0.1-0.1,0-0.2s0.2-0.1,0.3-0.1l0.4,0.1c0.1,0,0.2,0,0.3,0
			c0.1,0,0.2,0,0.3,0h0.7v-2.4c0-0.1,0-0.2-0.1-0.3c0-0.1-0.1-0.2-0.1-0.2c-0.1-0.1-0.1-0.1-0.2-0.2s-0.1-0.1-0.2-0.2
			s-0.1-0.2,0-0.4c0.1-0.2,0.2-0.2,0.4-0.2l0.7,0.3c0.2,0.1,0.4,0.2,0.4,0.3c0.1,0.1,0.1,0.2,0.1,0.5v6H125.4z M128,31.6
			c0,0.2,0,0.3-0.1,0.5c-0.1,0.2-0.1,0.3-0.2,0.5c-0.1,0.2-0.2,0.3-0.2,0.4c-0.1,0.1-0.1,0.2-0.2,0.2c-0.1,0.1-0.1,0.1-0.2,0.1
			s-0.1-0.1-0.1-0.1v-8.5c0-0.2-0.1-0.4-0.2-0.5s-0.2-0.3-0.4-0.4c-0.1-0.1-0.1-0.2,0-0.4c0.1-0.2,0.2-0.2,0.4-0.2l0.7,0.3
			c0.3,0.1,0.4,0.2,0.5,0.3c0,0.1,0.1,0.2,0.1,0.4v7.4H128z"/>
		<path d="M134.4,36.8l-1.9,0.1c-0.1,0-0.2,0-0.3,0s-0.3,0-0.4,0c-0.1,0-0.2,0-0.4,0c-0.1,0-0.2,0-0.3-0.1c-0.1,0-0.1-0.1-0.2-0.2
			c0-0.1,0-0.2,0-0.3l0.1-0.6c0.2,0.1,0.5,0.1,0.8,0.1s0.7,0.1,1,0.1s0.6,0,0.9,0c0.3,0,0.5,0,0.6,0c0.7,0,1.4,0,2,0s1.2,0,1.8,0
			s1.1,0,1.6,0s1,0,1.4,0c0.2,0,0.4,0,0.6,0c0.3,0,0.5,0,0.8-0.1c0.2,0,0.5,0,0.7,0s0.3,0,0.4,0c0.3,0,0.6-0.1,0.8-0.1
			s0.4,0,0.5,0.1l0.6,0.5c0.1,0.1,0.1,0.1,0.1,0.2c0,0.1,0,0.1,0,0.2s-0.1,0.1-0.1,0.2c-0.1,0.1-0.1,0.1-0.2,0.1l-1.1-0.2
			c-0.2,0-0.5,0-0.8-0.1c-0.3,0-0.6,0-0.9,0c-0.3,0-0.6,0-0.9,0c-0.3,0-0.6,0-0.8,0L134.4,36.8z M139,27.9c-0.2,0.4-0.3,0.7-0.5,1.1
			l3.2,2.2c0.1,0.1,0.2,0.1,0.2,0.2c0.1,0,0.1,0.1,0.2,0.1c0.1,0,0.2,0.1,0.2,0.1c0.1,0,0.2,0.1,0.3,0.1c0.2,0.1,0.3,0.1,0.4,0.2
			c0.1,0.1,0.2,0.2,0.3,0.4l0.3,0.5c0.1,0.1,0.1,0.2,0.1,0.3s-0.1,0.1-0.1,0.2c-0.1,0.1-0.2,0.1-0.3,0.1s-0.2,0-0.3-0.1l-5-3.7
			c-0.4,0.5-0.8,1-1.2,1.5c-0.4,0.4-0.9,0.8-1.3,1.1c-0.4,0.3-0.8,0.6-1.2,0.8c-0.4,0.2-0.6,0.4-0.9,0.5c-0.1,0-0.2,0.1-0.2,0.1
			c-0.1,0-0.1,0-0.2,0c-0.1,0-0.2,0-0.2-0.1c-0.1-0.1-0.1-0.1-0.1-0.3c0-0.1,0-0.1,0.1-0.2c0-0.1,0.1-0.1,0.1-0.1
			c0.3-0.1,0.7-0.4,1.3-0.8c0.5-0.4,1.1-0.8,1.6-1.4c0.5-0.5,1-1.2,1.5-1.8c0.5-0.7,0.8-1.4,1-2.2c0-0.1,0-0.1,0-0.2
			s-0.1-0.1-0.2-0.2l-0.3-0.2c-0.1-0.1-0.1-0.2-0.1-0.4c0.1-0.2,0.2-0.3,0.3-0.2c0.2,0.1,0.4,0.1,0.7,0.2c0.2,0.1,0.4,0.2,0.6,0.2
			c0.1,0.1,0.2,0.2,0.2,0.3c0,0.1,0,0.3,0,0.6C139.3,27.1,139.2,27.5,139,27.9z"/>
	</g>
</g>
</svg>
