<?xml version="1.0" encoding="utf-8"?>
<!-- Generator: Adobe Illustrator 23.0.1, SVG Export Plug-In . SVG Version: 6.00 Build 0)  -->
<svg version="1.1" id="レイヤー_1" xmlns="http://www.w3.org/2000/svg" xmlns:xlink="http://www.w3.org/1999/xlink" x="0px"
	 y="0px" viewBox="0 0 300 50" style="enable-background:new 0 0 300 50;" xml:space="preserve">
<g>
	<g>
		<g>
			<path d="M5.9,36.3H3.5V12.5h14.3v2.2H5.9v8.2H17v2.2H5.9V36.3z"/>
			<path d="M24.6,36.3h-2.3V10.9h2.3V36.3z"/>
			<path d="M36.1,33.8L36.1,33.8L41,20.5h2.5l-7.8,19.8c-0.5,1.2-1.1,2.2-1.8,2.9s-1.8,1.1-3.1,1.1c-0.7,0-1.4-0.1-2-0.2L29,42
				c0.5,0.2,1.1,0.3,1.7,0.3c0.8,0,1.4-0.2,1.8-0.7s0.8-1.2,1.2-2.1l1.3-3.3l-6.7-15.7h2.6L36.1,33.8z"/>
			<path d="M49.9,14.5c0,0.5-0.2,0.9-0.5,1.2c-0.3,0.3-0.7,0.5-1.1,0.5s-0.8-0.2-1.1-0.5s-0.5-0.7-0.5-1.2s0.2-0.9,0.5-1.2
				c0.3-0.3,0.7-0.5,1.1-0.5s0.8,0.2,1.1,0.5C49.8,13.6,49.9,14,49.9,14.5z M49.4,36.3h-2.3V20.5h2.3V36.3z"/>
			<path d="M57.6,20.5c0,0.4,0.1,0.9,0.1,1.4s0,0.9,0,1.3h0.1c0.4-0.9,1.2-1.7,2.2-2.2c1-0.6,2.1-0.9,3.2-0.9c2,0,3.5,0.6,4.5,1.8
				c1,1.2,1.5,2.8,1.5,4.7v9.6h-2.3v-8.7c0-0.8-0.1-1.6-0.2-2.3c-0.1-0.7-0.4-1.2-0.7-1.7c-0.3-0.5-0.8-0.9-1.3-1.1
				c-0.5-0.3-1.2-0.4-2.1-0.4c-0.6,0-1.2,0.1-1.8,0.4c-0.6,0.2-1.1,0.6-1.5,1.1s-0.8,1.1-1.1,1.9c-0.2,0.8-0.4,1.7-0.4,2.8v8.1h-2.3
				V24c0-0.4,0-1,0-1.6c0-0.7-0.1-1.3-0.1-1.8h2.2V20.5z"/>
			<path d="M75.9,39.4c0.6,0.8,1.5,1.5,2.6,2.1s2.2,0.8,3.4,0.8c1.1,0,2.1-0.2,2.9-0.5s1.4-0.8,1.9-1.3c0.5-0.6,0.8-1.2,1.1-2
				c0.2-0.8,0.3-1.6,0.3-2.4v-3H88c-0.6,1-1.5,1.7-2.6,2.3c-1.1,0.5-2.2,0.8-3.4,0.8c-1.2,0-2.3-0.2-3.3-0.6c-1-0.4-1.8-1-2.6-1.7
				c-0.7-0.7-1.3-1.6-1.6-2.5c-0.4-1-0.6-2-0.6-3.2c0-1.1,0.2-2.2,0.6-3.2s0.9-1.8,1.6-2.6c0.7-0.7,1.6-1.3,2.6-1.7
				c1-0.4,2.1-0.6,3.3-0.6c1.1,0,2.3,0.3,3.4,0.8s2,1.3,2.6,2.3h0.1v-2.7h2.3v15.6c0,0.9-0.1,1.8-0.4,2.7c-0.2,1-0.7,1.8-1.3,2.7
				c-0.6,0.8-1.5,1.5-2.6,2s-2.5,0.8-4.3,0.8c-1.5,0-2.8-0.3-4.2-0.8c-1.3-0.6-2.5-1.3-3.4-2.3L75.9,39.4z M76.3,28.2
				c0,0.8,0.1,1.6,0.4,2.4c0.3,0.7,0.7,1.4,1.2,1.9s1.1,1,1.9,1.3c0.7,0.3,1.6,0.5,2.5,0.5s1.7-0.1,2.4-0.4c0.7-0.3,1.4-0.7,1.9-1.2
				s1-1.2,1.3-1.9s0.5-1.6,0.5-2.5c0-0.8-0.2-1.6-0.5-2.4c-0.3-0.7-0.7-1.4-1.3-1.9c-0.5-0.6-1.2-1-1.9-1.3
				c-0.7-0.3-1.5-0.5-2.4-0.5s-1.8,0.2-2.5,0.5s-1.4,0.8-1.9,1.3c-0.5,0.6-0.9,1.2-1.2,1.9C76.5,26.6,76.3,27.4,76.3,28.2z"/>
			<path d="M104,36.3h-2.4V14.6h-8v-2.2H112v2.2h-8V36.3z"/>
			<path d="M118.2,14.5c0,0.5-0.2,0.9-0.5,1.2c-0.3,0.3-0.7,0.5-1.1,0.5s-0.8-0.2-1.1-0.5c-0.3-0.3-0.5-0.7-0.5-1.2s0.2-0.9,0.5-1.2
				c0.3-0.3,0.7-0.5,1.1-0.5s0.8,0.2,1.1,0.5C118.1,13.6,118.2,14,118.2,14.5z M117.8,36.3h-2.3V20.5h2.3V36.3z"/>
			<path d="M124.7,39.4c0.6,0.8,1.5,1.5,2.6,2.1s2.2,0.8,3.4,0.8c1.1,0,2.1-0.2,2.9-0.5c0.8-0.3,1.4-0.8,1.9-1.3
				c0.5-0.6,0.8-1.2,1.1-2c0.2-0.8,0.3-1.6,0.3-2.4v-3h-0.1c-0.6,1-1.5,1.7-2.6,2.3c-1.1,0.5-2.2,0.8-3.4,0.8s-2.3-0.2-3.3-0.6
				c-1-0.4-1.8-1-2.6-1.7c-0.7-0.7-1.3-1.6-1.6-2.5c-0.4-1-0.6-2-0.6-3.2c0-1.1,0.2-2.2,0.6-3.2s0.9-1.8,1.6-2.6
				c0.7-0.7,1.6-1.3,2.6-1.7c1-0.4,2.1-0.6,3.3-0.6c1.1,0,2.3,0.3,3.4,0.8c1.1,0.5,2,1.3,2.6,2.3h0.1v-2.7h2.3v15.6
				c0,0.9-0.1,1.8-0.4,2.7c-0.2,1-0.7,1.8-1.3,2.7c-0.6,0.8-1.5,1.5-2.6,2s-2.5,0.8-4.3,0.8c-1.5,0-2.8-0.3-4.2-0.8
				c-1.3-0.6-2.5-1.3-3.4-2.3L124.7,39.4z M125.1,28.2c0,0.8,0.1,1.6,0.4,2.4c0.3,0.7,0.7,1.4,1.2,1.9s1.1,1,1.9,1.3
				c0.7,0.3,1.6,0.5,2.5,0.5s1.7-0.1,2.4-0.4c0.7-0.3,1.4-0.7,1.9-1.2s1-1.2,1.3-1.9s0.5-1.6,0.5-2.5c0-0.8-0.2-1.6-0.5-2.4
				c-0.3-0.7-0.7-1.4-1.3-1.9c-0.5-0.6-1.2-1-1.9-1.3s-1.5-0.5-2.4-0.5s-1.8,0.2-2.5,0.5s-1.4,0.8-1.9,1.3c-0.5,0.6-0.9,1.2-1.2,1.9
				C125.3,26.6,125.1,27.4,125.1,28.2z"/>
			<path d="M159.4,27.9c0,0.2,0,0.3,0,0.5s0,0.4,0,0.6h-13c0,0.8,0.2,1.5,0.5,2.2c0.3,0.7,0.7,1.3,1.2,1.8s1.1,0.9,1.8,1.2
				s1.4,0.5,2.3,0.5c1.2,0,2.2-0.3,3.1-0.8c0.9-0.5,1.5-1.2,2-1.9l1.7,1.3c-0.9,1.2-2,2-3.1,2.6c-1.1,0.5-2.3,0.8-3.6,0.8
				c-1.2,0-2.2-0.2-3.2-0.6c-1-0.4-1.9-1-2.6-1.7c-0.7-0.7-1.3-1.6-1.7-2.6s-0.6-2.1-0.6-3.3s0.2-2.3,0.6-3.3c0.4-1,1-1.9,1.7-2.6
				s1.6-1.3,2.5-1.7c1-0.4,2-0.6,3.1-0.6c1.2,0,2.3,0.2,3.3,0.6c0.9,0.4,1.7,1,2.4,1.7c0.6,0.7,1.1,1.5,1.4,2.5
				C159.2,25.8,159.4,26.9,159.4,27.9z M157.1,27.2c-0.1-1.5-0.5-2.7-1.4-3.7s-2.1-1.5-3.8-1.5c-0.8,0-1.5,0.1-2.1,0.4
				c-0.7,0.3-1.2,0.7-1.7,1.1c-0.5,0.5-0.9,1-1.2,1.6s-0.5,1.3-0.5,1.9h10.7V27.2z"/>
			<path d="M164.3,22.4c0-0.7-0.1-1.3-0.1-1.8h2.2c0,0.4,0.1,0.9,0.1,1.4s0,0.9,0,1.3h0.1c0.4-0.9,1.1-1.7,2-2.2
				c0.9-0.6,1.9-0.9,3-0.9c0.3,0,0.6,0,0.8,0s0.5,0.1,0.7,0.1l-0.3,2.2c-0.1,0-0.4-0.1-0.7-0.1s-0.6-0.1-0.9-0.1
				c-0.6,0-1.2,0.1-1.7,0.3c-0.6,0.2-1,0.6-1.5,1.1c-0.4,0.5-0.8,1.1-1,1.8c-0.3,0.7-0.4,1.6-0.4,2.7v8h-2.3V24
				C164.3,23.6,164.3,23,164.3,22.4z"/>
		</g>
	</g>
	<g>
		<path d="M175.9,38.3v-0.7h8.7v0.7H175.9z"/>
		<path d="M188,31.4l-1.9,0.1c-0.1,0-0.2,0-0.3,0s-0.3,0-0.4,0c-0.1,0-0.2,0-0.4,0c-0.1,0-0.2,0-0.3-0.1c-0.1,0-0.1-0.1-0.2-0.2
			s0-0.2,0-0.3l0.1-0.6c0.2,0.1,0.5,0.1,0.8,0.1s0.7,0.1,1,0.1s0.6,0,0.9,0c0.3,0,0.5,0,0.6,0c0.7,0,1.4,0,2,0s1.2,0,1.8,0
			s1.1,0,1.6,0s1,0,1.4-0.1c0.2,0,0.4,0,0.6,0c0.3,0,0.5,0,0.8,0c0.2,0,0.5,0,0.7-0.1c0.2,0,0.3,0,0.4,0c0.3,0,0.6-0.1,0.8-0.1
			s0.4,0,0.5,0.1l0.6,0.5c0.1,0.1,0.1,0.1,0.1,0.2c0,0.1,0,0.1,0,0.2c0,0.1-0.1,0.1-0.1,0.2c-0.1,0.1-0.1,0.1-0.2,0.1l-1.1-0.2
			c-0.2,0-0.5,0-0.8,0s-0.6,0-0.9,0c-0.3,0-0.6,0-0.9,0c-0.3,0-0.6,0-0.8,0L188,31.4z M193,25.8c-0.1-0.1-0.1-0.2-0.1-0.3v-0.3
			l1.1,0.1c0.3,0,0.4,0.1,0.5,0.3c0.1,0.1,0.1,0.3,0.1,0.4v2l0.4-0.1c0.4-0.1,0.6-0.1,0.7-0.1c0.1,0,0.2,0.1,0.4,0.1l0.4,0.3
			c0.2,0.1,0.2,0.2,0.2,0.2c0,0.1,0,0.2-0.1,0.3c-0.1,0.1-0.1,0.2-0.2,0.2c-0.1,0-0.1,0-0.2,0c-0.1,0-0.2-0.1-0.4-0.1
			s-0.3-0.1-0.5-0.1c-0.5,0-1,0-1.6,0s-1.2,0-1.7,0c-0.3,0-0.6,0-0.9,0.1c-0.3,0-0.6,0-1,0c-0.3,0-0.6,0-1,0c-0.3,0-0.6,0-0.9,0
			c-0.3,0-0.5,0-0.7,0s-0.3-0.1-0.4-0.1c-0.1,0-0.1-0.1-0.1-0.1c0-0.1,0-0.1,0-0.2l0.1-0.6c0.3,0.1,0.7,0.1,1.1,0.1
			c0.4,0,0.8,0,1.1,0.1v-1.1c0-0.2,0-0.4-0.1-0.5c0-0.1-0.1-0.2-0.3-0.2c-0.1,0-0.2-0.1-0.2-0.1c-0.1-0.1-0.1-0.2-0.1-0.3v-0.3
			l1.1,0.1c0.3,0,0.4,0.1,0.5,0.3c0.1,0.1,0.1,0.3,0.1,0.4v1.9c0.2,0,0.5,0,0.7,0s0.5,0,0.8,0l1.5-0.1v-1.3c0-0.2,0-0.4-0.1-0.5
			c0-0.1-0.1-0.2-0.3-0.2C193.1,25.9,193,25.9,193,25.8z M189.6,34c-0.1,0-0.3,0-0.4,0c-0.1,0-0.3,0-0.4,0c-0.1,0-0.2,0-0.4,0
			s-0.3,0-0.4-0.1c-0.1,0-0.1-0.1-0.2-0.1c0-0.1-0.1-0.1,0-0.2l0.1-0.6c0.3,0.1,0.6,0.1,1,0.1c0.3,0,0.6,0,0.9,0c0.3,0,0.6,0,0.9,0
			c0.3,0,0.6,0,0.9,0l4-0.1c0.1,0,0.2,0,0.3,0s0.2,0,0.2,0.1l0.1,0.1c0,0.1,0,0.2,0,0.3v2.3c0,0.2-0.1,0.4-0.2,0.4
			c-0.1,0.1-0.3,0.1-0.6,0.1l-6,0.1v1.3c0,0.2,0,0.3,0.1,0.4c0,0.1,0.2,0.1,0.4,0.1h3.4c0.5,0,0.9,0,1.3-0.1
			c0.4-0.1,0.7-0.1,0.9-0.2c0.1,0,0.2,0,0.3,0s0.2,0,0.3,0.1l0.6,0.2c0.2,0.1,0.3,0.1,0.3,0.2c0,0.1,0,0.2,0,0.3
			c0,0.2-0.1,0.3-0.1,0.3c-0.1,0-0.2,0.1-0.3,0.1H190c-0.1,0-0.3,0-0.4,0c-0.2,0-0.3-0.1-0.5-0.1c-0.1-0.1-0.3-0.2-0.4-0.3
			c-0.1-0.1-0.1-0.3-0.1-0.5v-1c0-0.1,0-0.2,0-0.3s0-0.2,0-0.3s-0.1-0.1-0.1-0.2c0,0-0.1-0.1-0.2-0.1c-0.1,0-0.2-0.1-0.3-0.2
			c-0.1-0.1-0.1-0.2-0.1-0.3v-0.3l1,0.1c0,0,0,0,0.1,0c0,0,0,0,0.1,0c0,0,0,0,0.1,0c0,0,0,0,0.1,0l5.9-0.1c0.1,0,0.2,0,0.3-0.1
			s0.1-0.2,0.1-0.3v-0.9c0-0.2,0-0.2-0.1-0.3c0,0-0.1,0-0.3,0h-3.1L189.6,34z M190.3,24.7c-0.4,0-0.9,0-1.4,0.1c-0.3,0-0.5,0-0.7,0
			s-0.3-0.1-0.4-0.1c-0.1,0-0.1-0.1-0.1-0.1c0-0.1,0-0.1,0-0.2l0.1-0.6c0.4,0.1,0.8,0.1,1.2,0.1s0.8,0,1.1,0s0.6,0,0.9,0
			c0.3,0,0.7,0,1.1-0.1c0.2,0,0.5,0,0.7,0s0.5,0,0.7,0s0.4,0,0.5-0.1c0.1,0,0.3,0,0.3,0c0.3,0,0.6,0,0.7,0c0.1,0,0.3,0,0.4,0.1
			l0.4,0.3c0.2,0.1,0.2,0.2,0.2,0.2c0,0.1,0,0.2-0.1,0.3c-0.1,0.1-0.1,0.2-0.2,0.2c-0.1,0-0.1,0-0.2,0c-0.1,0-0.2,0-0.4-0.1
			c-0.2,0-0.3-0.1-0.5-0.1c-0.4,0-0.9-0.1-1.4-0.1s-1.1,0-1.6,0C191.2,24.6,190.7,24.7,190.3,24.7z"/>
		<path d="M202.3,34.2C202.3,34.3,202.3,34.3,202.3,34.2l0.1,0.1c0.6,0,1.2-0.1,1.8-0.1c0.6-0.1,1.2-0.2,1.8-0.3s1.1-0.3,1.6-0.4
			c0.5-0.2,0.9-0.3,1.2-0.5c0,0,0.1,0,0.2,0c0.1,0,0.2,0.1,0.3,0.1c0.2,0.1,0.2,0.2,0.2,0.3s-0.1,0.2-0.3,0.3c-1,0.6-2.1,1-3.2,1.2
			c-1.1,0.2-2.3,0.4-3.4,0.5c-0.1,0-0.2,0-0.3,0s-0.2,0-0.3,0c-0.2,0-0.3-0.1-0.5-0.3s-0.3-0.4-0.3-0.5v-3.1c0-0.1,0-0.2,0-0.3
			s0-0.2,0-0.2c0-0.1-0.1-0.1-0.1-0.2c0-0.1-0.1-0.1-0.2-0.2c-0.1,0-0.2-0.1-0.3-0.2c-0.1-0.1-0.1-0.2-0.1-0.3v-0.3l1,0.1l4.4-0.1
			c0.1,0,0.2,0,0.3-0.1s0.1-0.2,0.1-0.3v-2.2c0-0.1,0-0.2,0-0.3c0,0-0.1-0.1-0.3-0.1l-3.3,0.1c-0.1,0-0.3,0-0.4,0
			c-0.1,0-0.3,0-0.4,0c-0.1,0-0.3,0-0.5,0s-0.4,0-0.5-0.1c-0.1,0-0.1-0.1-0.1-0.1c0-0.1,0-0.1,0-0.2l0.1-0.7c0.4,0.1,1,0.1,1.7,0.2
			c0.7,0,1.4,0,2,0l2.3-0.1c0.1,0,0.2,0,0.3,0s0.2,0,0.2,0.1c0,0,0.1,0.1,0.1,0.2s0,0.2,0,0.3l-0.2,3.6c0,0.2-0.1,0.4-0.2,0.4
			c-0.1,0.1-0.3,0.1-0.5,0.1l-4.1,0.1c0,0.1,0,0.2,0,0.3s0,0.2,0,0.3v2.9H202.3z M211.4,31.3h0.7c0.2,0,0.3,0,0.4,0
			c0.1,0,0.3-0.1,0.6-0.2c0.1,0,0.2-0.1,0.3-0.1s0.2,0,0.2-0.1c0.1,0,0.1,0,0.2,0c0.1,0,0.1,0,0.2,0.1l0.6,0.4
			c0.1,0.1,0.1,0.1,0.1,0.2c0,0.1,0,0.2-0.1,0.2l-0.1,0.1c-0.1,0.1-0.1,0.1-0.2,0.2c-0.1,0-0.2,0-0.3,0s-0.2,0-0.3,0s-0.2,0-0.3,0
			h-2.1v5.3c0,0.2,0,0.3-0.1,0.5s-0.1,0.3-0.2,0.5c-0.1,0.2-0.2,0.3-0.2,0.4c-0.1,0.1-0.1,0.2-0.2,0.2c-0.1,0.1-0.1,0.1-0.2,0.1
			c-0.1,0-0.1-0.1-0.1-0.1V24.7c0-0.2-0.1-0.4-0.2-0.5c-0.1-0.1-0.2-0.3-0.4-0.4c-0.1-0.1-0.1-0.2,0-0.4c0.1-0.2,0.2-0.2,0.4-0.2
			l0.7,0.3c0.2,0.1,0.4,0.2,0.4,0.3c0.1,0.1,0.1,0.2,0.1,0.4v7.1H211.4z"/>
		<path d="M216.2,26.6c0.2-0.4,0.4-0.7,0.7-1s0.7-0.5,1.1-0.7c0.4-0.2,0.9-0.2,1.4-0.2c1,0,1.8,0.3,2.5,0.9c0.6,0.6,0.9,1.4,0.9,2.3
			c0,0.5-0.1,0.9-0.3,1.3c-0.2,0.4-0.4,0.7-0.7,1s-0.7,0.5-1.1,0.6c-0.4,0.2-0.9,0.2-1.3,0.2c-0.5,0-1-0.1-1.4-0.2
			c-0.4-0.2-0.8-0.4-1.1-0.6c-0.3-0.3-0.5-0.6-0.7-1c-0.2-0.4-0.2-0.8-0.2-1.3C215.9,27.4,216,27,216.2,26.6z M217.6,26.3
			c-0.4,0.4-0.6,0.9-0.6,1.6c0,0.6,0.2,1.2,0.6,1.6c0.4,0.4,1,0.6,1.7,0.6s1.3-0.2,1.7-0.6c0.4-0.4,0.6-1,0.6-1.6
			c0-0.7-0.2-1.2-0.6-1.6c-0.4-0.4-1-0.6-1.7-0.6C218.6,25.6,218.1,25.9,217.6,26.3z M221.1,33.9c0.6-0.6,1.4-0.9,2.4-0.9
			c0.5,0,0.9,0.1,1.3,0.2s0.8,0.4,1.1,0.6c0.3,0.3,0.5,0.6,0.7,1s0.3,0.8,0.3,1.3c0,0.9-0.3,1.7-0.9,2.3c-0.6,0.6-1.4,0.9-2.4,0.9
			c-0.5,0-0.9-0.1-1.4-0.2c-0.4-0.2-0.8-0.4-1.1-0.6c-0.3-0.3-0.5-0.6-0.7-1s-0.3-0.8-0.3-1.3C220.2,35.3,220.5,34.5,221.1,33.9z
			 M221.8,34.6c-0.4,0.4-0.6,1-0.6,1.6s0.2,1.2,0.6,1.6c0.4,0.4,1,0.6,1.7,0.6c0.8,0,1.3-0.2,1.7-0.6c0.4-0.4,0.6-0.9,0.6-1.6
			c0-0.6-0.2-1.2-0.6-1.6c-0.4-0.4-1-0.6-1.7-0.6C222.8,34,222.2,34.2,221.8,34.6z M227.2,31.2c0,0.2,0,0.3-0.1,0.5
			s-0.1,0.3-0.2,0.5c-0.1,0.2-0.2,0.3-0.2,0.4c-0.1,0.1-0.1,0.2-0.2,0.2c-0.1,0.1-0.1,0.1-0.2,0.1s-0.1-0.1-0.1-0.2v-8.1
			c0-0.2,0-0.4-0.2-0.5c-0.1-0.1-0.2-0.3-0.4-0.4c-0.1-0.1-0.1-0.2,0-0.4c0.1-0.2,0.2-0.2,0.4-0.2l0.7,0.3c0.3,0.1,0.4,0.2,0.5,0.3
			c0.1,0.1,0.1,0.2,0.1,0.4v7.1H227.2z"/>
		<path d="M231.1,28c0-0.3,0-0.5-0.1-0.6c0-0.1-0.1-0.2-0.3-0.2c-0.1,0-0.1-0.1-0.2-0.1l-0.1-0.1v-0.1c0,0,0-0.1,0-0.2v-0.3l0.7,0.1
			h2.9c0.1,0,0.3,0,0.5,0s0.5,0,0.7,0c0.3,0,0.5,0,0.7-0.1c0.2,0,0.4-0.1,0.6-0.1c0.1,0,0.2,0,0.3,0s0.1,0,0.2,0.1l0.3,0.2
			c0.2,0.1,0.3,0.2,0.3,0.3c0,0.1,0,0.1,0,0.2c-0.1,0.2-0.2,0.3-0.3,0.3s-0.2,0-0.4,0h-5c0,0.1,0,0.1,0,0.2s0,0.1,0,0.2v2.4
			c0.2,0,0.6,0,0.9,0c0.4,0,0.7,0,1.1,0c0.4,0,0.7,0,1,0s0.5,0,0.5,0c0.2,0,0.3,0,0.4,0c0.1,0,0.2,0,0.3,0s0.2,0,0.2,0
			c0.1,0,0.1,0,0.2,0l0.3,0.2c0.2,0.1,0.3,0.2,0.3,0.3s0,0.2,0,0.3c-0.1,0.2-0.2,0.2-0.3,0.3c-0.1,0-0.2,0-0.4,0h-4.7v3
			c0,0.1,0,0.1,0.1,0.2l0.1,0.1c0.5,0,1.1,0,1.7-0.1c0.6-0.1,1.1-0.1,1.7-0.2c0.5-0.1,1.1-0.2,1.5-0.3c0.5-0.1,0.9-0.3,1.2-0.4
			c0,0,0.1,0,0.2,0c0.1,0,0.2,0,0.3,0.1c0.2,0.1,0.2,0.2,0.2,0.3s-0.1,0.2-0.4,0.3c-0.9,0.4-1.9,0.8-3.1,0.9
			c-1.1,0.2-2.2,0.3-3.3,0.4c-0.1,0-0.2,0-0.3,0s-0.2,0-0.3,0c-0.2,0-0.3-0.1-0.5-0.3s-0.3-0.3-0.3-0.5V28H231.1z M241.3,31.3h0.8
			c0.2,0,0.3,0,0.4,0c0.1,0,0.3-0.1,0.6-0.2c0.1,0,0.2-0.1,0.3-0.1s0.2,0,0.2-0.1c0.1,0,0.1,0,0.2,0c0.1,0,0.1,0,0.2,0.1l0.6,0.4
			c0.1,0.1,0.1,0.1,0.1,0.2c0,0.1,0,0.2-0.1,0.2l-0.1,0.1c-0.1,0.1-0.1,0.1-0.2,0.2c-0.1,0-0.2,0-0.3,0s-0.2,0-0.3,0s-0.2,0-0.3,0
			h-2.2v5.3c0,0.2,0,0.3-0.1,0.5s-0.1,0.3-0.2,0.5c-0.1,0.2-0.2,0.3-0.2,0.4c-0.1,0.1-0.1,0.2-0.2,0.2c-0.1,0.1-0.1,0.1-0.2,0.1
			c-0.1,0-0.1-0.1-0.1-0.1V24.7c0-0.2-0.1-0.4-0.2-0.5c-0.1-0.1-0.2-0.3-0.4-0.4c-0.1-0.1-0.1-0.2,0-0.4c0.1-0.2,0.2-0.2,0.4-0.2
			l0.7,0.3c0.2,0.1,0.4,0.2,0.4,0.3c0.1,0.1,0.1,0.2,0.1,0.4v7.1H241.3z"/>
		<path d="M246.4,28c0.6-0.7,1.5-1,2.6-1c0.5,0,1,0.1,1.5,0.3c0.4,0.2,0.8,0.4,1.1,0.7c0.3,0.3,0.6,0.7,0.7,1.1
			c0.2,0.4,0.3,0.9,0.3,1.4s-0.1,1-0.3,1.4s-0.4,0.8-0.7,1.1s-0.7,0.6-1.1,0.7c-0.4,0.2-0.9,0.3-1.4,0.3s-1-0.1-1.5-0.2
			c-0.4-0.2-0.8-0.4-1.2-0.7c-0.3-0.3-0.6-0.7-0.7-1.1c-0.2-0.4-0.3-0.9-0.3-1.4C245.5,29.5,245.8,28.6,246.4,28z M247.2,28.6
			c-0.4,0.5-0.7,1.1-0.7,1.8s0.2,1.4,0.7,1.8c0.4,0.5,1.1,0.7,1.9,0.7c0.8,0,1.4-0.2,1.8-0.7c0.4-0.5,0.7-1.1,0.7-1.9
			c0-0.7-0.2-1.3-0.6-1.8c-0.4-0.5-1.1-0.7-1.9-0.7C248.3,27.9,247.6,28.1,247.2,28.6z M257.1,37.3c0,0.2,0,0.3-0.1,0.5
			s-0.1,0.3-0.2,0.5s-0.2,0.3-0.2,0.4c-0.1,0.1-0.1,0.2-0.2,0.2c-0.1,0.1-0.1,0.1-0.2,0.1s-0.1-0.1-0.1-0.1V24.7
			c0-0.2-0.1-0.4-0.2-0.5c-0.1-0.1-0.2-0.3-0.4-0.4c-0.1-0.1-0.1-0.2,0-0.4c0.1-0.2,0.2-0.2,0.4-0.2l0.7,0.3
			c0.2,0.1,0.4,0.2,0.4,0.3c0,0.1,0.1,0.2,0.1,0.4L257.1,37.3L257.1,37.3z"/>
		<path d="M266.7,27.5c0,0.4-0.1,0.9-0.2,1.5c-0.1,0.7-0.2,1.4-0.4,2.1c-0.2,0.8-0.4,1.5-0.5,2.3c-0.2,0.8-0.4,1.4-0.6,2
			c-0.1,0.1-0.1,0.2-0.3,0.3c-0.1,0.1-0.2,0.1-0.3,0.1c-0.1,0-0.2-0.1-0.3-0.1c-0.1-0.1-0.1-0.2,0-0.3c0.2-0.6,0.4-1.2,0.6-2
			c0.2-0.7,0.3-1.4,0.5-2.1c0.1-0.7,0.2-1.4,0.3-2.1c0.1-0.7,0.2-1.2,0.2-1.7c-0.4,0-0.7,0-1.1,0s-0.7,0-0.8,0c-0.5,0-1,0-1.5,0.1
			c-0.5,0-1,0-1.5,0.1c-0.3,0-0.5,0-0.6,0s-0.2,0-0.3-0.1c-0.1,0-0.1-0.1-0.2-0.2c0-0.1,0-0.2,0-0.3l0.1-0.6
			c0.4,0.1,0.7,0.1,1.1,0.1c0.3,0,0.7,0,1.2,0c0.2,0,0.4,0,0.5,0s0.3,0,0.4,0s0.3,0,0.4,0s0.3,0,0.5,0s0.6,0,1.1,0s0.8-0.1,1.2-0.1
			l0,0c0,0,0,0,0.1,0s0.3,0,0.4,0.1c0.1,0,0.2,0.1,0.3,0.1l0.1,0.1v0.1L266.7,27.5z M272,37.3c0,0.2,0,0.3-0.1,0.5s-0.1,0.3-0.2,0.5
			s-0.1,0.3-0.2,0.4c-0.1,0.1-0.1,0.2-0.2,0.2c-0.1,0.1-0.1,0.1-0.2,0.1s-0.1-0.1-0.1-0.1v-8.1l-3.1,0.2c-0.1,0-0.2,0-0.3,0
			c-0.1,0-0.1-0.1-0.2-0.2l-0.4-0.5c-0.1-0.1-0.1-0.1,0-0.2c0.1-0.1,0.2-0.1,0.3-0.1l0.4,0.1c0.1,0,0.2,0,0.3,0c0.1,0,0.2,0,0.3,0
			L271,30v-5.3c0-0.2-0.1-0.4-0.2-0.5s-0.2-0.3-0.4-0.4c-0.1-0.1-0.1-0.2,0-0.4c0.1-0.2,0.2-0.2,0.4-0.2l0.7,0.3
			c0.2,0.1,0.4,0.2,0.4,0.3c0.1,0.1,0.1,0.2,0.1,0.4L272,37.3L272,37.3z"/>
	</g>
</g>
</svg>
