<?xml version="1.0" encoding="utf-8"?>
<!-- Generator: Adobe Illustrator 23.0.1, SVG Export Plug-In . SVG Version: 6.00 Build 0)  -->
<svg version="1.1" id="レイヤー_1" xmlns="http://www.w3.org/2000/svg" xmlns:xlink="http://www.w3.org/1999/xlink" x="0px"
	 y="0px" viewBox="0 0 300 50" style="enable-background:new 0 0 300 50;" xml:space="preserve">
<g>
	<g>
		<path d="M6.4,36.5H4V12.7h7c1.2,0,2.2,0.1,3.2,0.3c1,0.2,1.9,0.6,2.6,1.1s1.3,1.2,1.7,2c0.4,0.8,0.6,1.8,0.6,3
			c0,0.9-0.2,1.7-0.5,2.4s-0.7,1.3-1.3,1.9c-0.5,0.5-1.2,1-1.9,1.3s-1.6,0.5-2.4,0.6l7,11.3h-3l-6.6-11.1h-4V36.5z M6.4,23.3h4.2
			c1.9,0,3.4-0.4,4.5-1.1s1.6-1.8,1.6-3.2c0-0.8-0.1-1.4-0.4-2c-0.3-0.5-0.7-1-1.2-1.3c-0.5-0.3-1.1-0.6-1.9-0.7s-1.6-0.2-2.4-0.2
			H6.4C6.4,14.8,6.4,23.3,6.4,23.3z"/>
		<path d="M24,36.5h-2.6l10.3-23.8H34l10.2,23.8h-2.7l-2.6-6.2H26.6L24,36.5z M27.5,28h10.5l-5.2-12.6L27.5,28z"/>
		<path d="M50.1,34.3h12.7v2.2H47.7V12.7h14.8v2.1H50.1V23h11.5v2.1H50.1V34.3z"/>
		<path d="M79.3,32.4L79.3,32.4l8-19.7H91v23.8h-2.4V15.8h-0.1l-8.6,20.7h-1.3L70,15.8H70v20.7h-2.4V12.7h3.7L79.3,32.4z"/>
		<path d="M99.7,36.5h-2.4V12.7h2.4V36.5z"/>
		<path d="M105.9,36.5h-2.7l10.3-23.8h2.3l10.2,23.8h-2.7l-2.6-6.2h-12.3L105.9,36.5z M109.4,28h10.5l-5.2-12.6L109.4,28z"/>
		<path d="M146.4,33L146.4,33l0.1-20.3h2.4v23.8h-3L132.1,16H132v20.5h-2.4V12.7h3L146.4,33z"/>
	</g>
	<g>
		<path d="M153.1,38.6v-0.7h8.7v0.7H153.1z"/>
		<path d="M164.1,34.5c0,0.1,0,0.1,0.1,0.1c0,0,0.1,0,0.1,0c0.9,0,1.7-0.1,2.5-0.3c0.8-0.2,1.5-0.5,2-0.8c0,0,0.1,0,0.2,0
			c0.1,0,0.2,0,0.3,0.1c0.2,0.1,0.2,0.2,0.2,0.3c0,0.1-0.1,0.2-0.4,0.3c-0.8,0.4-1.5,0.8-2.3,1c-0.8,0.2-1.6,0.3-2.4,0.4
			c-0.1,0-0.2,0-0.3,0s-0.2,0-0.3,0c-0.2,0-0.3-0.1-0.5-0.3s-0.3-0.3-0.3-0.5v-2.7c0-0.1,0-0.2,0-0.3s0-0.2,0-0.2s-0.1-0.1-0.1-0.2
			c-0.1-0.1-0.1-0.1-0.2-0.2c-0.1,0-0.2-0.1-0.3-0.2s-0.1-0.2-0.1-0.3v-0.3l0.9,0.1l3.5-0.1c0.1,0,0.2,0,0.3-0.1s0.1-0.2,0.1-0.3
			l0-2c0-0.1,0-0.2-0.1-0.3s-0.1,0-0.3,0l-2.5,0.1c-0.1,0-0.3,0-0.4,0s-0.3,0-0.4,0c-0.1,0-0.3,0-0.5,0c-0.2,0-0.4,0-0.5-0.1
			c-0.1,0-0.1-0.1-0.1-0.1s0-0.1,0-0.2l0.1-0.6c0.4,0.1,1,0.1,1.6,0.2c0.7,0,1.3,0,2,0l1.6-0.1c0.1,0,0.2,0,0.3,0
			c0.1,0,0.2,0,0.2,0.1c0,0.1,0.1,0.1,0.1,0.2s0,0.1,0,0.3l-0.2,3.5c0,0.2-0.1,0.3-0.2,0.5c-0.1,0.1-0.3,0.1-0.6,0.1l-3.4,0
			c0,0.1,0,0.2,0,0.3c0,0.1,0,0.2,0,0.3L164.1,34.5L164.1,34.5z M171.4,30.4h2.3v-5.5c0-0.2-0.1-0.4-0.1-0.5
			c-0.1-0.1-0.2-0.3-0.4-0.4c-0.1-0.1-0.1-0.2,0-0.4s0.2-0.2,0.4-0.1l0.7,0.3c0.3,0.1,0.4,0.2,0.5,0.3s0.1,0.2,0.1,0.5v13
			c0,0.2,0,0.3-0.1,0.5s-0.1,0.3-0.2,0.5s-0.1,0.3-0.2,0.4c-0.1,0.1-0.1,0.2-0.2,0.2c-0.1,0.1-0.1,0.1-0.2,0.1
			c-0.1,0-0.1-0.1-0.1-0.1v-7.9h-2.3v5.7c0,0.2,0,0.3-0.1,0.5s-0.1,0.3-0.2,0.5c-0.1,0.2-0.1,0.3-0.2,0.4c-0.1,0.1-0.1,0.2-0.2,0.2
			c-0.1,0.1-0.1,0.1-0.2,0.1c-0.1,0-0.1-0.1-0.1-0.1V26c0-0.1,0-0.2-0.1-0.3s-0.1-0.2-0.1-0.2c-0.1-0.1-0.1-0.1-0.2-0.2
			c-0.1-0.1-0.1-0.1-0.2-0.2c-0.1-0.1-0.1-0.2,0-0.4s0.2-0.2,0.4-0.1l0.7,0.3c0.2,0.1,0.4,0.2,0.4,0.3s0.1,0.2,0.1,0.5L171.4,30.4
			L171.4,30.4z"/>
		<path d="M184.7,33.5c0,0.2,0,0.4-0.1,0.5s-0.2,0.2-0.5,0.2l-4.7,0.1c0,0.1,0,0.2,0,0.3c0,0.1-0.1,0.2-0.1,0.2
			c-0.1,0.1-0.1,0.1-0.3,0.1s-0.2,0-0.3,0c-0.1,0-0.1,0-0.1-0.1s-0.1-0.1-0.1-0.2c0-0.1,0-0.2,0-0.3s0-0.2,0-0.2l-0.3-6.2l-0.3-0.6
			c-0.1-0.1-0.1-0.2,0-0.2s0.1-0.1,0.2-0.2c0.1-0.1,0.2-0.1,0.3-0.1s0.1,0,0.2,0.1l0.4,0.5l5.2-0.1c0.1,0,0.2,0,0.3,0
			c0.1,0,0.2,0,0.2,0.1c0,0,0.1,0.1,0.1,0.1s0,0.2,0,0.3L184.7,33.5L184.7,33.5z M183.7,28.5c0-0.1,0-0.2-0.1-0.3s-0.1-0.1-0.3-0.1
			l-3.8,0.1c-0.2,0-0.3,0-0.3,0.1s0,0.2,0,0.3l0.2,4.8l3.9-0.1c0.1,0,0.2,0,0.3-0.1s0.1-0.2,0.1-0.3V28.5z M189.2,37.5
			c0,0.2,0,0.3-0.1,0.5s-0.1,0.3-0.2,0.5c-0.1,0.2-0.1,0.3-0.2,0.4c-0.1,0.1-0.1,0.2-0.2,0.2c-0.1,0.1-0.1,0.1-0.2,0.1
			c-0.1,0-0.1-0.1-0.1-0.1V24.9c0-0.2-0.1-0.4-0.2-0.5c-0.1-0.1-0.2-0.3-0.4-0.4c-0.1-0.1-0.1-0.2,0-0.4s0.2-0.2,0.4-0.1l0.7,0.3
			c0.2,0.1,0.4,0.2,0.4,0.3s0.1,0.2,0.1,0.5L189.2,37.5L189.2,37.5z"/>
		<path d="M192.9,26.4c0.6-0.6,1.4-0.9,2.4-0.9c0.5,0,0.9,0.1,1.4,0.2s0.8,0.4,1.1,0.7s0.5,0.6,0.7,1c0.2,0.4,0.2,0.8,0.2,1.3
			c0,1-0.3,1.8-0.9,2.4c-0.6,0.6-1.4,0.9-2.4,0.9c-1,0-1.8-0.3-2.4-0.8c-0.6-0.6-0.9-1.4-0.9-2.4C192,27.7,192.3,27,192.9,26.4z
			 M193.6,27.1c-0.4,0.5-0.6,1-0.6,1.7c0,0.7,0.2,1.2,0.6,1.7c0.4,0.5,1,0.7,1.8,0.7c0.8,0,1.4-0.2,1.7-0.7c0.4-0.5,0.6-1,0.6-1.7
			c0-0.6-0.2-1.2-0.5-1.7s-0.9-0.7-1.8-0.7C194.6,26.4,194,26.6,193.6,27.1z M196.2,39c-0.1,0-0.3,0-0.4,0c-0.1,0-0.3,0-0.4-0.1
			s-0.2-0.2-0.3-0.3c-0.1-0.1-0.1-0.3-0.1-0.5v-2.5c0-0.2,0-0.4-0.1-0.5s-0.1-0.2-0.3-0.3c-0.1,0-0.2-0.1-0.3-0.1s-0.1-0.1-0.1-0.3
			v-0.4l1,0.1c0.2,0,0.3,0.1,0.4,0.2c0.1,0.1,0.2,0.2,0.2,0.2c0,0.1,0.1,0.2,0.1,0.3s0,0.3,0,0.4v2.5c0,0.2,0,0.3,0.1,0.4
			c0,0.1,0.1,0.1,0.4,0.1h2.6c0.7,0,1.2,0,1.7-0.1c0.4,0,0.8-0.1,1-0.2c0.1,0,0.2,0,0.3-0.1c0.1,0,0.2,0,0.3,0.1l0.7,0.3
			c0.2,0.1,0.3,0.1,0.3,0.2c0,0.1,0.1,0.2,0,0.3c0,0.2-0.1,0.3-0.1,0.3c-0.1,0-0.2,0-0.3,0L196.2,39L196.2,39z M202.8,29.3l0.6,0
			c0.2,0,0.3,0,0.4,0c0.1,0,0.3-0.1,0.6-0.2c0.1,0,0.2-0.1,0.3-0.1s0.1,0,0.2,0c0.1,0,0.1,0,0.2,0c0.1,0,0.1,0,0.2,0.1l0.6,0.3
			c0.1,0.1,0.1,0.1,0.1,0.2c0,0.1,0,0.2-0.1,0.2l-0.1,0.1c-0.1,0.1-0.1,0.2-0.2,0.2c-0.1,0-0.2,0-0.3,0c-0.1,0-0.2,0-0.3,0
			c-0.1,0-0.2,0-0.2,0h-2v3.8c0,0.2,0,0.3-0.1,0.5c-0.1,0.2-0.1,0.3-0.2,0.5s-0.1,0.3-0.2,0.4c-0.1,0.1-0.1,0.2-0.2,0.2
			c-0.1,0.1-0.1,0.1-0.2,0.1c-0.1,0-0.1-0.1-0.1-0.1V24.9c0-0.2-0.1-0.4-0.2-0.5c-0.1-0.1-0.2-0.3-0.4-0.4c-0.1-0.1-0.1-0.2,0-0.4
			s0.2-0.2,0.4-0.1l0.7,0.3c0.3,0.1,0.4,0.2,0.5,0.3s0.1,0.2,0.1,0.5L202.8,29.3L202.8,29.3z"/>
	</g>
</g>
</svg>
