<?xml version="1.0" encoding="utf-8"?>
<!-- Generator: Adobe Illustrator 23.0.1, SVG Export Plug-In . SVG Version: 6.00 Build 0)  -->
<svg version="1.1" id="レイヤー_1" xmlns="http://www.w3.org/2000/svg" xmlns:xlink="http://www.w3.org/1999/xlink" x="0px"
	 y="0px" viewBox="0 0 300 50" style="enable-background:new 0 0 300 50;" xml:space="preserve">
<g>
	<g>
		<path d="M6.4,36.4H4V12.6h2.4C6.4,12.6,6.4,36.4,6.4,36.4z"/>
		<path d="M15.2,23.3L15.2,23.3l11.4-10.7H30L18,23.4l12.7,13h-3.5L15.2,23.7h0v12.7h-2.4V12.6h2.4V23.3z"/>
		<path d="M36.3,34.2H49v2.2H33.8V12.6h14.8v2.1H36.3v8.2h11.5v2.1H36.3V34.2z"/>
		<path d="M53.6,36.4h-2.7l10.3-23.8h2.3l10.2,23.8h-2.7l-2.6-6.3H56.1L53.6,36.4z M57.1,27.9h10.5l-5.2-12.6L57.1,27.9z"/>
	</g>
	<g>
		<path d="M77.1,38.7v-0.7h8.7v0.7H77.1z"/>
		<path d="M87.1,28.3c0.7-0.7,1.5-1,2.6-1c0.5,0,1,0.1,1.5,0.3s0.8,0.4,1.1,0.7c0.3,0.3,0.6,0.7,0.7,1.1c0.2,0.4,0.3,0.9,0.3,1.4
			s-0.1,1-0.3,1.4c-0.2,0.4-0.4,0.8-0.7,1.1c-0.3,0.3-0.7,0.5-1.1,0.7c-0.4,0.2-0.9,0.2-1.4,0.2s-1-0.1-1.4-0.2
			c-0.4-0.2-0.8-0.4-1.2-0.7c-0.3-0.3-0.6-0.7-0.7-1.1c-0.2-0.4-0.3-0.9-0.3-1.4C86.1,29.8,86.5,29,87.1,28.3z M87.9,29
			c-0.4,0.5-0.7,1.1-0.7,1.8c0,0.7,0.2,1.4,0.7,1.8s1.1,0.7,1.9,0.7c0.8,0,1.4-0.2,1.8-0.7c0.4-0.5,0.7-1.1,0.7-1.9
			c0-0.7-0.2-1.3-0.6-1.8s-1.1-0.8-1.9-0.8C89,28.2,88.3,28.5,87.9,29z M97.8,37.6c0,0.2,0,0.3-0.1,0.5s-0.1,0.3-0.2,0.5
			c-0.1,0.2-0.2,0.3-0.2,0.4c-0.1,0.1-0.1,0.2-0.2,0.2c-0.1,0.1-0.1,0.1-0.2,0.1c-0.1,0-0.1-0.1-0.1-0.1V25c0-0.2-0.1-0.4-0.2-0.5
			c-0.1-0.1-0.2-0.3-0.4-0.4c-0.1-0.1-0.1-0.2,0-0.4c0.1-0.2,0.2-0.2,0.3-0.1l0.7,0.3c0.2,0.1,0.4,0.2,0.4,0.3s0.1,0.2,0.1,0.5
			L97.8,37.6L97.8,37.6z"/>
		<path d="M106.6,28c0,0.4-0.1,0.9-0.2,1.5s-0.2,1.3-0.4,2.1c-0.2,0.8-0.3,1.5-0.5,2.3c-0.2,0.8-0.4,1.4-0.6,2
			c-0.1,0.1-0.1,0.2-0.2,0.3s-0.2,0.1-0.3,0c-0.1,0-0.2-0.1-0.3-0.1c-0.1-0.1-0.1-0.2,0-0.3c0.2-0.6,0.4-1.3,0.6-2
			c0.2-0.7,0.4-1.5,0.5-2.2c-0.6,0.1-1.2,0.2-1.8,0.3s-1.3,0.1-2.1,0.1c-0.3,0-0.5,0-0.6,0c-0.2,0-0.2,0-0.3-0.1
			c-0.1,0-0.1-0.1-0.2-0.2c0-0.1,0-0.2,0-0.3l0.1-0.5c0.4,0.1,0.8,0.1,1.1,0.1s0.7,0,1.2,0c0.4,0,0.9,0,1.4-0.1
			c0.5-0.1,1-0.2,1.4-0.3c0.1-0.5,0.2-1,0.2-1.4c0.1-0.5,0.1-0.9,0.1-1.2l-1.5,0c-0.2,0-0.4,0-0.6,0s-0.4,0-0.6,0s-0.4,0-0.6,0
			s-0.4,0-0.7,0c-0.3,0-0.5,0-0.6,0c-0.2,0-0.2,0-0.3-0.1c-0.1,0-0.1-0.1-0.2-0.2s0-0.2,0-0.3l0.1-0.6c0.2,0,0.4,0.1,0.5,0.1
			s0.3,0,0.5,0c0.2,0,0.3,0,0.5,0s0.4,0,0.6,0c0.2,0,0.4,0,0.6,0c0.2,0,0.4,0,0.6,0l1.7-0.1c0,0,0,0,0,0c0,0,0,0,0.1,0
			c0.1,0,0.3,0,0.4,0.1c0.1,0,0.2,0.1,0.3,0.1c0,0,0.1,0.1,0.1,0.1c0,0,0,0.1,0,0.1L106.6,28z M110,37c0,0.2,0,0.3-0.1,0.5
			s-0.1,0.3-0.2,0.5c-0.1,0.2-0.2,0.3-0.2,0.4c-0.1,0.1-0.1,0.2-0.2,0.2c-0.1,0.1-0.1,0.1-0.2,0.1c-0.1,0-0.1-0.1-0.1-0.1v-7.2
			l-1.5,0.1c-0.1,0-0.2,0-0.3,0s-0.1-0.1-0.2-0.2l-0.3-0.5c-0.1-0.1-0.1-0.1,0-0.2s0.2-0.1,0.3-0.1l0.4,0.1c0.1,0,0.2,0,0.3,0
			s0.2,0,0.3,0l1.1,0v-4.5c0-0.1,0-0.2-0.1-0.3c0-0.1-0.1-0.2-0.1-0.2c-0.1-0.1-0.1-0.1-0.2-0.2c-0.1-0.1-0.1-0.1-0.2-0.2
			c-0.1-0.1-0.1-0.2,0-0.4c0.1-0.2,0.2-0.2,0.3-0.1l0.7,0.3c0.2,0.1,0.4,0.2,0.4,0.3c0.1,0.1,0.1,0.2,0.1,0.5L110,37L110,37z
			 M113.1,37.6c0,0.2,0,0.3-0.1,0.5s-0.1,0.3-0.2,0.5s-0.2,0.3-0.2,0.4c-0.1,0.1-0.1,0.2-0.2,0.2c-0.1,0.1-0.1,0.1-0.2,0.1
			c-0.1,0-0.1-0.1-0.1-0.1V25c0-0.2-0.1-0.4-0.2-0.5c-0.1-0.1-0.2-0.3-0.4-0.4c-0.1-0.1-0.1-0.2,0-0.4c0.1-0.2,0.2-0.2,0.4-0.1
			l0.7,0.3c0.3,0.1,0.4,0.2,0.5,0.3c0.1,0.1,0.1,0.2,0.1,0.5V37.6z"/>
		<path d="M116.8,28.3c0.7-0.7,1.5-1,2.6-1c0.5,0,1,0.1,1.5,0.3s0.8,0.4,1.1,0.7c0.3,0.3,0.6,0.7,0.7,1.1c0.2,0.4,0.3,0.9,0.3,1.4
			s-0.1,1-0.3,1.4c-0.2,0.4-0.4,0.8-0.7,1.1c-0.3,0.3-0.7,0.5-1.1,0.7c-0.4,0.2-0.9,0.2-1.4,0.2s-1-0.1-1.4-0.2
			c-0.4-0.2-0.8-0.4-1.2-0.7c-0.3-0.3-0.6-0.7-0.7-1.1c-0.2-0.4-0.3-0.9-0.3-1.4C115.9,29.8,116.2,29,116.8,28.3z M117.6,29
			c-0.4,0.5-0.7,1.1-0.7,1.8c0,0.7,0.2,1.4,0.7,1.8s1.1,0.7,1.9,0.7c0.8,0,1.4-0.2,1.8-0.7c0.4-0.5,0.7-1.1,0.7-1.9
			c0-0.7-0.2-1.3-0.6-1.8s-1.1-0.8-1.9-0.8C118.7,28.2,118.1,28.5,117.6,29z M126.9,31.2l0.8,0c0.2,0,0.3,0,0.4,0
			c0.1,0,0.3-0.1,0.6-0.2c0.1,0,0.2-0.1,0.3-0.1s0.1,0,0.2,0s0.1,0,0.2,0c0.1,0,0.1,0,0.2,0.1l0.6,0.3c0.1,0.1,0.1,0.1,0.1,0.2
			c0,0.1,0,0.2-0.1,0.2l-0.1,0.1c-0.1,0.1-0.1,0.2-0.2,0.2c-0.1,0-0.2,0-0.3,0c-0.1,0-0.2,0-0.3,0c-0.1,0-0.2,0-0.2,0h-2.2v5.6
			c0,0.2,0,0.3-0.1,0.5s-0.1,0.3-0.2,0.5c-0.1,0.2-0.2,0.3-0.2,0.4c-0.1,0.1-0.1,0.2-0.2,0.2c-0.1,0.1-0.1,0.1-0.2,0.1
			c-0.1,0-0.1-0.1-0.1-0.1V25c0-0.2-0.1-0.4-0.2-0.5c-0.1-0.1-0.2-0.3-0.4-0.4c-0.1-0.1-0.1-0.2,0-0.4c0.1-0.2,0.2-0.2,0.3-0.1
			l0.7,0.3c0.2,0.1,0.4,0.2,0.4,0.3c0.1,0.1,0.1,0.2,0.1,0.5L126.9,31.2L126.9,31.2z"/>
	</g>
</g>
</svg>
