<?xml version="1.0" encoding="utf-8"?>
<!-- Generator: Adobe Illustrator 23.0.1, SVG Export Plug-In . SVG Version: 6.00 Build 0)  -->
<svg version="1.1" id="レイヤー_1" xmlns="http://www.w3.org/2000/svg" xmlns:xlink="http://www.w3.org/1999/xlink" x="0px"
	 y="0px" viewBox="0 0 300 50" style="enable-background:new 0 0 300 50;" xml:space="preserve">
<g>
	<g>
		<g>
			<path d="M4,10.9h7.9c1.5,0,3,0.2,4.5,0.7c1.5,0.5,2.8,1.2,4,2.2s2.2,2.2,2.9,3.7c0.7,1.5,1.1,3.2,1.1,5.2s-0.4,3.7-1.1,5.2
				s-1.7,2.7-2.9,3.7c-1.2,1-2.5,1.7-4,2.2s-3,0.7-4.5,0.7H4V10.9z M6.4,32.5h4.8c1.8,0,3.4-0.3,4.7-0.8c1.3-0.6,2.4-1.3,3.3-2.2
				s1.5-1.9,2-3.1c0.4-1.2,0.7-2.4,0.7-3.6s-0.2-2.4-0.7-3.6c-0.4-1.2-1.1-2.2-2-3.1s-2-1.6-3.3-2.2S13,13,11.2,13H6.4V32.5z"/>
			<path d="M44.9,26.8c0,1.2-0.2,2.3-0.6,3.3c-0.4,1-1,1.9-1.7,2.6c-0.7,0.7-1.6,1.3-2.7,1.7c-1,0.4-2.2,0.6-3.4,0.6
				s-2.3-0.2-3.4-0.6c-1-0.4-1.9-1-2.7-1.7c-0.7-0.7-1.3-1.6-1.7-2.6c-0.4-1-0.6-2.1-0.6-3.3s0.2-2.3,0.6-3.3s1-1.9,1.7-2.6
				s1.6-1.3,2.7-1.7c1-0.4,2.2-0.6,3.4-0.6s2.4,0.2,3.4,0.6s1.9,1,2.7,1.7c0.7,0.7,1.3,1.6,1.7,2.6C44.7,24.5,44.9,25.6,44.9,26.8z
				 M42.5,26.8c0-0.9-0.1-1.7-0.4-2.5c-0.3-0.8-0.7-1.4-1.2-2s-1.1-1-1.9-1.4c-0.7-0.3-1.6-0.5-2.5-0.5s-1.7,0.2-2.5,0.5
				s-1.3,0.8-1.9,1.4c-0.5,0.6-0.9,1.2-1.2,2c-0.3,0.8-0.4,1.6-0.4,2.5c0,0.9,0.1,1.7,0.4,2.5s0.7,1.4,1.2,2s1.1,1,1.9,1.3
				c0.7,0.3,1.6,0.5,2.5,0.5s1.7-0.2,2.5-0.5c0.7-0.3,1.4-0.8,1.9-1.3c0.5-0.6,0.9-1.2,1.2-2C42.4,28.5,42.5,27.7,42.5,26.8z"/>
			<path d="M52.1,42.8h-2.3V19h2.3v2.7h0.1c0.6-1,1.5-1.8,2.6-2.3s2.2-0.8,3.3-0.8c1.2,0,2.3,0.2,3.3,0.6s1.8,1,2.6,1.7
				c0.7,0.7,1.3,1.6,1.6,2.6c0.4,1,0.6,2.1,0.6,3.3c0,1.2-0.2,2.3-0.6,3.3S64.7,32,64,32.7s-1.6,1.3-2.6,1.7S59.3,35,58.1,35
				c-1.1,0-2.2-0.3-3.3-0.8s-2-1.3-2.6-2.3h-0.1V42.8z M63.9,26.8c0-0.9-0.1-1.7-0.4-2.5c-0.3-0.8-0.7-1.4-1.2-2s-1.1-1-1.9-1.4
				c-0.7-0.3-1.6-0.5-2.5-0.5s-1.7,0.2-2.4,0.5s-1.4,0.8-1.9,1.3c-0.5,0.6-1,1.2-1.3,2s-0.5,1.6-0.5,2.5s0.2,1.7,0.5,2.5
				c0.3,0.8,0.7,1.4,1.3,2c0.5,0.6,1.2,1,1.9,1.3S57,33,57.9,33s1.8-0.2,2.5-0.5s1.4-0.8,1.9-1.3c0.5-0.6,0.9-1.2,1.2-2
				C63.7,28.5,63.9,27.7,63.9,26.8z"/>
			<path d="M84.1,32c-0.7,1-1.5,1.8-2.6,2.3S79.3,35,78.2,35c-1.2,0-2.3-0.2-3.3-0.6c-1-0.4-1.8-1-2.6-1.7c-0.7-0.7-1.3-1.6-1.6-2.6
				c-0.4-1-0.6-2.1-0.6-3.3s0.2-2.3,0.6-3.3s0.9-1.9,1.6-2.6s1.6-1.3,2.6-1.7c1-0.4,2.1-0.6,3.3-0.6c1.1,0,2.3,0.3,3.3,0.8
				c1.1,0.5,1.9,1.3,2.6,2.3h0.1V9.2h2.3v25.4h-2.3L84.1,32L84.1,32z M72.5,26.8c0,0.9,0.1,1.7,0.4,2.5s0.7,1.4,1.2,2s1.1,1,1.9,1.3
				c0.7,0.3,1.6,0.5,2.5,0.5s1.7-0.2,2.4-0.5c0.7-0.3,1.4-0.8,1.9-1.3s1-1.2,1.3-2s0.5-1.6,0.5-2.5c0-0.9-0.2-1.7-0.5-2.5
				s-0.7-1.4-1.3-2c-0.5-0.6-1.2-1-1.9-1.3c-0.7-0.3-1.5-0.5-2.4-0.5S76.7,20.7,76,21s-1.4,0.8-1.9,1.4s-0.9,1.2-1.2,2
				C72.6,25,72.5,26,72.5,26.8z"/>
			<path d="M102.5,24.5c0-1.4-0.4-2.4-1.1-3c-0.7-0.7-1.8-1-3.1-1c-0.9,0-1.8,0.2-2.6,0.5c-0.8,0.3-1.5,0.8-2.1,1.3l-1.3-1.5
				c0.6-0.6,1.5-1.2,2.6-1.6s2.3-0.6,3.6-0.6c0.9,0,1.6,0.1,2.4,0.4c0.7,0.2,1.4,0.6,1.9,1.1c0.6,0.5,1,1.1,1.3,1.8
				c0.3,0.7,0.5,1.6,0.5,2.5v6.9c0,0.6,0,1.2,0.1,1.9c0,0.6,0.1,1.2,0.2,1.6h-2c-0.1-0.4-0.1-0.8-0.2-1.2c0-0.4-0.1-0.9-0.1-1.3
				h-0.1c-0.7,1.1-1.5,1.8-2.4,2.3s-2,0.7-3.3,0.7c-0.6,0-1.2-0.1-1.9-0.3s-1.2-0.4-1.7-0.8s-1-0.9-1.3-1.5s-0.5-1.3-0.5-2.2
				c0-1.2,0.3-2.2,0.9-2.9s1.4-1.2,2.5-1.6c1-0.3,2.2-0.6,3.5-0.7s2.7-0.2,4.2-0.2V24.5z M101.8,26.8c-0.9,0-1.9,0-2.8,0.1
				c-1,0.1-1.8,0.2-2.6,0.5c-0.8,0.2-1.4,0.6-1.9,1s-0.7,1-0.7,1.8c0,0.6,0.1,1,0.3,1.4c0.2,0.4,0.5,0.7,0.9,0.9s0.8,0.4,1.2,0.5
				c0.4,0.1,0.9,0.2,1.3,0.2c0.8,0,1.5-0.1,2.1-0.4c0.6-0.3,1.2-0.7,1.6-1.1c0.4-0.5,0.7-1,1-1.7c0.2-0.6,0.3-1.3,0.3-2v-1.2H101.8z
				"/>
		</g>
	</g>
	<g>
		<path d="M110.3,36.8V36h8.7v0.7H110.3z"/>
		<path d="M122.5,30.2l-1.9,0.1c-0.1,0-0.2,0-0.3,0c-0.1,0-0.3,0-0.4,0s-0.2,0-0.4,0c-0.1,0-0.2,0-0.3-0.1c-0.1,0-0.1-0.1-0.2-0.2
			c0-0.1,0-0.2,0-0.3l0.1-0.6c0.2,0.1,0.5,0.1,0.8,0.1s0.7,0.1,1,0.1s0.6,0,0.9,0s0.5,0,0.6,0c0.7,0,1.3,0,1.9,0s1.2,0,1.7,0v-0.4
			c0-0.2,0-0.4-0.1-0.5c0-0.1-0.1-0.2-0.3-0.2c-0.1,0-0.2-0.1-0.2-0.1c-0.1-0.1-0.1-0.2-0.1-0.3v-0.3l1.1,0.1c0.3,0,0.4,0.1,0.5,0.3
			c0.1,0.1,0.1,0.3,0.1,0.4v1l2.2-0.1c0.2,0,0.4,0,0.6,0c0.3,0,0.5,0,0.8,0c0.2,0,0.5,0,0.7,0s0.3,0,0.4,0c0.3,0,0.6-0.1,0.8-0.1
			s0.4,0,0.5,0.1l0.6,0.5c0.1,0.1,0.1,0.1,0.1,0.2s0,0.1,0,0.2c0,0.1-0.1,0.1-0.1,0.2c-0.1,0.1-0.1,0.1-0.2,0.1l-1.1-0.2
			c-0.2,0-0.5,0-0.8,0s-0.6,0-0.9,0c-0.3,0-0.6,0-0.9,0c-0.3,0-0.6,0-0.8,0H122.5z M122.7,24.1c0-0.2,0-0.4-0.1-0.5
			c0-0.1-0.2-0.2-0.3-0.2c-0.1,0-0.2-0.1-0.3-0.2c-0.1-0.1-0.1-0.2-0.1-0.4v-0.4l1.3,0.1h0.4c0.2,0,0.5,0,1.1,0c0.5,0,1.1,0,1.7-0.1
			c0.6,0,1.1,0,1.6-0.1c0.5,0,0.7,0,0.8,0c0.2,0,0.4,0,0.5-0.1c0.1,0,0.2,0,0.3,0s0.1,0,0.2,0c0,0,0.1,0,0.2,0.1l0.3,0.2
			c0.2,0.1,0.3,0.2,0.3,0.2c0,0.1,0,0.1,0,0.2c-0.1,0.2-0.1,0.3-0.2,0.3c-0.1,0-0.2,0-0.4,0h-6.1c0,0.1,0,0.2,0,0.2
			c0,0.1,0,0.2,0,0.2v1.7c0,0.2,0,0.3,0.1,0.4c0,0.1,0.2,0.1,0.4,0.1h2.7c0.5,0,1,0,1.4-0.1s0.8-0.1,0.9-0.1c0.1,0,0.2,0,0.3,0
			s0.2,0,0.3,0.1l0.5,0.2c0.2,0.1,0.3,0.1,0.3,0.2s0,0.2,0,0.3c0,0.1-0.1,0.2-0.2,0.3c-0.1,0-0.2,0-0.3,0h-6.2c-0.1,0-0.3,0-0.4,0
			s-0.3-0.1-0.4-0.1c-0.1-0.1-0.2-0.2-0.3-0.3c-0.1-0.1-0.1-0.3-0.1-0.5v-1.7H122.7z M122.7,33.2c0-0.3,0-0.5-0.1-0.6
			s-0.1-0.2-0.3-0.3c-0.1,0-0.2-0.1-0.2-0.1s0-0.1,0-0.3v-0.3l0.9,0.1c0.4,0,0.6,0.2,0.6,0.4c0.1,0.2,0.1,0.5,0.1,0.8l0.1,3.4
			l5.5-0.1c0.1,0,0.2,0,0.3-0.1s0.1-0.2,0.1-0.3v-1.4l-4.6,0.1c-0.1,0-0.2,0-0.3,0c-0.1,0-0.1-0.1-0.2-0.2l-0.4-0.5
			c-0.1-0.1-0.1-0.1,0-0.2c0.1-0.1,0.2-0.1,0.3-0.1l0.4,0.1c0.1,0,0.2,0,0.3,0c0.1,0,0.2,0,0.3,0l4.2-0.1v-0.7c0-0.3,0-0.5-0.1-0.6
			c0-0.1-0.1-0.2-0.3-0.3c-0.1,0-0.2-0.1-0.2-0.1c0-0.1,0-0.2,0-0.3v-0.2l0.9,0.1c0.4,0,0.6,0.2,0.6,0.4c0.1,0.2,0.1,0.5,0.1,0.8v4
			c0,0.2-0.1,0.4-0.2,0.5c-0.1,0.1-0.3,0.2-0.6,0.2l-6.2,0.1v0.1c0,0.1,0,0.2-0.1,0.3s-0.1,0.2-0.1,0.2c-0.1,0.1-0.2,0.1-0.3,0.1
			c-0.1,0-0.2,0-0.2,0s-0.1,0-0.1-0.1c0,0-0.1-0.1-0.1-0.2c0-0.1-0.1-0.2-0.1-0.3s0-0.2,0-0.3L122.7,33.2z"/>
		<path d="M135.6,26.8c0-0.3,0-0.5,0-0.6s-0.1-0.2-0.3-0.2c-0.1,0-0.1-0.1-0.2-0.1c0,0-0.1,0-0.1-0.1v-0.1c0,0,0-0.1,0-0.2v-0.3
			l0.7,0.1h2.8c0.1,0,0.3,0,0.5,0s0.5,0,0.7,0c0.3,0,0.5,0,0.7-0.1c0.2,0,0.4-0.1,0.6-0.1c0.1,0,0.2,0,0.3,0s0.1,0,0.2,0.1l0.3,0.2
			c0.2,0.1,0.3,0.2,0.3,0.3c0,0.1,0,0.1,0,0.2c-0.1,0.2-0.2,0.3-0.3,0.3s-0.2,0-0.3,0h-5c0,0.1,0,0.1,0,0.2s0,0.1,0,0.2v5.6
			c0,0.1,0,0.1,0.1,0.2s0.1,0.1,0.1,0.1c0.5,0,1.1-0.1,1.7-0.1c0.6-0.1,1.2-0.2,1.7-0.3c0.6-0.1,1.1-0.3,1.6-0.4
			c0.5-0.2,0.9-0.3,1.2-0.5c0,0,0.1,0,0.2,0c0.1,0,0.2,0,0.3,0.1c0.2,0.1,0.2,0.2,0.2,0.3s-0.1,0.2-0.3,0.3
			c-0.4,0.2-0.9,0.5-1.4,0.6c-0.5,0.2-1,0.3-1.6,0.4c-0.6,0.1-1.1,0.2-1.7,0.3c-0.6,0.1-1.2,0.1-1.7,0.2c-0.1,0-0.2,0-0.3,0
			s-0.2,0-0.3,0c-0.2,0-0.3-0.1-0.5-0.3s-0.3-0.3-0.3-0.5v-5.8H135.6z M145.8,29.5h0.7c0.2,0,0.3,0,0.4,0c0.1,0,0.3-0.1,0.6-0.2
			c0.1,0,0.2-0.1,0.3-0.1s0.2,0,0.2,0c0.1,0,0.1,0,0.2,0c0.1,0,0.1,0,0.2,0.1l0.6,0.4c0.1,0.1,0.1,0.1,0.1,0.2c0,0.1,0,0.2-0.1,0.2
			v0.1c-0.1,0.1-0.1,0.1-0.2,0.2c-0.1,0-0.2,0-0.3,0s-0.2,0-0.3,0s-0.2,0-0.3,0h-2.1v5.3c0,0.2,0,0.3-0.1,0.5s-0.1,0.3-0.2,0.5
			c-0.1,0.2-0.2,0.3-0.2,0.4c-0.1,0.1-0.1,0.2-0.2,0.2c-0.1,0.1-0.1,0.1-0.2,0.1c-0.1,0-0.1-0.1-0.1-0.1V23c0-0.2-0.1-0.4-0.2-0.5
			c-0.1-0.1-0.2-0.3-0.4-0.4c-0.1-0.1-0.1-0.2,0-0.4c0.1-0.2,0.2-0.2,0.4-0.2l0.7,0.3c0.2,0.1,0.4,0.2,0.4,0.3
			c0.1,0.1,0.1,0.2,0.1,0.4L145.8,29.5L145.8,29.5z"/>
	</g>
</g>
</svg>
