<?xml version="1.0" encoding="utf-8"?>
<!-- Generator: Adobe Illustrator 23.0.1, SVG Export Plug-In . SVG Version: 6.00 Build 0)  -->
<svg version="1.1" id="レイヤー_1" xmlns="http://www.w3.org/2000/svg" xmlns:xlink="http://www.w3.org/1999/xlink" x="0px"
	 y="0px" viewBox="0 0 300 50" style="enable-background:new 0 0 300 50;" xml:space="preserve">
<g>
	<g>
		<path d="M4,12.7h6.7c1.2,0,2.3,0.1,3.3,0.4c1,0.3,1.8,0.6,2.5,1.2c0.7,0.5,1.2,1.2,1.6,2c0.4,0.8,0.6,1.7,0.6,2.8s-0.2,2-0.6,2.8
			s-0.9,1.5-1.6,2C15.8,24.4,15,24.8,14,25c-1,0.3-2.1,0.4-3.3,0.4H6.4v11.1H4V12.7z M6.4,23.4h4.1c1.9,0,3.3-0.4,4.3-1.1
			c1-0.7,1.5-1.8,1.5-3.2c0-1.5-0.5-2.6-1.5-3.2c-1-0.7-2.4-1-4.3-1H6.4C6.4,14.8,6.4,23.4,6.4,23.4z"/>
		<path d="M23.3,36.5h-2.7L31,12.7h2.3l10.2,23.8h-2.7l-2.6-6.3H25.9L23.3,36.5z M26.8,28h10.5l-5.2-12.6L26.8,28z"/>
		<path d="M55.2,36.5h-2.4V26.3l-8.9-13.5h3L54,24.2l7.2-11.5h2.8l-8.9,13.5C55.2,26.3,55.2,36.5,55.2,36.5z"/>
		<path d="M69.7,34.3h11.1v2.2H67.2V12.7h2.4V34.3z"/>
		<path d="M86.8,34.3h12.7v2.2H84.4V12.7h14.8v2.1H86.8V23h11.5v2.1H86.8V34.3z"/>
		<path d="M111.9,36.5h-2.4V14.9h-8v-2.1h18.3v2.1h-8L111.9,36.5L111.9,36.5z"/>
		<path d="M131.1,36.5h-2.4V14.9h-8v-2.1H139v2.1h-8L131.1,36.5L131.1,36.5z"/>
		<path d="M145,34.3h12.7v2.2h-15.1V12.7h14.8v2.1H145V23h11.5v2.1H145V34.3z"/>
		<path d="M164.9,36.5h-2.4V12.7h7c1.2,0,2.2,0.1,3.2,0.3c1,0.2,1.9,0.6,2.6,1.1s1.3,1.2,1.7,2c0.4,0.8,0.6,1.8,0.6,3
			c0,0.9-0.2,1.7-0.5,2.4s-0.7,1.3-1.3,1.9c-0.5,0.5-1.2,1-1.9,1.3s-1.6,0.5-2.4,0.6l7,11.3h-3l-6.6-11.1h-4L164.9,36.5L164.9,36.5z
			 M164.9,23.3h4.2c1.9,0,3.4-0.4,4.5-1.1s1.6-1.8,1.6-3.2c0-0.8-0.1-1.4-0.4-2c-0.3-0.5-0.7-1-1.2-1.3c-0.5-0.3-1.1-0.6-1.9-0.7
			s-1.6-0.2-2.4-0.2h-4.3L164.9,23.3L164.9,23.3z"/>
	</g>
	<g>
		<path d="M185.6,38.6v-0.7h8.7v0.7H185.6z"/>
		<path d="M198.4,29.3c-0.1-0.1-0.1-0.2-0.1-0.3l0-0.3l1,0.1c0.3,0,0.4,0.1,0.5,0.3s0.1,0.3,0.1,0.4v4.3c0.3-0.1,0.5-0.1,0.8-0.2
			c0.3-0.1,0.6-0.2,0.8-0.3c0,0,0.1,0,0.2,0s0.2,0.1,0.2,0.1c0.1,0.1,0.2,0.2,0.2,0.3c0,0.1,0,0.2-0.1,0.2c-0.8,0.3-1.6,0.6-2.4,0.8
			s-1.6,0.3-2.4,0.4c-0.3,0-0.7,0.1-1.2,0.1c-0.5,0-0.9,0-1.2,0c-0.1,0-0.2,0-0.4,0c-0.1,0-0.3,0-0.4-0.1c-0.1,0-0.1-0.1-0.1-0.1
			s0-0.2,0-0.3L194,34c0.3,0.1,0.6,0.1,0.9,0.1c0.3,0,0.6,0,1,0v-3.5c0-0.2,0-0.4-0.1-0.5c0-0.1-0.1-0.2-0.3-0.2
			c-0.1,0-0.2-0.1-0.2-0.1c-0.1-0.1-0.1-0.2-0.1-0.3l0-0.3l1,0.1c0.3,0,0.4,0.1,0.5,0.3c0.1,0.2,0.1,0.3,0.1,0.4v4.2l0.3,0
			c0.3,0,0.6,0,0.9-0.1c0.3,0,0.6-0.1,0.9-0.2v-3.7c0-0.2,0-0.4-0.1-0.5c0-0.1-0.1-0.2-0.3-0.2C198.5,29.4,198.4,29.3,198.4,29.3z
			 M195.4,28.2c-0.3,0-0.5,0-0.7,0s-0.3-0.1-0.4-0.1c-0.1,0-0.1-0.1-0.1-0.1c0-0.1,0-0.1,0-0.2l0.1-0.6c0.4,0.1,0.8,0.1,1.2,0.1
			c0.4,0,0.8,0,1.2,0c0.3,0,0.6,0,0.8,0c0.2,0,0.4,0,0.7,0c0.2,0,0.4,0,0.6-0.1s0.5-0.1,0.7-0.1c0.4,0,0.6-0.1,0.7,0
			c0.1,0,0.2,0,0.4,0.1l0.4,0.2c0.1,0.1,0.2,0.2,0.2,0.2c0,0.1,0,0.2-0.1,0.3c-0.1,0.1-0.1,0.2-0.2,0.2c-0.1,0-0.1,0-0.2,0
			c-0.1,0-0.2,0-0.4-0.1c-0.2,0-0.3,0-0.5-0.1c-0.3,0-0.7,0-1,0c-0.4,0-0.7,0-1.2,0L195.4,28.2z M204.1,36.9c0,0.2,0,0.3-0.1,0.5
			s-0.1,0.3-0.2,0.5c-0.1,0.2-0.1,0.3-0.2,0.4c-0.1,0.1-0.1,0.2-0.2,0.2c-0.1,0.1-0.1,0.1-0.2,0.1c-0.1,0-0.1-0.1-0.1-0.1v-7.5
			l-1.5,0.1c-0.1,0-0.2,0-0.3,0s-0.1-0.1-0.2-0.2l-0.4-0.5c-0.1-0.1-0.1-0.1,0-0.2s0.2-0.1,0.3-0.1l0.4,0.1c0.1,0,0.2,0,0.3,0
			s0.2,0,0.3,0l1.1,0V26c0-0.1,0-0.2-0.1-0.3s-0.1-0.2-0.1-0.2c-0.1-0.1-0.1-0.1-0.2-0.2c-0.1-0.1-0.1-0.1-0.2-0.2
			c-0.1-0.1-0.1-0.2,0-0.4s0.2-0.2,0.4-0.1l0.7,0.3c0.2,0.1,0.4,0.2,0.4,0.3c0.1,0.1,0.1,0.2,0.1,0.5L204.1,36.9L204.1,36.9z
			 M207.1,37.6c0,0.2,0,0.3-0.1,0.5s-0.1,0.3-0.2,0.5s-0.1,0.3-0.2,0.4c-0.1,0.1-0.1,0.2-0.2,0.2c-0.1,0.1-0.1,0.1-0.2,0.1
			c-0.1,0-0.1-0.1-0.1-0.1V24.9c0-0.2-0.1-0.4-0.1-0.5c-0.1-0.1-0.2-0.3-0.4-0.4c-0.1-0.1-0.1-0.2,0-0.4s0.2-0.2,0.4-0.1l0.7,0.3
			c0.3,0.1,0.4,0.2,0.5,0.3s0.1,0.2,0.1,0.5L207.1,37.6L207.1,37.6z"/>
		<path d="M210.9,28.2c0.6-0.7,1.5-1,2.6-1c0.5,0,1,0.1,1.5,0.3s0.8,0.4,1.1,0.7c0.3,0.3,0.6,0.7,0.7,1.1c0.2,0.4,0.3,0.9,0.3,1.4
			s-0.1,1-0.3,1.4c-0.2,0.4-0.4,0.8-0.7,1.1c-0.3,0.3-0.7,0.5-1.1,0.7c-0.4,0.2-0.9,0.2-1.4,0.2s-1-0.1-1.4-0.2s-0.8-0.4-1.1-0.7
			c-0.3-0.3-0.6-0.7-0.7-1.1c-0.2-0.4-0.3-0.9-0.3-1.4C210,29.7,210.3,28.9,210.9,28.2z M211.7,28.9c-0.4,0.5-0.7,1.1-0.7,1.8
			c0,0.7,0.2,1.4,0.7,1.8s1.1,0.7,1.9,0.7c0.8,0,1.4-0.2,1.9-0.7c0.4-0.5,0.7-1.1,0.7-1.9c0-0.7-0.2-1.3-0.6-1.8s-1.1-0.8-1.9-0.8
			C212.8,28.1,212.2,28.4,211.7,28.9z M221.6,37.6c0,0.2,0,0.3-0.1,0.5s-0.1,0.3-0.2,0.5c-0.1,0.2-0.1,0.3-0.2,0.4
			c-0.1,0.1-0.1,0.2-0.2,0.2c-0.1,0.1-0.1,0.1-0.2,0.1c-0.1,0-0.1-0.1-0.1-0.1V24.9c0-0.2-0.1-0.4-0.2-0.5c-0.1-0.1-0.2-0.3-0.4-0.4
			c-0.1-0.1-0.1-0.2,0-0.4s0.2-0.2,0.4-0.1l0.7,0.3c0.2,0.1,0.4,0.2,0.4,0.3s0.1,0.2,0.1,0.5L221.6,37.6L221.6,37.6z"/>
		<path d="M226.4,34.5c0,0.1,0,0.1,0.1,0.1c0,0,0.1,0,0.1,0c0.4,0,0.9,0,1.3-0.1c0.4-0.1,0.9-0.1,1.3-0.2c0.4-0.1,0.8-0.2,1.2-0.3
			c0.4-0.1,0.7-0.3,1-0.4c0,0,0.1,0,0.2,0c0.1,0,0.2,0,0.3,0.1c0.2,0.1,0.2,0.2,0.2,0.3c0,0.1-0.1,0.2-0.4,0.3
			c-0.8,0.4-1.6,0.8-2.5,1c-0.9,0.2-1.8,0.3-2.6,0.4c-0.1,0-0.2,0-0.3,0s-0.2,0-0.3,0c-0.2,0-0.3-0.1-0.5-0.3s-0.3-0.3-0.3-0.5v-2.7
			c0-0.1,0-0.2,0-0.3s0-0.2,0-0.2s-0.1-0.1-0.1-0.2c-0.1-0.1-0.1-0.1-0.2-0.2c-0.1,0-0.2-0.1-0.3-0.2s-0.1-0.2-0.1-0.3v-0.3l0.9,0.1
			l3.3-0.1c0.1,0,0.2,0,0.3-0.1s0.1-0.2,0.1-0.3l0-2c0-0.1,0-0.2-0.1-0.3s-0.1,0-0.3,0l-2.3,0.1c-0.1,0-0.3,0-0.4,0s-0.3,0-0.4,0
			c-0.1,0-0.3,0-0.5,0s-0.4,0-0.5-0.1c-0.1,0-0.1-0.1-0.1-0.1s0-0.1,0-0.2l0.1-0.6c0.4,0.1,1,0.1,1.6,0.2c0.7,0,1.3,0,2,0l1.4-0.1
			c0.1,0,0.2,0,0.3,0c0.1,0,0.2,0,0.2,0.1c0,0.1,0.1,0.1,0.1,0.2c0,0.1,0,0.1,0,0.3l-0.2,3.4c0,0.2-0.1,0.3-0.2,0.5
			c-0.1,0.1-0.3,0.1-0.6,0.1l-3.2,0c0,0.1,0,0.2,0,0.3c0,0.1,0,0.2,0,0.3L226.4,34.5L226.4,34.5z M234.2,36.9c0,0.2,0,0.3-0.1,0.5
			s-0.1,0.3-0.2,0.5c-0.1,0.2-0.1,0.3-0.2,0.4c-0.1,0.1-0.1,0.2-0.2,0.2c-0.1,0.1-0.1,0.1-0.2,0.1c-0.1,0-0.1-0.1-0.1-0.1v-7.4
			l-1.5,0.1c-0.1,0-0.2,0-0.3,0s-0.1-0.1-0.2-0.2l-0.4-0.5c-0.1-0.1-0.1-0.1,0-0.2s0.2-0.1,0.3-0.1l0.4,0.1c0.1,0,0.2,0,0.3,0
			s0.2,0,0.3,0l1.1,0V26c0-0.1,0-0.2-0.1-0.3s-0.1-0.2-0.1-0.2c-0.1-0.1-0.1-0.1-0.2-0.2c-0.1-0.1-0.1-0.1-0.2-0.2
			c-0.1-0.1-0.1-0.2,0-0.4s0.2-0.2,0.4-0.1l0.7,0.3c0.2,0.1,0.4,0.2,0.4,0.3c0.1,0.1,0.1,0.2,0.1,0.5L234.2,36.9L234.2,36.9z
			 M237.1,37.6c0,0.2,0,0.3-0.1,0.5s-0.1,0.3-0.2,0.5s-0.1,0.3-0.2,0.4c-0.1,0.1-0.1,0.2-0.2,0.2c-0.1,0.1-0.1,0.1-0.2,0.1
			c-0.1,0-0.1-0.1-0.1-0.1V24.9c0-0.2-0.1-0.4-0.1-0.5c-0.1-0.1-0.2-0.3-0.4-0.4c-0.1-0.1-0.1-0.2,0-0.4s0.2-0.2,0.4-0.1l0.7,0.3
			c0.3,0.1,0.4,0.2,0.5,0.3s0.1,0.2,0.1,0.5L237.1,37.6L237.1,37.6z"/>
		<path d="M241,28.2c0-0.3,0-0.5-0.1-0.6c0-0.1-0.1-0.2-0.3-0.2c-0.1,0-0.1,0-0.1-0.1s-0.1-0.1-0.1-0.1c0,0,0-0.1,0-0.1
			c0,0,0-0.1,0-0.2v-0.3l0.7,0.1h2.8c0.1,0,0.3,0,0.5,0s0.5,0,0.7,0c0.3,0,0.5,0,0.8-0.1c0.2,0,0.4-0.1,0.6-0.1c0.1,0,0.2,0,0.3,0
			c0.1,0,0.1,0,0.2,0.1l0.3,0.2c0.2,0.1,0.3,0.2,0.3,0.3s0,0.1,0,0.2c-0.1,0.2-0.2,0.3-0.3,0.3c-0.1,0-0.2,0-0.4,0H242
			c0,0.1,0,0.1,0,0.2c0,0.1,0,0.1,0,0.2v2.5c0.2,0,0.5,0,0.9,0c0.3,0,0.7,0,1,0c0.3,0,0.6,0,0.9,0c0.3,0,0.4,0,0.5,0
			c0.2,0,0.3,0,0.4,0c0.1,0,0.2,0,0.3,0c0.1,0,0.2,0,0.2,0s0.1,0,0.2,0l0.3,0.2c0.2,0.1,0.3,0.2,0.3,0.2s0,0.2,0,0.2
			c-0.1,0.2-0.2,0.2-0.2,0.3s-0.2,0-0.4,0h-4.4v3c0,0.1,0,0.1,0.1,0.2c0.1,0,0.1,0,0.1,0c0.6,0,1.1,0,1.7-0.1c0.6,0,1.2-0.1,1.7-0.2
			c0.6-0.1,1.1-0.2,1.6-0.3c0.5-0.1,0.9-0.2,1.3-0.4c0.1,0,0.1,0,0.2,0c0.1,0,0.2,0,0.3,0.1c0.2,0.1,0.2,0.2,0.2,0.3
			s-0.1,0.2-0.4,0.3c-0.9,0.4-1.9,0.8-3.1,0.9s-2.3,0.3-3.4,0.4c-0.1,0-0.1,0-0.3,0s-0.2,0-0.3,0c-0.2,0-0.3-0.1-0.5-0.3
			s-0.3-0.3-0.3-0.5L241,28.2L241,28.2z M251.9,37.6c0,0.2,0,0.3-0.1,0.5s-0.1,0.3-0.2,0.5c-0.1,0.2-0.1,0.3-0.2,0.4
			s-0.1,0.2-0.2,0.2c-0.1,0.1-0.1,0.1-0.2,0.1c-0.1,0-0.1-0.1-0.1-0.1v-8.3l-2.3,0.1c-0.1,0-0.2,0-0.3,0c-0.1,0-0.1-0.1-0.2-0.2
			l-0.4-0.5c0-0.1,0-0.1,0-0.2s0.1-0.1,0.3-0.1l0.4,0.1c0.1,0,0.2,0,0.3,0c0.1,0,0.2,0,0.3,0l1.9-0.1v-5.1c0-0.2-0.1-0.4-0.1-0.5
			c-0.1-0.1-0.2-0.3-0.4-0.4c-0.1-0.1-0.1-0.2,0-0.4s0.2-0.2,0.4-0.1l0.7,0.3c0.2,0.1,0.4,0.2,0.4,0.3s0.1,0.2,0.1,0.5L251.9,37.6
			L251.9,37.6z"/>
	</g>
</g>
</svg>
