<?xml version="1.0" encoding="utf-8"?>
<!-- Generator: Adobe Illustrator 23.0.1, SVG Export Plug-In . SVG Version: 6.00 Build 0)  -->
<svg version="1.1" id="レイヤー_1" xmlns="http://www.w3.org/2000/svg" xmlns:xlink="http://www.w3.org/1999/xlink" x="0px"
	 y="0px" viewBox="0 0 300 50" style="enable-background:new 0 0 300 50;" xml:space="preserve">
<g>
	<g>
		<path d="M6.4,23.1L6.4,23.1l11.3-10.7h3.5l-12,10.8l12.7,13h-3.6L6.5,23.6h0v12.7H4V12.4h2.4C6.4,12.4,6.4,23.1,6.4,23.1z"/>
		<path d="M27.5,36.2h-2.4V12.4h2.4V36.2z"/>
		<path d="M50.7,32.7L50.7,32.7l0.1-20.3h2.4v23.8h-3L36.3,15.8h-0.1v20.5h-2.4V12.4h3L50.7,32.7z"/>
		<path d="M61.9,36.2h-2.4V12.4h14.3v2.1H61.9v8.2H73V25H61.9V36.2z"/>
		<path d="M78.2,36.2h-2.7l10.3-23.8h2.3l10.2,23.8h-2.7L93.1,30H80.8L78.2,36.2z M81.7,27.8h10.5L87,15.1L81.7,27.8z"/>
	</g>
	<g>
		<path d="M104.3,38.3v-0.7h8.7v0.7H104.3z"/>
		<path d="M119.8,28.5c-0.2,0.5-0.4,1-0.6,1.4l2.4,2.4c0.1,0.1,0.2,0.2,0.2,0.2c0.1,0.1,0.1,0.1,0.2,0.2c0.1,0,0.1,0.1,0.2,0.1
			s0.2,0.1,0.2,0.2c0.2,0.1,0.3,0.2,0.3,0.3s0.2,0.2,0.2,0.5l0.2,0.5c0,0.2,0,0.2,0,0.3c0,0.1-0.1,0.1-0.2,0.2
			c-0.1,0.1-0.2,0.1-0.3,0.1c-0.1,0-0.2-0.1-0.2-0.2l-3.7-4.1c-0.3,0.5-0.6,1-1,1.5c-0.3,0.5-0.7,0.9-1,1.2
			c-0.3,0.4-0.6,0.7-0.9,0.9c-0.3,0.2-0.5,0.5-0.7,0.6c-0.1,0.1-0.1,0.1-0.2,0.1s-0.1,0-0.2,0c-0.1,0-0.2,0-0.2-0.1
			c-0.1,0-0.1-0.1-0.2-0.2c0-0.1,0-0.1,0-0.2c0-0.1,0.1-0.1,0.1-0.1c0.3-0.2,0.7-0.6,1.2-1.1s0.9-1.1,1.4-1.7s0.8-1.4,1.2-2.1
			c0.3-0.8,0.6-1.5,0.7-2.3c0-0.1,0-0.1,0-0.2c0-0.1-0.1-0.1-0.2-0.2l-0.3-0.2c-0.1-0.1-0.1-0.2-0.1-0.4c0.1-0.2,0.2-0.2,0.3-0.2
			c0.1,0,0.2,0.1,0.3,0.1c0.1,0,0.2,0.1,0.3,0.1c0.1,0,0.2,0.1,0.3,0.1s0.2,0.1,0.3,0.1c0.1,0.1,0.2,0.2,0.2,0.3c0,0.1,0,0.3,0,0.6
			C120.1,27.5,120,28,119.8,28.5z M127.1,37.3c0,0.2,0,0.3-0.1,0.5s-0.1,0.3-0.2,0.5c-0.1,0.2-0.1,0.3-0.2,0.4s-0.1,0.2-0.2,0.2
			c-0.1,0.1-0.1,0.1-0.2,0.1c-0.1,0-0.1-0.1-0.1-0.1V30l-3.3,0.2c-0.1,0-0.2,0-0.3,0s-0.1-0.1-0.2-0.2l-0.3-0.5
			c-0.1-0.1-0.1-0.1,0-0.2c0.1-0.1,0.2-0.1,0.3-0.1l0.4,0.1c0.1,0,0.2,0,0.3,0s0.2,0,0.3,0l2.9-0.1v-4.5c0-0.2-0.1-0.4-0.2-0.5
			c-0.1-0.1-0.2-0.3-0.4-0.4c-0.1-0.1-0.1-0.2,0-0.4c0.1-0.2,0.2-0.2,0.3-0.1l0.7,0.3c0.2,0.1,0.4,0.2,0.4,0.3
			c0.1,0.1,0.1,0.2,0.1,0.5L127.1,37.3L127.1,37.3z"/>
		<path d="M137.4,30.7c0,0.2,0,0.4-0.1,0.5s-0.2,0.2-0.5,0.2l-4.4,0.1c0,0.1,0,0.2,0,0.3c0,0.1-0.1,0.2-0.1,0.2
			c-0.1,0.1-0.2,0.1-0.3,0.1c-0.1,0-0.2,0-0.3,0c-0.1,0-0.1,0-0.1-0.1c-0.1,0-0.1-0.1-0.1-0.2l0-0.5l-0.3-5.2l-0.3-0.6
			c-0.1-0.1-0.1-0.2,0-0.2s0.1-0.1,0.2-0.2c0.1-0.1,0.2-0.1,0.3-0.1s0.1,0,0.2,0.1l0.4,0.5l4.9-0.1c0.1,0,0.2,0,0.3,0
			c0.1,0,0.2,0,0.2,0.1c0,0,0.1,0.1,0.1,0.1s0,0.2,0,0.3L137.4,30.7L137.4,30.7z M136.4,26.6c0-0.1,0-0.2-0.1-0.3s-0.1-0.1-0.3-0.1
			l-3.5,0.1c-0.2,0-0.3,0-0.3,0.1s0,0.2,0,0.3l0.2,3.9l3.6-0.1c0.1,0,0.2,0,0.3-0.1s0.1-0.2,0.1-0.3V26.6z M135.2,38.8
			c-0.1,0-0.3,0-0.4,0s-0.3-0.1-0.4-0.1s-0.2-0.2-0.3-0.3S134,38,134,37.8v-2.5c0-0.2,0-0.4-0.1-0.6c0-0.1-0.1-0.2-0.3-0.3
			c-0.1,0-0.2-0.1-0.3-0.1c-0.1-0.1-0.1-0.2-0.1-0.3v-0.3l1,0.1c0.2,0,0.3,0.1,0.4,0.2c0.1,0.1,0.2,0.2,0.2,0.2
			c0,0.1,0.1,0.2,0.1,0.3c0,0.1,0,0.3,0,0.4v2.3c0,0.2,0,0.3,0.1,0.4s0.1,0.1,0.4,0.1h2.7c0.7,0,1.3,0,1.7-0.1s0.8-0.1,1-0.2
			c0.1,0,0.2,0,0.3,0s0.2,0,0.3,0l0.6,0.3c0.2,0.1,0.3,0.1,0.3,0.2c0,0.1,0.1,0.2,0,0.3c-0.1,0.2-0.1,0.3-0.2,0.3
			c-0.1,0-0.2,0.1-0.3,0.1L135.2,38.8L135.2,38.8z M141.9,33.8c0,0.2,0,0.3-0.1,0.5c-0.1,0.2-0.1,0.3-0.2,0.5s-0.1,0.3-0.2,0.4
			c-0.1,0.1-0.1,0.2-0.2,0.2c-0.1,0.1-0.1,0.1-0.2,0.1c-0.1,0-0.1-0.1-0.1-0.1V24.6c0-0.2-0.1-0.4-0.1-0.5c-0.1-0.1-0.2-0.3-0.4-0.4
			c-0.1-0.1-0.1-0.2,0-0.4c0.1-0.2,0.2-0.2,0.4-0.1l0.7,0.3c0.3,0.1,0.4,0.2,0.5,0.3s0.1,0.2,0.1,0.5L141.9,33.8L141.9,33.8z"/>
		<path d="M147.8,31.3l-1.9,0c-0.1,0-0.2,0-0.3,0c-0.1,0-0.3,0-0.4,0c-0.1,0-0.2,0-0.4,0c-0.1,0-0.2,0-0.3-0.1
			c-0.1,0-0.1-0.1-0.2-0.2c0-0.1,0-0.2,0-0.3l0.1-0.6c0.2,0.1,0.5,0.1,0.8,0.1c0.3,0,0.7,0,1,0.1c0.3,0,0.6,0,0.9,0
			c0.3,0,0.5,0,0.6,0c0.7,0,1.4,0,2,0c0.6,0,1.2,0,1.8,0c0.6,0,1.1,0,1.6,0s1,0,1.4,0c0.2,0,0.4,0,0.6,0s0.5,0,0.8,0
			c0.2,0,0.5,0,0.7,0s0.3,0,0.4,0c0.4,0,0.6,0,0.9,0s0.4,0,0.5,0.1l0.6,0.5c0.1,0.1,0.1,0.2,0.1,0.2c0,0.1,0,0.1,0,0.2
			c0,0.1-0.1,0.1-0.1,0.2c-0.1,0.1-0.1,0.1-0.2,0.1l-1.1-0.2c-0.2,0-0.5,0-0.8,0c-0.3,0-0.6,0-0.9,0c-0.3,0-0.6,0-0.9,0
			s-0.6,0-0.8,0L147.8,31.3z M156,25c0,0.2-0.1,0.5-0.2,0.8c-0.1,0.4-0.2,0.7-0.3,1.1c-0.1,0.4-0.2,0.8-0.3,1.1
			c-0.1,0.4-0.2,0.6-0.3,0.8c-0.1,0.1-0.1,0.2-0.2,0.2c-0.1,0-0.2,0-0.3,0s-0.1-0.1-0.2-0.1s-0.1-0.2,0-0.3c0.2-0.6,0.3-1.2,0.4-1.9
			c0.1-0.6,0.2-1.2,0.3-1.8l-1.7,0c0,0-0.3,0-0.8,0c-0.5,0-1.1,0-1.9,0.1c-0.2,0-0.4,0-0.6,0c-0.2,0-0.4,0-0.5,0s-0.4,0-0.6,0
			s-0.4,0-0.6,0c-0.1,0-0.2,0-0.4,0s-0.3,0-0.5-0.1c-0.1,0-0.1,0-0.2-0.1c0-0.1,0-0.2,0-0.3l0.1-0.6c0.2,0.1,0.4,0.1,0.7,0.1
			c0.3,0,0.6,0.1,0.8,0.1c0.3,0,0.6,0,0.8,0s0.5,0,0.6,0c0.2,0,0.5,0,0.8,0s0.6,0,0.9,0c0.3,0,0.5,0,0.8,0s0.3,0,0.4,0l2.1-0.1
			c0.1,0,0.2,0,0.4,0c0.2,0,0.3,0.1,0.4,0.2c0,0,0,0.1,0.1,0.1c0,0,0,0.1,0,0.1L156,25z M155.9,38.1c0,0.2,0,0.4-0.1,0.5
			s-0.2,0.2-0.5,0.2l-6.1,0.1c0,0.1,0,0.2,0,0.3c0,0.1-0.1,0.2-0.1,0.2c-0.1,0.1-0.1,0.1-0.3,0.1s-0.2,0-0.3,0c-0.1,0-0.1,0-0.1-0.1
			s-0.1-0.1-0.1-0.2l0-0.5l-0.3-4.4l-0.3-0.6c-0.1-0.1-0.1-0.2,0-0.2c0.1-0.1,0.1-0.1,0.2-0.2c0.1-0.1,0.2-0.1,0.3-0.1
			c0.1,0,0.1,0,0.2,0.1l0.4,0.5l6.6-0.1c0.1,0,0.2,0,0.3,0c0.1,0,0.2,0,0.2,0.1c0,0,0.1,0.1,0.1,0.2s0,0.2,0,0.3L155.9,38.1
			L155.9,38.1z M154.8,34.8c0-0.1,0-0.2-0.1-0.3c0,0-0.1-0.1-0.3-0.1l-5.3,0.1c-0.2,0-0.3,0-0.3,0.1c0,0,0,0.2,0,0.3l0.2,3l5.4-0.1
			c0.2,0,0.3,0,0.3-0.1s0.1-0.2,0.1-0.3L154.8,34.8L154.8,34.8z"/>
		<path d="M163.8,35.5c0.1-0.3,0.3-0.6,0.5-0.8c0,0-0.1,0-0.1,0s0,0,0-0.1v-2.2c0-0.3,0-0.5-0.1-0.6s-0.2-0.3-0.3-0.4l-0.8,0
			l-1.9,0.1c-0.1,0-0.2,0-0.3,0c-0.1,0-0.3,0-0.4,0c-0.1,0-0.2,0-0.4,0c-0.1,0-0.2,0-0.3-0.1c-0.1,0-0.1-0.1-0.2-0.2
			c0-0.1,0-0.2,0-0.3l0.1-0.6c0.2,0.1,0.5,0.1,0.8,0.1c0.3,0,0.7,0,1,0.1c0.3,0,0.6,0,0.9,0s0.5,0,0.6,0c0.7,0,1.4,0,2,0
			c0.6,0,1.2,0,1.8,0c0.6,0,1.1,0,1.6,0c0.5,0,1,0,1.4-0.1c0.2,0,0.4,0,0.6,0c0.2,0,0.5,0,0.8,0c0.2,0,0.5,0,0.7,0s0.3,0,0.4,0
			c0.4,0,0.6,0,0.9-0.1c0.2,0,0.4,0,0.5,0.1l0.6,0.5c0.1,0.1,0.1,0.2,0.1,0.2c0,0.1,0,0.1,0,0.2c0,0.1-0.1,0.1-0.1,0.2
			s-0.1,0.1-0.2,0.1l-1.1-0.2c-0.2,0-0.4,0-0.7,0s-0.6,0-0.8,0c-0.3,0-0.6,0-0.9,0s-0.6,0-0.8,0c0.2,0.1,0.4,0.3,0.4,0.4
			s0.1,0.3,0.1,0.5v1c0,0.2-0.1,0.4-0.2,0.7c-0.1,0.3-0.3,0.5-0.4,0.7c0.3,0.2,0.5,0.5,0.6,0.9s0.2,0.7,0.2,1.2
			c0,0.5-0.1,0.9-0.3,1.2s-0.4,0.7-0.7,0.9c-0.3,0.2-0.7,0.4-1.1,0.6s-0.9,0.2-1.4,0.2c-1,0-1.8-0.3-2.5-0.8s-1-1.2-1-2.1
			C163.6,36.2,163.7,35.8,163.8,35.5z M164.5,24.6c0.6-0.5,1.4-0.8,2.5-0.8c1.1,0,1.9,0.3,2.5,0.8s0.9,1.2,0.9,2
			c0,0.8-0.3,1.5-0.9,2c-0.6,0.5-1.4,0.8-2.5,0.8c-1.1,0-1.9-0.3-2.5-0.8c-0.6-0.5-0.9-1.2-0.9-2C163.7,25.8,163.9,25.1,164.5,24.6z
			 M165.3,35.1c-0.4,0.4-0.6,0.8-0.6,1.5c0,0.6,0.2,1,0.6,1.4c0.4,0.4,1,0.6,1.8,0.6c0.8,0,1.4-0.2,1.8-0.6c0.4-0.4,0.6-0.8,0.6-1.4
			c0-0.6-0.2-1.1-0.6-1.5c-0.4-0.4-1-0.5-1.8-0.5C166.3,34.6,165.7,34.7,165.3,35.1z M165.3,25.2c-0.4,0.4-0.6,0.8-0.6,1.3
			c0,0.5,0.2,0.9,0.6,1.3c0.4,0.4,1,0.6,1.8,0.6c0.8,0,1.4-0.2,1.7-0.6c0.4-0.4,0.6-0.8,0.6-1.3c0-0.5-0.2-1-0.6-1.3
			c-0.4-0.4-0.9-0.6-1.8-0.6C166.3,24.6,165.7,24.8,165.3,25.2z M165.2,33.2c0,0.2-0.1,0.3-0.1,0.5c-0.1,0.2-0.2,0.4-0.3,0.5
			c0.3-0.2,0.6-0.3,1-0.5c0.4-0.1,0.8-0.2,1.3-0.2c0.4,0,0.8,0,1.1,0.1c0.4,0.1,0.7,0.2,1,0.4v-1.8c0-0.3-0.1-0.5-0.1-0.7
			c-0.1-0.1-0.2-0.3-0.4-0.4h0v0l-3.8,0.1c0.1,0.1,0.2,0.2,0.2,0.4s0.1,0.3,0.1,0.5L165.2,33.2L165.2,33.2z"/>
		<path d="M180,26.2C180,26.2,180,26.2,180,26.2c-0.1,0-0.1,0-0.1,0s0,0,0,0c0.1,0.1,0.2,0.2,0.3,0.2c0.1,0.1,0.2,0.2,0.2,0.2
			c0.1,0.1,0.1,0.2,0,0.3c0,0.1-0.1,0.3-0.1,0.6c0,0.1-0.1,0.3-0.1,0.4c-0.1,0.1-0.1,0.3-0.2,0.4l2.2,1.9c0.1,0.1,0.1,0.1,0.2,0.2
			c0.1,0,0.1,0.1,0.2,0.1s0.2,0.1,0.2,0.1s0.2,0.1,0.3,0.1c0.2,0.1,0.3,0.2,0.4,0.3c0.1,0.1,0.2,0.2,0.3,0.5l0.2,0.5
			c0,0.1,0.1,0.2,0,0.3c0,0.1-0.1,0.1-0.1,0.2c-0.1,0.1-0.2,0.1-0.3,0.1c-0.1,0-0.2-0.1-0.3-0.2l-3.7-3.5c-0.4,0.7-0.9,1.3-1.5,2
			s-1.3,1.2-2,1.7c-0.1,0-0.1,0.1-0.1,0.1c-0.1,0-0.1,0-0.2,0.1c-0.1,0-0.1,0-0.2,0c-0.1,0-0.1,0-0.2,0c-0.1-0.1-0.2-0.2-0.2-0.3
			c0-0.1,0-0.3,0.1-0.3c1.3-0.9,2.3-1.8,2.9-2.7c0.6-0.9,1-1.8,1.1-2.5c0-0.1,0-0.1,0-0.2c0-0.1,0-0.1-0.1-0.2c0,0-0.1,0-0.1-0.1
			c0,0-0.1-0.1-0.1-0.1c-0.1,0-0.1-0.1-0.1-0.1s-0.1-0.1-0.2-0.1l-1.4,0.1c-0.3,0-0.5,0-0.7,0s-0.3-0.1-0.4-0.1
			c-0.1,0-0.1-0.1-0.1-0.1c0-0.1,0-0.1,0-0.2l0.1-0.6c0.4,0.1,0.8,0.1,1.1,0.1s0.7,0,1.1,0c0.2,0,0.4,0,0.5,0c0.1,0,0.3,0,0.4,0
			c0.1,0,0.3,0,0.4,0c0.1,0,0.3,0,0.5,0c0.2,0,0.4,0,0.6,0c0.2,0,0.4,0,0.6-0.1c0.2,0,0.4,0,0.5,0s0.2,0,0.3,0
			c0.4-0.1,0.6-0.1,0.7-0.1s0.2,0.1,0.4,0.1l0.4,0.2c0.2,0.1,0.2,0.2,0.2,0.3c0,0.1,0,0.2-0.1,0.3c-0.1,0.1-0.1,0.2-0.2,0.2
			c-0.1,0-0.1,0-0.2,0c-0.1,0-0.1,0-0.2,0c-0.1,0-0.1,0-0.2,0c-0.1,0-0.2,0-0.2-0.1c-0.1,0-0.2,0-0.2,0c-0.3,0-0.5,0-0.7,0
			c-0.2,0-0.4,0-0.5,0s-0.4,0-0.5,0C180.6,26.1,180.4,26.1,180,26.2C180.1,26.2,180,26.2,180,26.2z M180.4,38.8c-0.1,0-0.3,0-0.4,0
			c-0.1,0-0.3,0-0.4-0.1s-0.2-0.2-0.3-0.3c-0.1-0.1-0.1-0.3-0.1-0.5v-2.5c0-0.2,0-0.4-0.1-0.5s-0.1-0.2-0.3-0.3
			c-0.1,0-0.2-0.1-0.3-0.1s-0.1-0.1-0.1-0.3v-0.4l1,0.1c0.2,0,0.3,0.1,0.4,0.2c0.1,0.1,0.2,0.2,0.2,0.2c0,0.1,0.1,0.2,0.1,0.3
			c0,0.1,0,0.3,0,0.4v2.5c0,0.2,0,0.3,0.1,0.4c0,0.1,0.1,0.1,0.4,0.1h2.6c0.7,0,1.2,0,1.7-0.1c0.4,0,0.8-0.1,1-0.2
			c0.1,0,0.2,0,0.3-0.1c0.1,0,0.2,0,0.3,0.1l0.6,0.3c0.2,0.1,0.3,0.1,0.3,0.2c0,0.1,0.1,0.2,0,0.3c-0.1,0.2-0.1,0.3-0.2,0.3
			s-0.2,0-0.3,0L180.4,38.8L180.4,38.8z M187.2,33.6c0,0.2,0,0.3-0.1,0.5s-0.1,0.3-0.2,0.5s-0.1,0.3-0.2,0.4
			c-0.1,0.1-0.1,0.2-0.2,0.2c-0.1,0.1-0.1,0.1-0.2,0.1c-0.1,0-0.1-0.1-0.1-0.2V24.6c0-0.2-0.1-0.4-0.1-0.5c-0.1-0.1-0.2-0.3-0.4-0.4
			c-0.1-0.1-0.1-0.2,0-0.4s0.2-0.2,0.4-0.1l0.7,0.3c0.3,0.1,0.4,0.2,0.5,0.3s0.1,0.2,0.1,0.5L187.2,33.6L187.2,33.6z"/>
		<path d="M192.9,33.4l-1.9,0c-0.1,0-0.2,0-0.3,0c-0.1,0-0.3,0-0.4,0c-0.1,0-0.2,0-0.4,0c-0.1,0-0.2,0-0.3-0.1
			c-0.1,0-0.1-0.1-0.2-0.2c0-0.1,0-0.2,0-0.3l0.1-0.6c0.2,0.1,0.5,0.1,0.8,0.1c0.3,0,0.7,0,1,0.1c0.3,0,0.6,0,0.9,0
			c0.3,0,0.5,0,0.6,0c0.7,0,1.4,0,2,0c0.6,0,1.2,0,1.8,0c0.6,0,1.1,0,1.6,0c0.5,0,1,0,1.4-0.1c0.2,0,0.4,0,0.6,0s0.5,0,0.8,0
			c0.2,0,0.5,0,0.7,0s0.3,0,0.4,0c0.4,0,0.6,0,0.9,0s0.4,0,0.5,0.1l0.6,0.5c0.1,0.1,0.1,0.2,0.1,0.2c0,0.1,0,0.1,0,0.2
			c0,0.1-0.1,0.1-0.1,0.2s-0.1,0.1-0.2,0.1l-1.1-0.2c-0.2,0-0.5,0-0.8,0c-0.3,0-0.6,0-0.9,0c-0.3,0-0.6,0-0.9,0s-0.6,0-0.8,0
			L192.9,33.4z M195.9,26.1c-0.3,0-0.6,0-1,0c-0.4,0-0.7,0-1,0s-0.6,0-0.9,0c-0.3,0-0.5,0-0.7,0c-0.2,0-0.3-0.1-0.4-0.1
			c-0.1,0-0.1-0.1-0.1-0.1c0-0.1,0-0.1,0-0.2l0.1-0.6c0.4,0.1,0.8,0.1,1.2,0.1s0.8,0,1.2,0c0.1,0,0.3,0,0.4,0c0.2,0,0.3,0,0.5,0
			s0.3,0,0.5,0c0.2,0,0.3,0,0.5,0v-0.7c0-0.2,0-0.4-0.1-0.5s-0.1-0.2-0.3-0.3c-0.1-0.1-0.1-0.1,0-0.3c0.1-0.1,0.1-0.2,0.2-0.2
			l0.6,0.2c0.3,0.1,0.4,0.2,0.4,0.3c0,0.1,0.1,0.3,0.1,0.5v1c0.3,0,0.5,0,0.8,0s0.6,0,0.8,0c0.3,0,0.5,0,0.7,0c0.2,0,0.3,0,0.4,0
			c0.4,0,0.6-0.1,0.7,0c0.1,0,0.2,0,0.4,0.1l0.4,0.2c0.1,0.1,0.2,0.2,0.2,0.2c0,0.1,0,0.2-0.1,0.3c-0.1,0.1-0.1,0.2-0.2,0.2
			c-0.1,0-0.1,0-0.2,0c-0.1,0-0.1,0-0.2,0c-0.1,0-0.1,0-0.2-0.1c-0.1,0-0.2,0-0.2,0c-0.1,0-0.2,0-0.2,0c-0.5,0-1.1,0-1.8,0
			c-0.7,0-1.3,0-1.8,0C196.5,26,196.2,26.1,195.9,26.1z M194.4,35c0.7-0.4,1.5-0.7,2.5-0.7c0.5,0,0.9,0.1,1.3,0.2
			c0.4,0.1,0.8,0.3,1.1,0.5c0.3,0.2,0.6,0.5,0.8,0.8s0.3,0.7,0.3,1.1c0,0.8-0.3,1.5-1,1.9s-1.5,0.7-2.4,0.7c-1,0-1.8-0.2-2.5-0.7
			s-1-1.1-1-1.9C193.4,36.1,193.7,35.5,194.4,35z M193.8,28.1c0.2-0.3,0.4-0.6,0.7-0.8c0.3-0.2,0.6-0.4,1-0.5
			c0.4-0.1,0.8-0.2,1.3-0.2c0.4,0,0.8,0,1.2,0.2s0.7,0.3,1,0.5c0.3,0.2,0.5,0.5,0.7,0.8c0.2,0.3,0.3,0.6,0.3,1c0,0.4-0.1,0.7-0.2,1
			s-0.4,0.5-0.7,0.7c-0.3,0.2-0.6,0.4-1,0.5s-0.8,0.2-1.2,0.2c-0.4,0-0.9,0-1.3-0.2s-0.7-0.3-1-0.5c-0.3-0.2-0.5-0.5-0.7-0.7
			c-0.2-0.3-0.2-0.6-0.2-1C193.5,28.7,193.6,28.4,193.8,28.1z M195.1,35.7c-0.4,0.3-0.6,0.7-0.6,1.2s0.2,0.9,0.6,1.2
			c0.4,0.3,1,0.4,1.8,0.4c0.8,0,1.4-0.1,1.8-0.4c0.4-0.3,0.6-0.7,0.6-1.2s-0.2-0.9-0.6-1.2c-0.4-0.3-1-0.4-1.8-0.4
			C196.1,35.3,195.4,35.5,195.1,35.7z M195.1,28c-0.4,0.3-0.6,0.6-0.6,1.1c0,0.5,0.2,0.8,0.6,1.1s0.9,0.4,1.6,0.4
			c0.7,0,1.2-0.1,1.6-0.4s0.5-0.6,0.5-1.1c0-0.5-0.2-0.8-0.6-1.1c-0.4-0.3-0.9-0.4-1.6-0.4C196,27.6,195.5,27.7,195.1,28z"/>
		<path d="M210.1,33c0,0.1,0,0.2-0.1,0.4c-0.1,0.2-0.1,0.3-0.2,0.4c-0.1,0.2-0.1,0.3-0.2,0.4c-0.1,0.1-0.1,0.2-0.2,0.2
			c-0.1,0.1-0.1,0.1-0.2,0.1c-0.1,0-0.2-0.1-0.2-0.1v-2c0-0.2,0-0.3-0.1-0.5c0-0.1-0.1-0.2-0.1-0.3l-0.4,0c-0.2,0-0.4,0-0.6,0.1
			c-0.3,0-0.6,0-0.8,0.1c-0.3,0-0.6,0-0.9,0s-0.5,0-0.7,0c-0.1,0-0.2,0-0.4,0c-0.1,0-0.3,0-0.4-0.1c-0.1,0-0.1-0.1-0.1-0.1
			s0-0.2,0-0.3l0.1-0.5c0.4,0.1,1,0.1,1.8,0.1c0.7,0,1.4,0,2.1-0.1c0.4,0,0.9-0.1,1.4-0.1s1-0.1,1.6-0.2c0.5-0.1,1.1-0.2,1.6-0.3
			c0.5-0.1,1-0.2,1.4-0.4c0,0,0.1,0,0.2,0c0.1,0,0.2,0.1,0.2,0.1c0.1,0,0.2,0.1,0.2,0.2c0,0.1,0,0.2-0.1,0.2
			c-0.7,0.3-1.5,0.5-2.4,0.7s-1.7,0.3-2.5,0.4c0.1,0.1,0.1,0.2,0.1,0.3c0,0.1,0,0.2,0,0.4L210.1,33L210.1,33z M206.8,25.9
			c0.1-0.3,0.3-0.6,0.6-0.9c0.3-0.3,0.6-0.5,1-0.6c0.4-0.1,0.9-0.2,1.4-0.2c1,0,1.8,0.3,2.4,0.8s0.8,1.2,0.8,2c0,0.8-0.3,1.4-0.9,2
			c-0.6,0.5-1.4,0.8-2.4,0.8c-1.1,0-1.9-0.3-2.4-0.8c-0.5-0.5-0.8-1.2-0.8-2C206.6,26.6,206.6,26.2,206.8,25.9z M208.2,25.5
			c-0.4,0.4-0.6,0.8-0.6,1.4c0,0.5,0.2,1,0.6,1.4c0.4,0.4,0.9,0.6,1.6,0.6c0.7,0,1.2-0.2,1.6-0.5c0.4-0.4,0.5-0.8,0.5-1.4
			c0-0.5-0.2-1-0.6-1.4c-0.4-0.4-0.9-0.5-1.6-0.5C209.1,25,208.6,25.2,208.2,25.5z M210.3,38.8c-0.1,0-0.3,0-0.4,0
			c-0.1,0-0.3,0-0.4-0.1s-0.2-0.2-0.3-0.3c-0.1-0.1-0.1-0.3-0.1-0.5v-1.2c0-0.2,0-0.4-0.1-0.5s-0.1-0.2-0.3-0.3
			c-0.1,0-0.2-0.1-0.3-0.1s-0.1-0.1-0.1-0.3v-0.4l1,0.1c0.2,0,0.3,0.1,0.4,0.2c0.1,0.1,0.2,0.2,0.2,0.2c0,0.1,0.1,0.2,0.1,0.3
			c0,0.1,0,0.3,0,0.4v1.2c0,0.2,0,0.3,0.1,0.4c0,0.1,0.1,0.1,0.4,0.1h2.6c0.7,0,1.2,0,1.7-0.1c0.4,0,0.8-0.1,1-0.2
			c0.1,0,0.2,0,0.3-0.1c0.1,0,0.2,0,0.3,0.1l0.7,0.3c0.2,0.1,0.3,0.1,0.3,0.2c0.1,0.1,0.1,0.2,0,0.3c-0.1,0.2-0.1,0.3-0.2,0.3
			s-0.2,0-0.3,0L210.3,38.8L210.3,38.8z M217.1,34.2c0,0.2,0,0.3-0.1,0.5s-0.1,0.3-0.2,0.5s-0.1,0.3-0.2,0.4
			c-0.1,0.1-0.1,0.2-0.2,0.2c-0.1,0.1-0.1,0.1-0.2,0.1c-0.1,0-0.1-0.1-0.1-0.1v-2.5l-3.3,0.1c-0.1,0-0.2,0-0.3,0s-0.1-0.1-0.2-0.2
			l-0.4-0.5c-0.1-0.1-0.1-0.1,0-0.2s0.2-0.1,0.3-0.1l0.4,0.1c0.1,0,0.2,0,0.3,0s0.2,0,0.3,0l2.9-0.1v-7.9c0-0.2-0.1-0.4-0.1-0.5
			c-0.1-0.1-0.2-0.3-0.4-0.4c-0.1-0.1-0.1-0.2-0.1-0.4s0.2-0.2,0.4-0.1l0.7,0.3c0.3,0.1,0.4,0.2,0.5,0.3s0.1,0.2,0.1,0.5L217.1,34.2
			L217.1,34.2z"/>
	</g>
</g>
</svg>
