<?xml version="1.0" encoding="utf-8"?>
<!-- Generator: Adobe Illustrator 22.0.1, SVG Export Plug-In . SVG Version: 6.00 Build 0)  -->
<svg version="1.1" id="Layer_1" xmlns="http://www.w3.org/2000/svg" xmlns:xlink="http://www.w3.org/1999/xlink" x="0px" y="0px"
	 viewBox="0 0 12 57.8" style="enable-background:new 0 0 12 57.8;" xml:space="preserve">
<style type="text/css">
	.st0{fill:#666666;}
</style>
<g>
	<path class="st0" d="M0.9,20.4c-0.2-0.2-0.3-0.4-0.3-0.7c0-0.1,0-0.2,0-0.2c0.5-0.2,1.2-0.4,2.1-0.5c0.9-0.1,1.5-0.2,1.8-0.2
		c0-1.1,0.1-2.2,0.1-3.3s0-2.1-0.1-2.9c-0.4-0.1-1-0.2-1.8-0.3C1.8,12.1,1.3,12,1,12c-0.3-0.4-0.3-0.7-0.1-1c0.2,0,0.6,0.1,1.1,0.1
		c0.5,0.1,1,0.1,1.3,0.2c0.4,0,0.8,0.1,1.4,0.2c0.6,0.1,1,0.2,1.5,0.3c0.4,0.1,0.9,0.2,1.4,0.4c0.5,0.2,0.9,0.3,1.3,0.5
		c0.4,0.2,0.7,0.4,1.1,0.6c0.4,0.2,0.7,0.5,0.9,0.8c0.5,0.6,0.8,1.3,0.8,2c0,0.7-0.3,1.3-0.8,1.8c-0.6,0.5-1.3,0.9-2.2,1.1
		c-0.9,0.3-1.8,0.5-2.8,0.6C4.9,19.7,4,19.8,3,19.9C2,20.1,1.4,20.2,0.9,20.4z M9.3,17.6c0.5-0.2,0.9-0.4,1.2-0.7
		c0.3-0.3,0.4-0.7,0.4-1.1c0-0.4-0.2-0.9-0.6-1.3c-0.4-0.4-1-0.7-1.6-1c-1.2-0.4-2.3-0.7-3.3-0.8c0.1,1,0.2,2,0.2,3c0,1,0,2-0.1,2.9
		c0.2,0,0.5-0.1,1.1-0.2c0.6-0.1,1.1-0.2,1.5-0.3C8.3,17.9,8.8,17.8,9.3,17.6z"/>
	<path class="st0" d="M3.8,23.1l-2.3,0c-0.3,0-0.5-0.1-0.6-0.2c-0.1-0.1-0.2-0.3-0.2-0.4c0-0.1,0-0.2,0-0.3C1.8,22.1,2.8,22,3.9,22
		c1,0,2.2,0,3.5,0.1c1.3,0.1,2.3,0.1,3.1,0.1c0.8,0,1.2,1.1,1.2,3.2c0,1.1-0.2,2.2-0.7,3.2c-0.2,0.5-0.6,0.9-1,1.3
		c-0.4,0.3-0.9,0.5-1.5,0.5c-0.5,0-1-0.1-1.5-0.4c-0.4-0.2-0.8-0.5-1.1-0.9c-0.3-0.4-0.5-0.8-0.7-1.3c-0.4-0.8-0.6-1.7-0.7-2.6
		c-0.3,0.5-0.9,1.3-2,2.3c-0.3,0.3-0.6,0.7-0.8,1.2c-0.2,0.5-0.4,1-0.4,1.5c0,0.1,0,0.2,0,0.3c0,0.2,0,0.3,0.1,0.4
		c0,0.1,0,0.2-0.1,0.3c-0.1,0.1-0.2,0.1-0.3,0.1c-0.3,0-0.5-0.4-0.5-1.3c0-1,0.4-2,1.1-3c0.3-0.4,0.7-0.9,1-1.3c0.9-1,1.4-2,1.6-2.8
		C4.2,23.1,4,23.1,3.8,23.1z M8.2,29.3c0.8,0,1.5-0.4,1.9-1.1c0.4-0.8,0.6-1.7,0.6-2.9c0-0.7-0.1-1.4-0.2-2c-0.8,0-1.7,0-2.6-0.1
		c-1-0.1-1.6-0.1-2-0.1c-0.4,0-0.6,0-0.8,0c0.1,1.5,0.3,2.6,0.5,3.4c0.3,0.9,0.6,1.5,0.9,2C7,29.1,7.6,29.3,8.2,29.3z"/>
	<path class="st0" d="M11.5,33.8c-4.5-0.1-8.1-0.2-10.6-0.2c-0.2-0.2-0.2-0.3-0.2-0.4c0-0.1,0-0.2,0.1-0.3c0.2-0.2,0.4-0.3,0.8-0.3
		c4.8,0,7.6,0.1,8.5,0.1c0.8,0.1,1.3,0.1,1.4,0.2c0.1,0.1,0.2,0.2,0.2,0.4C11.6,33.4,11.6,33.6,11.5,33.8z"/>
	<path class="st0" d="M2,44.3l9.3,0.1c0.2,0.2,0.2,0.3,0.2,0.5c0,0.2,0,0.3-0.1,0.4c-1.3,0.1-2.4,0.1-3.3,0.1l-7-0.1
		c-0.2,0-0.4,0-0.6,0c-0.2-0.3-0.3-0.6-0.3-0.8l0-0.2c0.1-0.1,0.1-0.2,0.1-0.2c0-0.1,0.1-0.1,0.2-0.2c0.1-0.1,0.2-0.2,0.2-0.2
		c0.1,0,0.2-0.1,0.3-0.2c0.2-0.1,0.3-0.2,0.4-0.2c0.1,0,0.5-0.3,1.4-0.9c0.8-0.5,1.4-0.9,1.6-1c0.2-0.1,0.7-0.4,1.3-0.9
		c0.7-0.5,1.2-0.8,1.5-1.1c1-0.8,1.8-1.5,2.4-2.1c-1.3,0.1-2.7,0.1-4.2,0.1s-3.1,0-4.8-0.1c-0.2-0.1-0.3-0.5-0.3-1
		c5.7,0,9.2,0,10.5-0.1c0.2,0.2,0.3,0.4,0.3,0.6s-0.1,0.4-0.2,0.5c-0.2,0.3-0.4,0.6-0.7,0.9c-1.1,1.1-2.3,2.1-3.6,3
		C5.5,42.2,3.9,43.2,2,44.3z"/>
</g>
</svg>
